<?xml version="1.0" encoding="UTF-8"?>
<svg version="1.1" xmlns="http://www.w3.org/2000/svg" width="512" height="512">
<path d="M0 0 C0.53189941 0.43183594 1.06379883 0.86367187 1.61181641 1.30859375 C17.06510168 13.87150018 31.22768585 27.91977325 43 44 C43.71285156 44.94101563 44.42570312 45.88203125 45.16015625 46.8515625 C82.37561302 96.61558369 97.37700752 160.48947366 88.96484375 221.7734375 C81.40606483 272.18089818 59.02364038 317.19157518 24 354 C23.19103271 354.85198975 23.19103271 354.85198975 22.36572266 355.72119141 C14.14572332 364.31644642 5.54227699 371.91120368 -4 379 C-5.41925781 380.07701172 -5.41925781 380.07701172 -6.8671875 381.17578125 C-46.64361953 410.86398776 -95.82499369 426.70475869 -145.3125 427.3125 C-146.17810547 427.33022461 -147.04371094 427.34794922 -147.93554688 427.36621094 C-154.42986802 427.35857056 -158.99601233 426.13441229 -164.375 422.3125 C-166.71751056 418.97892728 -166.58300245 416.03506448 -167 412 C-168.54880859 411.87044922 -168.54880859 411.87044922 -170.12890625 411.73828125 C-184.17891664 410.43418468 -198.40137501 408.10997734 -211.86328125 403.78125 C-215.22197538 402.94471348 -216.7711304 402.82869257 -220 404 C-222.02889586 405.30050271 -224.00401731 406.68646937 -225.9375 408.125 C-248.55076565 424.32767154 -275.67598384 430.13473222 -303.0625 425.875 C-320.26570478 422.88080065 -336.73574898 415.38296587 -350 404 C-351.21623047 402.98292969 -351.21623047 402.98292969 -352.45703125 401.9453125 C-372.32841559 384.79059975 -384.73255728 360.19309178 -387 334 C-388.40784414 307.93258726 -382.14275141 281.70394502 -364.58984375 261.84375 C-362.42709296 257.97524245 -363.03986719 255.12907812 -364 251 C-364.25656372 249.87682373 -364.25656372 249.87682373 -364.51831055 248.73095703 C-365.11274608 246.25145776 -365.74258954 243.78256862 -366.375 241.3125 C-369.10320456 230.31180256 -372 218.39904734 -372 207 C-373.19625 206.979375 -374.3925 206.95875 -375.625 206.9375 C-379.35689931 206.4933841 -380.98549722 205.45882316 -383.4375 202.625 C-391.85803853 191.84120406 -386.93783944 169.93031655 -385.47827148 157.32324219 C-379.98679131 114.58954194 -362.97597471 73.66112027 -336 40 C-335.23042969 39.02675781 -334.46085937 38.05351563 -333.66796875 37.05078125 C-322.4102441 23.12611379 -309.41098798 9.66540079 -295 -1 C-294.47132324 -1.39445312 -293.94264648 -1.78890625 -293.39794922 -2.1953125 C-210.33280761 -63.89679051 -92.24732082 -68.90588608 0 0 Z " fill="#CCF5F8" transform="translate(404,68)"/>
<path d="M0 0 C1.46873574 1.19566754 2.92680967 2.40452865 4.375 3.625 C5.18710938 4.29144531 5.99921875 4.95789063 6.8359375 5.64453125 C24.9286677 21.09293935 37.22121761 44.85096399 40.0625 68.4375 C40.19178519 70.16497023 40.29342496 71.8946204 40.375 73.625 C40.45427734 75.28789062 40.45427734 75.28789062 40.53515625 76.984375 C41.1918997 104.05362685 31.59446565 130.16223036 13.1328125 150.0390625 C11.24648217 151.93962928 9.32253939 153.78761555 7.375 155.625 C6.570625 156.470625 5.76625 157.31625 4.9375 158.1875 C-13.24945519 175.48728664 -38.24840351 183.06340316 -63.02490234 182.92553711 C-85.89438035 182.3529014 -108.15519942 174.61703712 -125.625 159.625 C-126.84123047 158.60792969 -126.84123047 158.60792969 -128.08203125 157.5703125 C-147.95341559 140.41559975 -160.35755728 115.81809178 -162.625 89.625 C-164.1403831 61.56641329 -156.34605998 34.82824525 -137.625 13.625 C-135.08384752 11.10711815 -132.41121577 8.86310775 -129.625 6.625 C-128.41593735 5.50078385 -127.20762909 4.37575593 -126 3.25 C-90.42841872 -27.5556801 -37.2731358 -28.16626143 0 0 Z " fill="#FDFEFE" transform="translate(179.625,312.375)"/>
<path d="M0 0 C0.53189941 0.43183594 1.06379883 0.86367187 1.61181641 1.30859375 C17.06510168 13.87150018 31.22768585 27.91977325 43 44 C43.71285156 44.94101563 44.42570312 45.88203125 45.16015625 46.8515625 C82.37561302 96.61558369 97.37700752 160.48947366 88.96484375 221.7734375 C81.40606483 272.18089818 59.02364038 317.19157518 24 354 C23.19103271 354.85198975 23.19103271 354.85198975 22.36572266 355.72119141 C14.14572332 364.31644642 5.54227699 371.91120368 -4 379 C-5.41925781 380.07701172 -5.41925781 380.07701172 -6.8671875 381.17578125 C-46.64361953 410.86398776 -95.82499369 426.70475869 -145.3125 427.3125 C-146.17810547 427.33022461 -147.04371094 427.34794922 -147.93554688 427.36621094 C-154.43944983 427.35855929 -159.26526586 426.30293401 -164.375 422 C-167.47770539 418.18128567 -167.34205888 414.21819519 -167.2734375 409.50390625 C-166.86002561 405.71823448 -165.57153267 403.76934288 -163 401 C-156.40640111 395.91723989 -149.82854102 396.45555149 -141.75 396.4375 C-129.91299669 396.25151972 -118.59620007 395.41119006 -107 393 C-106.19933105 392.8457959 -105.39866211 392.6915918 -104.57373047 392.53271484 C-58.68928324 383.59811951 -15.01165456 356.53848777 14 320 C14.79535156 319.02160156 15.59070313 318.04320312 16.41015625 317.03515625 C34.29931825 294.55321415 47.86957235 267.62199333 54.6875 239.6875 C54.97343018 238.51646729 54.97343018 238.51646729 55.26513672 237.32177734 C55.89999657 234.55667161 56.45999923 231.78531204 57 229 C57.19112366 228.03326355 57.19112366 228.03326355 57.3861084 227.04699707 C59.78458702 214.61657762 60.47243146 202.49318775 60.39111328 189.84716797 C60.37497455 186.87030518 60.39109598 183.89479186 60.41015625 180.91796875 C60.4231128 169.27274629 59.47937182 158.37350452 57 147 C56.80664062 146.02853027 56.61328125 145.05706055 56.4140625 144.05615234 C52.4837373 124.60030384 45.42308896 106.43039361 36 89 C35.68063477 88.4013916 35.36126953 87.8027832 35.03222656 87.18603516 C9.27173741 39.20875866 -34.88893295 5.34028013 -86 -12 C-91.59923253 -13.67244034 -97.27248951 -14.86143333 -103 -16 C-105.50009528 -16.56207636 -108.00010003 -17.12455561 -110.5 -17.6875 C-119.01229888 -19.57326918 -127.39001705 -20.16117681 -136.08984375 -20.203125 C-137.03324112 -20.20882507 -137.97663849 -20.21452515 -138.94862366 -20.22039795 C-140.9378245 -20.22979224 -142.92704051 -20.23635959 -144.91625977 -20.24023438 C-147.89824036 -20.2498731 -150.87951063 -20.28092288 -153.86132812 -20.3125 C-165.9056287 -20.37927614 -177.20752479 -19.43661672 -189 -17 C-189.99845947 -16.80647949 -190.99691895 -16.61295898 -192.02563477 -16.41357422 C-211.44356722 -12.518629 -229.61280023 -5.39973783 -247 4 C-247.8979126 4.47904785 -247.8979126 4.47904785 -248.81396484 4.96777344 C-288.21903978 26.12558145 -319.55267999 60.3741213 -338 101 C-338.34015137 101.74749512 -338.68030273 102.49499023 -339.03076172 103.26513672 C-350.73277813 129.29659324 -356.65801711 156.46171693 -356.54785156 185.05151367 C-356.5846939 192.17808164 -356.98924426 197.00871178 -361 203 C-364.43154963 206.05667446 -368.64423423 207.2227899 -373.1875 207.4375 C-378.45299552 206.83326281 -380.74269832 205.39700187 -384.25 201.5 C-393.0510466 188.92707628 -386.23497626 161.0885835 -384 147 C-377.01795178 107.99566251 -360.82270259 70.9742275 -336 40 C-335.23042969 39.02675781 -334.46085937 38.05351563 -333.66796875 37.05078125 C-322.4102441 23.12611379 -309.41098798 9.66540079 -295 -1 C-294.47132324 -1.39445312 -293.94264648 -1.78890625 -293.39794922 -2.1953125 C-210.33280761 -63.89679051 -92.24732082 -68.90588608 0 0 Z " fill="#1A83A8" transform="translate(404,68)"/>
<path d="M0 0 C1.46873574 1.19566754 2.92680967 2.40452865 4.375 3.625 C5.18710938 4.29144531 5.99921875 4.95789063 6.8359375 5.64453125 C24.9286677 21.09293935 37.22121761 44.85096399 40.0625 68.4375 C40.19178519 70.16497023 40.29342496 71.8946204 40.375 73.625 C40.45427734 75.28789062 40.45427734 75.28789062 40.53515625 76.984375 C41.1918997 104.05362685 31.59446565 130.16223036 13.1328125 150.0390625 C11.24648217 151.93962928 9.32253939 153.78761555 7.375 155.625 C6.570625 156.470625 5.76625 157.31625 4.9375 158.1875 C-13.24945519 175.48728664 -38.24840351 183.06340316 -63.02490234 182.92553711 C-85.89438035 182.3529014 -108.15519942 174.61703712 -125.625 159.625 C-126.84123047 158.60792969 -126.84123047 158.60792969 -128.08203125 157.5703125 C-147.95341559 140.41559975 -160.35755728 115.81809178 -162.625 89.625 C-164.1403831 61.56641329 -156.34605998 34.82824525 -137.625 13.625 C-135.08384752 11.10711815 -132.41121577 8.86310775 -129.625 6.625 C-128.41593735 5.50078385 -127.20762909 4.37575593 -126 3.25 C-90.42841872 -27.5556801 -37.2731358 -28.16626143 0 0 Z M-117.3125 34.6875 C-127.76835521 48.0529738 -133.21442116 62.95003371 -133.0625 79.875 C-133.05347656 81.07286133 -133.04445313 82.27072266 -133.03515625 83.50488281 C-132.86485924 92.19712609 -132.17730064 99.59458666 -128.625 107.625 C-128.36187012 108.22666992 -128.09874023 108.82833984 -127.82763672 109.44824219 C-119.41450479 128.15996175 -104.52252031 141.74406509 -85.625 149.625 C-81.66021212 150.91355606 -77.72388994 151.87483713 -73.625 152.625 C-72.56732422 152.82029297 -72.56732422 152.82029297 -71.48828125 153.01953125 C-69.54581043 153.31503898 -67.58366108 153.46955071 -65.625 153.625 C-64.46871094 153.72167969 -64.46871094 153.72167969 -63.2890625 153.8203125 C-45.5553525 154.61912827 -28.25743659 147.48326825 -14.625 136.625 C-13.98949219 136.15449219 -13.35398437 135.68398438 -12.69921875 135.19921875 C0.27065454 125.09166233 8.23956866 108.30224382 10.9296875 92.33203125 C13.38953791 71.8548555 9.21608493 52.68680099 -3.625 36.1875 C-4.93898125 34.64991583 -6.27108925 33.12754367 -7.625 31.625 C-8.17800781 30.99078125 -8.73101562 30.3565625 -9.30078125 29.703125 C-14.02815105 24.60343252 -19.64562738 21.10643966 -25.625 17.625 C-26.62853516 17.0371875 -26.62853516 17.0371875 -27.65234375 16.4375 C-58.31806927 -0.15959457 -94.96139148 9.25216697 -117.3125 34.6875 Z " fill="#1B83A8" transform="translate(179.625,312.375)"/>
<path d="M0 0 C3.38150776 2.20533114 5.97491049 4.30336303 7.875 7.875 C8.52790703 11.59088084 8.38207769 15.22191229 8.2487793 18.98242188 C8.22113495 20.64712524 8.22113495 20.64712524 8.19293213 22.34545898 C8.15163621 24.75189894 8.09981142 27.15817616 8.03867149 29.56419373 C7.94829086 33.38295511 7.90024258 37.20000099 7.86567688 41.01965332 C7.76559584 51.87749518 7.63759964 62.73291174 7.36450195 73.58789062 C7.1977588 80.23455498 7.12744678 86.87825452 7.10972023 93.52723694 C7.08624864 96.05050145 7.03004942 98.5736956 6.93948936 101.09544373 C6.0743129 114.3094721 6.0743129 114.3094721 10.61926651 126.2805481 C14.80483964 130.50220664 19.52614286 133.62525807 24.66658974 136.56617737 C27.90902615 138.48781948 30.74817735 140.76863501 33.6875 143.125 C35.7495985 144.7088562 37.81208821 146.29220323 39.875 147.875 C49.5656055 155.31024719 59.22768609 162.78118505 68.85302734 170.30078125 C70.62122712 171.67742363 72.39648891 173.04400547 74.17578125 174.40625 C75.06652344 175.0971875 75.95726562 175.788125 76.875 176.5 C77.6175 177.06976563 78.36 177.63953125 79.125 178.2265625 C81.62791242 180.58421661 82.69946038 182.62114555 83.17578125 186.0234375 C83.20221227 191.04533146 82.84010951 194.62500971 79.875 198.875 C76.45740449 202.04252754 73.63001422 203.18793381 69.0625 203.5 C62.97726552 203.19302971 59.51422905 200.61586095 54.875 196.875 C53.77510602 196.00344361 52.6748159 195.13238701 51.57421875 194.26171875 C49.02508205 192.23491796 46.48902219 190.19269432 43.95703125 188.14453125 C39.87845356 184.85909213 35.73095814 181.67022719 31.5625 178.5 C24.78847553 173.34571591 18.05571087 168.14145452 11.3425293 162.90820312 C7.40620501 159.84073625 3.46325707 156.78278141 -0.49780273 153.74731445 C-3.04435904 151.79527302 -5.58402889 149.83430302 -8.125 147.875 C-9.58486328 146.76125 -9.58486328 146.76125 -11.07421875 145.625 C-11.97785156 144.92375 -12.88148438 144.2225 -13.8125 143.5 C-14.60011719 142.89414062 -15.38773438 142.28828125 -16.19921875 141.6640625 C-18.89234798 139.16212906 -19.99686953 137.07982595 -20.38785553 133.40333843 C-20.39380486 132.47220132 -20.39975418 131.54106421 -20.40588379 130.58171082 C-20.41730408 129.50931656 -20.42872437 128.4369223 -20.44049072 127.33203125 C-20.44272644 126.16051514 -20.44496216 124.98899902 -20.44726562 123.78198242 C-20.45719543 122.54418533 -20.46712524 121.30638824 -20.47735596 120.03108215 C-20.50155221 116.63833214 -20.51648362 113.24582831 -20.52537727 109.85302138 C-20.53124689 107.73159145 -20.53945802 105.61018293 -20.54838562 103.48876381 C-20.57572192 96.84606663 -20.59506193 90.20341864 -20.6027894 83.56066912 C-20.61174849 75.90211003 -20.64683806 68.24426529 -20.70479059 60.58592337 C-20.74807377 54.65965295 -20.76820053 48.73358314 -20.77087164 42.80715638 C-20.77296426 39.27046707 -20.78470177 35.73444985 -20.82051086 32.19792747 C-20.85970489 28.25045276 -20.85087557 24.30386557 -20.83789062 20.35620117 C-20.85632019 19.19075775 -20.87474976 18.02531433 -20.89373779 16.82455444 C-20.82905932 10.54819871 -20.28033978 6.72732172 -15.80306244 2.16277027 C-10.75465154 -1.71145593 -6.03824079 -2.17376668 0 0 Z " fill="#1A83A8" transform="translate(262.125,125.125)"/>
<path d="M0 0 C5.0700659 2.23788623 8.7674328 4.81115879 11 10 C11.35268424 13.44735908 11.28287915 16.85194892 11.1875 20.3125 C11.16719727 21.70952148 11.16719727 21.70952148 11.14648438 23.13476562 C11.11126882 25.42377646 11.06202099 27.71158458 11 30 C12.93552734 29.93039062 12.93552734 29.93039062 14.91015625 29.859375 C16.62758088 29.82183566 18.34503072 29.78543783 20.0625 29.75 C20.91005859 29.71648437 21.75761719 29.68296875 22.63085938 29.6484375 C28.65734674 29.55536434 32.08184921 30.46171649 37 34 C39.66171422 36.68128565 40.92009809 39.49732856 41.12109375 43.27734375 C40.76996558 47.76730189 40.04764665 51.55910862 37 55 C31.27492324 58.85125696 26.27039597 59.53669429 19.5 59.25 C18.67757812 59.23195313 17.85515625 59.21390625 17.0078125 59.1953125 C15.00469196 59.1487283 13.00218179 59.07700699 11 59 C11.05220703 60.84464844 11.05220703 60.84464844 11.10546875 62.7265625 C11.13362045 64.35936127 11.16091913 65.9921749 11.1875 67.625 C11.21263672 68.43324219 11.23777344 69.24148438 11.26367188 70.07421875 C11.3399908 76.33237072 10.19591189 80.46097687 6 85.3125 C2.27985302 88.45137401 -1.7454597 88.45508369 -6.421875 88.4140625 C-10.69851809 87.7272077 -13.41291999 85.38819285 -16 82 C-18.56093351 77.38692771 -18.2301565 72.81185712 -18.125 67.6875 C-18.11597656 66.85154297 -18.10695313 66.01558594 -18.09765625 65.15429688 C-18.07420989 63.10274031 -18.03834266 61.05133223 -18 59 C-19.30195312 59.04640625 -20.60390625 59.0928125 -21.9453125 59.140625 C-23.67185196 59.17815847 -25.39841636 59.21455693 -27.125 59.25 C-27.9809375 59.28351563 -28.836875 59.31703125 -29.71875 59.3515625 C-35.35761965 59.43831434 -38.53724883 58.78782892 -43 55 C-46.86946654 50.72322119 -47.74369507 47.08922441 -47.5234375 41.47265625 C-46.64074388 37.302917 -44.26375954 34.63496183 -41 32 C-38.0216015 30.24504333 -35.89715972 29.75814649 -32.453125 29.8046875 C-31.18662109 29.81435547 -31.18662109 29.81435547 -29.89453125 29.82421875 C-29.02183594 29.84097656 -28.14914063 29.85773438 -27.25 29.875 C-25.91775391 29.88853516 -25.91775391 29.88853516 -24.55859375 29.90234375 C-22.37211942 29.92585423 -20.18619906 29.95871501 -18 30 C-18.04640625 28.69804687 -18.0928125 27.39609375 -18.140625 26.0546875 C-18.17815847 24.32814804 -18.21455693 22.60158364 -18.25 20.875 C-18.30027344 19.59109375 -18.30027344 19.59109375 -18.3515625 18.28125 C-18.43828581 12.64423506 -17.79069294 9.45923333 -14 5 C-9.19010974 0.76271572 -6.50605819 -0.62961853 0 0 Z " fill="#1C84A8" transform="translate(122,349)"/>
</svg>
