<svg xmlns="http://www.w3.org/2000/svg" width="44" height="45" fill="none"><g clip-path="url(#a)"><path fill="#1D4380" d="M6.257 33.462a3.73 3.73 0 0 0-1.262 2.289h-.54A.455.455 0 0 1 4 35.297v-1.38c0-.25.204-.455.454-.455zm5.204 2.289c.037.177.055.354.055.54a2.825 2.825 0 1 1-5.595-.54 2.822 2.822 0 0 1 5.54 0m-1.357.54c0-.19-.037-.377-.11-.54a1.4 1.4 0 0 0-1.303-.872c-.59 0-1.094.359-1.303.872-.073.163-.11.35-.11.54a1.414 1.414 0 0 0 2.825 0m-4.986-4.64V18.111c0-.752.61-1.362 1.362-1.362h21.708c.753 0 1.362.61 1.362 1.362V31.65c0 .25-.204.454-.454.454H5.572a.456.456 0 0 1-.454-.454m21.135-1.53c0 .216.175.391.39.391h.013a.39.39 0 0 0 .39-.39V18.889a.39.39 0 0 0-.39-.39h-.012a.39.39 0 0 0-.39.39zm-3.67 0c0 .216.174.391.39.391h.012a.39.39 0 0 0 .39-.39V18.889a.39.39 0 0 0-.39-.39h-.012a.39.39 0 0 0-.39.39zm-3.671 0c0 .216.175.391.39.391h.012a.39.39 0 0 0 .39-.39V18.889a.39.39 0 0 0-.39-.39h-.012a.39.39 0 0 0-.39.39zm-3.67 0c0 .216.174.391.39.391h.012a.39.39 0 0 0 .39-.39V18.889a.39.39 0 0 0-.39-.39h-.012a.39.39 0 0 0-.39.39zm-3.672 0c0 .216.175.391.39.391h.013a.39.39 0 0 0 .39-.39V18.889a.39.39 0 0 0-.39-.39h-.012a.39.39 0 0 0-.39.39zm-3.67 0c0 .216.175.391.39.391h.012a.39.39 0 0 0 .39-.39V18.889a.39.39 0 0 0-.39-.39H8.29a.39.39 0 0 0-.39.39zm10.532 5.63c.037.177.055.354.055.54a2.825 2.825 0 1 1-5.595-.54 2.822 2.822 0 0 1 5.54 0m-1.357.54c0-.19-.037-.377-.105-.54a1.41 1.41 0 0 0-1.308-.872c-.59 0-1.094.359-1.308.872a1.414 1.414 0 0 0 1.308 1.953c.781 0 1.412-.636 1.412-1.413m-3.847-2.829h-2.103c.464.4.832.913 1.054 1.494a3.7 3.7 0 0 1 1.049-1.494M44 33.916v1.38c0 .25-.204.455-.454.455h-3.678a3.74 3.74 0 0 0-3.688-3.197 3.74 3.74 0 0 0-3.692 3.197h-13.13a3.73 3.73 0 0 0-1.262-2.289h12.752V20.474c0-.5.405-.908.909-.908h4.287c1.208 0 2.334.6 3.01 1.598l2.766 4.096c.404.6.622 1.308.622 2.03v6.172h1.104c.25 0 .454.204.454.454m-4.605-8.551-2.212-3.143a.46.46 0 0 0-.372-.19h-3.447a.456.456 0 0 0-.454.454v3.138c0 .254.205.454.454.454h5.659a.454.454 0 0 0 .372-.713m-.39 10.926a2.825 2.825 0 0 1-5.65 0 2.826 2.826 0 0 1 2.825-2.829 2.83 2.83 0 0 1 2.825 2.83m-1.413 0a1.411 1.411 0 1 0-2.825 0 1.414 1.414 0 0 0 2.825 0"/><circle cx="9" cy="15" r="9" fill="#00C0F3"/><g fill="#fff" clip-path="url(#b)"><path d="M14.029 15.406a.887.887 0 0 0-1.206-.337l-2.58 1.453a.14.14 0 0 0-.067.088c-.045.184-.15.44-.4.619-.275.198-.648.239-1.102.122l-.007-.002-1.489-.462a.171.171 0 0 1 .102-.326l1.48.46.007.001q.527.132.81-.07c.237-.171.28-.47.284-.514v-.008a.78.78 0 0 0-.566-.81l-.006-.003a64 64 0 0 0-1.804-.56 2.3 2.3 0 0 0-.6-.074 2.7 2.7 0 0 0-1.696.591L2.623 17.65a.14.14 0 0 0-.023.193l1.39 1.836a.14.14 0 0 0 .196.026l1.79-1.378c.04-.03.094-.043.143-.03l2.89.682c.215.05.447.018.638-.09l4.045-2.278a.886.886 0 0 0 .337-1.205M12.422 8.98H7.139a.31.31 0 0 0-.31.311v1.414c0 .172.138.31.31.31h.116v3.003c0 .172.14.311.31.311h4.43a.31.31 0 0 0 .31-.31v-3.003h.117a.31.31 0 0 0 .31-.311V9.291a.31.31 0 0 0-.31-.31m-1.988 2.774H9.127a.249.249 0 0 1 0-.497h1.307a.249.249 0 0 1 0 .497m1.677-1.36H7.45v-.792h4.66z"/></g></g><defs><clipPath id="a"><path fill="#fff" d="M0 0h44v45H0z"/></clipPath><clipPath id="b"><path fill="#fff" d="M2.571 8.571h11.571v11.571H2.572z"/></clipPath></defs></svg>