<svg width="54" height="39" viewBox="0 0 54 39" fill="none" xmlns="http://www.w3.org/2000/svg">
<g clip-path="url(#clip0_75_2308)">
<path d="M30.5817 4.76097C32.7262 5.42059 34.6585 6.62969 36.1846 8.26687C37.8354 10.0187 38.9446 12.2058 39.3801 14.5673C39.592 16.1083 39.658 17.6658 39.5772 19.2191C39.5772 20.2628 39.5429 21.3022 39.62 22.2947C39.6981 23.8128 40.1386 25.2906 40.9051 26.6058C41.7709 27.9541 42.9267 29.0948 44.2891 29.9455C44.6755 30.1959 44.9548 30.5799 45.073 31.0233C45.1715 31.3657 45.1715 31.7288 45.073 32.0712C44.9677 32.4139 44.7708 32.7216 44.5033 32.9615C44.1544 33.2638 43.7066 33.4289 43.2439 33.4259H33.0961C32.8913 34.911 32.1527 36.2721 31.0167 37.2574C29.8808 38.2427 28.4244 38.7856 26.9171 38.7856C25.4097 38.7856 23.9534 38.2427 22.8175 37.2574C21.6815 36.2721 20.9428 34.911 20.738 33.4259H10.5988C10.114 33.4303 9.64606 33.2487 9.29235 32.9189C9.03723 32.6774 8.85271 32.3715 8.75843 32.034C8.66415 31.6964 8.66362 31.3398 8.7569 31.002C8.88371 30.5451 9.18293 30.1544 9.5922 29.9114C11.0896 28.9769 12.3258 27.6816 13.1861 26.1457C13.9635 24.5559 14.3356 22.8004 14.2699 21.0338C14.2699 20.365 14.2699 19.9859 14.2699 19.5982C14.1832 17.9123 14.2578 16.2221 14.4926 14.5502C14.9193 12.2644 15.9709 10.1395 17.5321 8.40894C19.0932 6.67833 21.1035 5.40881 23.3424 4.73967C23.6554 4.06525 24.168 3.50196 24.8117 3.12516C25.4629 2.75128 26.2016 2.55445 26.9535 2.55445C27.7054 2.55445 28.4441 2.75128 29.0953 3.12516C29.7479 3.50572 30.2669 4.07685 30.5817 4.76097ZM8.1829 2.32856C8.11321 2.4312 8.02276 2.51826 7.91732 2.58416C7.29923 2.97772 6.71341 3.41929 6.16534 3.90473C5.64185 4.3656 5.15891 4.8701 4.72178 5.41273C4.3085 5.93597 3.94295 6.49481 3.62947 7.08262C3.32938 7.65725 3.08552 8.25925 2.90126 8.8803C2.71775 9.50294 2.59721 10.1423 2.54144 10.7887C2.4773 11.4503 2.4773 12.1165 2.54144 12.7781C2.61141 13.4739 2.74183 14.1623 2.93125 14.8356C3.13173 15.5469 3.38663 16.2419 3.69372 16.9145C3.74678 17.0266 3.77595 17.1484 3.7794 17.2723C3.78394 17.3958 3.76355 17.5189 3.71943 17.6344C3.67824 17.7439 3.61727 17.8449 3.53952 17.9326C3.46518 18.0144 3.37667 18.0822 3.27822 18.1328C3.24852 18.1505 3.21691 18.1648 3.18398 18.1754C3.077 18.2207 2.96186 18.2439 2.84558 18.2436C2.72702 18.2478 2.60887 18.2275 2.49861 18.1839C2.38822 18.1436 2.28649 18.0829 2.19876 18.005C2.11396 17.9264 2.04301 17.8343 1.98886 17.7324L1.95888 17.6685C1.61269 16.9005 1.32627 16.1073 1.10217 15.2957C0.891241 14.5228 0.747921 13.7332 0.673809 12.9357C0.598883 12.1594 0.598883 11.3777 0.673809 10.6013C0.744464 9.84113 0.8879 9.0894 1.10217 8.35633C1.31661 7.62005 1.60357 6.90661 1.95888 6.22638C2.31502 5.53309 2.73519 4.87423 3.21396 4.2583C3.71746 3.6292 4.275 3.04481 4.88027 2.51174C5.50455 1.9587 6.17203 1.45586 6.87641 1.00799C6.98546 0.930889 7.10946 0.877211 7.24052 0.850376C7.35681 0.831228 7.47548 0.831228 7.59177 0.850376C7.71136 0.877181 7.82474 0.926331 7.92589 0.995213C8.0291 1.06452 8.11663 1.15447 8.1829 1.25933C8.2506 1.36401 8.29581 1.48149 8.31569 1.60438C8.33927 1.72537 8.33927 1.84974 8.31569 1.97073C8.28723 2.0899 8.23636 2.20264 8.16577 2.303L8.1829 2.32856ZM13.1476 6.53309C12.6981 6.80796 12.2687 7.11401 11.8625 7.44897C11.4974 7.75179 11.1592 8.0853 10.8516 8.44579C10.5694 8.78139 10.3212 9.14381 10.1105 9.5278C9.89211 9.89821 9.71815 10.2928 9.5922 10.7035C9.48156 11.1026 9.41548 11.5126 9.39515 11.9261C9.37432 12.3631 9.39584 12.801 9.45941 13.2339C9.52932 13.7085 9.64112 14.1761 9.79352 14.6312C9.95922 15.1347 10.164 15.6246 10.4061 16.0966C10.4602 16.2087 10.4922 16.3302 10.5003 16.4544C10.5099 16.5725 10.4953 16.6914 10.4575 16.8037C10.4201 16.9157 10.362 17.0197 10.2861 17.1104C10.209 17.2002 10.1161 17.2752 10.012 17.3319H9.982C9.87053 17.3853 9.74988 17.4171 9.62646 17.4257C9.50629 17.435 9.38545 17.4205 9.27093 17.3831C9.15833 17.3459 9.05373 17.2881 8.96251 17.2127C8.87003 17.1382 8.79416 17.0453 8.73977 16.94V16.9102C8.45133 16.34 8.20648 15.7491 8.00728 15.1424C7.82205 14.5875 7.68729 14.0172 7.60462 13.4384C7.52468 12.8841 7.50172 12.3232 7.53608 11.7643C7.56779 11.2219 7.65973 10.6847 7.81023 10.1625C7.95928 9.64077 8.16466 9.13659 8.42278 8.65878C8.68982 8.16361 9.00703 7.69686 9.36945 7.26579C9.74899 6.81297 10.1675 6.39391 10.6203 6.01338C11.1074 5.60981 11.6227 5.24111 12.1623 4.91006C12.2678 4.84402 12.386 4.8005 12.5093 4.78227C12.6307 4.75662 12.7563 4.75662 12.8777 4.78227C12.9927 4.80871 13.1017 4.85639 13.199 4.92284C13.2958 4.9886 13.3787 5.07253 13.4431 5.16992L13.4774 5.2253C13.5393 5.32852 13.58 5.44289 13.5973 5.56183C13.6411 5.80796 13.5874 6.06139 13.4474 6.26897C13.3801 6.36425 13.2959 6.44653 13.199 6.51179L13.169 6.53309H13.1476ZM45.9126 2.58416C45.8071 2.51826 45.7167 2.4312 45.647 2.32856C45.5764 2.2282 45.5255 2.11546 45.4971 1.99629C45.4735 1.8753 45.4735 1.75093 45.4971 1.62994C45.5169 1.50705 45.5621 1.38957 45.6298 1.28489C45.6961 1.18003 45.7837 1.09007 45.8869 1.02077C45.988 0.951891 46.1014 0.902741 46.221 0.875935C46.3373 0.856787 46.4559 0.856787 46.5722 0.875935C46.6957 0.898468 46.8136 0.944774 46.9192 1.01225C47.6251 1.45994 48.294 1.96277 48.9196 2.516C49.5351 3.04641 50.1027 3.62941 50.6159 4.2583C51.1044 4.86896 51.5346 5.52355 51.901 6.2136C52.2563 6.89384 52.5433 7.60727 52.7577 8.34355C52.972 9.07662 53.1154 9.82835 53.1861 10.5885C53.2588 11.365 53.2588 12.1465 53.1861 12.9229C53.1119 13.7204 52.9686 14.51 52.7577 15.2829C52.5336 16.0945 52.2472 16.8877 51.901 17.6557L51.871 17.7196C51.8169 17.8215 51.7459 17.9137 51.6611 17.9922C51.5734 18.0701 51.4716 18.1308 51.3613 18.1711C51.1408 18.2563 50.8963 18.2563 50.6759 18.1711L50.5817 18.1285C50.4832 18.0779 50.3947 18.0101 50.3204 17.9283C50.2426 17.8407 50.1816 17.7396 50.1404 17.6301C50.0963 17.5146 50.0759 17.3915 50.0805 17.268C50.0839 17.1442 50.1131 17.0223 50.1661 16.9102C50.4732 16.2376 50.7281 15.5426 50.9286 14.8314C51.118 14.158 51.2485 13.4696 51.3184 12.7738C51.3826 12.1123 51.3826 11.4461 51.3184 10.7845C51.2627 10.138 51.1421 9.49868 50.9586 8.87604C50.7744 8.25499 50.5305 7.65299 50.2304 7.07836C49.917 6.48956 49.5499 5.93059 49.1338 5.40847C48.6994 4.86487 48.2178 4.36026 47.6945 3.90047C47.1437 3.41466 46.555 2.97309 45.934 2.5799L45.9126 2.58416ZM40.6995 6.54161L40.6523 6.51179C40.5554 6.44653 40.4712 6.36425 40.4039 6.26897C40.2695 6.0717 40.213 5.83202 40.2454 5.59591C40.2627 5.47697 40.3034 5.3626 40.3653 5.25938L40.3996 5.204C40.464 5.10661 40.547 5.02267 40.6438 4.95692C40.74 4.89129 40.8474 4.84365 40.9608 4.81635C41.2065 4.75906 41.4651 4.80038 41.6804 4.93136C42.22 5.26241 42.7353 5.63111 43.2225 6.03468C43.6752 6.41521 44.0937 6.83427 44.4733 7.28709C44.8357 7.71816 45.1529 8.18491 45.42 8.68008C45.6781 9.15789 45.8835 9.66207 46.0325 10.1838C46.1809 10.7065 46.2728 11.2435 46.3067 11.7856C46.341 12.3445 46.3181 12.9054 46.2381 13.4597C46.1554 14.0385 46.0207 14.6088 45.8355 15.1637C45.6363 15.7704 45.3914 16.3613 45.103 16.9315V16.9613C45.0486 17.0666 44.9727 17.1595 44.8802 17.234C44.789 17.3094 44.6844 17.3672 44.5718 17.4044C44.4573 17.4418 44.3365 17.4563 44.2163 17.447C44.0929 17.4384 43.9722 17.4066 43.8607 17.3532H43.8307C43.7266 17.2965 43.6338 17.2215 43.5566 17.1317C43.4808 17.041 43.4226 16.937 43.3853 16.825C43.3474 16.7127 43.3328 16.5938 43.3424 16.4757C43.35 16.3528 43.382 16.2326 43.4367 16.1221C43.6781 15.6484 43.8829 15.1571 44.0492 14.6525C44.2016 14.1974 44.3134 13.7298 44.3833 13.2552C44.4469 12.8223 44.4684 12.3844 44.4476 11.9474C44.4237 11.5306 44.3533 11.1177 44.2377 10.7163C44.1238 10.3148 43.9643 9.92748 43.7622 9.56188C43.5468 9.17272 43.2928 8.80597 43.004 8.46708C42.6964 8.1066 42.3582 7.77309 41.9931 7.47027C41.5869 7.13531 41.1575 6.82926 40.708 6.55439L40.6995 6.54161ZM34.7025 9.6343C33.3164 8.14577 31.5339 7.0792 29.5622 6.55865C29.3966 6.51131 29.2459 6.42267 29.1245 6.30114C29.003 6.17961 28.9148 6.02924 28.8682 5.86428C28.7482 5.43721 28.4655 5.07351 28.0801 4.85043C27.7408 4.65849 27.3567 4.55859 26.9663 4.56075C26.5817 4.55622 26.2029 4.65482 25.8698 4.84617C25.4926 5.07054 25.2166 5.43045 25.0987 5.8515C25.0498 6.02204 24.9562 6.17659 24.8275 6.29934C24.6988 6.42209 24.5396 6.50864 24.3662 6.55013C22.3809 7.04493 20.5798 8.09513 19.1761 9.57639C17.7724 11.0576 16.825 12.9079 16.4459 14.9081C16.2383 16.4609 16.1752 18.0295 16.2574 19.594C16.2574 20.2074 16.2574 20.808 16.2574 21.0594C16.3235 23.1455 15.8719 25.2158 14.9424 27.0871C13.9796 28.8387 12.6001 30.329 10.9244 31.428H42.8884C41.3989 30.4459 40.1372 29.1592 39.1874 27.6537C38.2545 26.069 37.7156 24.2858 37.6153 22.4524C37.5339 21.4257 37.5553 20.3224 37.5725 19.1978C37.6423 17.7752 37.5806 16.3493 37.3883 14.9379C37.0214 12.9603 36.0923 11.1286 34.711 9.65986L34.7025 9.6343Z" fill="#1D4380"/>
</g>
<defs>
<clipPath id="clip0_75_2308">
<rect width="52.6365" height="37.9472" fill="white" transform="translate(0.59671 0.850376)"/>
</clipPath>
</defs>
</svg>
