<svg width="75" height="75" viewBox="0 0 75 75" fill="none" xmlns="http://www.w3.org/2000/svg">
<g clip-path="url(#clip0_75_2277)">
<path d="M67.2601 44.6825C66.4792 44.6825 65.8465 45.3153 65.8465 46.0962V57.3936H44.1495C43.3686 57.3936 42.7358 58.0264 42.7358 58.8073C42.7358 59.5882 43.3686 60.221 44.1495 60.221H51.0576C51.6574 62.7677 53.9474 64.6699 56.6746 64.6699C59.4019 64.6699 61.6918 62.7678 62.2918 60.221H67.26C68.0409 60.221 68.6736 59.5882 68.6736 58.8073V46.0962C68.6738 45.3153 68.0409 44.6825 67.2601 44.6825ZM56.6746 61.8424C55.5271 61.8424 54.5336 61.1811 54.0478 60.2208H59.3016C58.816 61.181 57.8223 61.8424 56.6746 61.8424Z" fill="#1D4380"/>
<path d="M27.7743 57.305H24.2886V35.8691V27.9283C24.2886 25.3661 26.3731 23.2818 28.9353 23.2818H37.2323C38.0133 23.2818 38.646 22.6491 38.646 21.8682C38.646 21.0873 38.0133 20.4545 37.2323 20.4545H28.9353C24.8141 20.4545 21.4613 23.8072 21.4613 27.9283V34.4555H13.2927C10.599 34.4555 8.14642 35.8241 6.73162 38.1161L1.07168 47.2863C1.06828 47.2919 1.06583 47.2982 1.06244 47.3038C1.03398 47.3513 1.00797 47.4003 0.984972 47.4512C0.983276 47.455 0.981203 47.4588 0.979506 47.4625C0.955191 47.5179 0.934834 47.5752 0.917682 47.6342C0.915043 47.6435 0.91297 47.6529 0.910519 47.6621C0.897702 47.7102 0.887335 47.759 0.879607 47.8088C0.877345 47.8227 0.875083 47.8367 0.873198 47.8506C0.866036 47.9091 0.860947 47.9681 0.860947 48.0286V48.0289V58.7189C0.860947 59.4998 1.49389 60.1326 2.27461 60.1326H7.25336C7.82053 62.7237 10.1322 64.6697 12.8909 64.6697C15.6496 64.6697 17.9612 62.7235 18.5284 60.1326H22.875H27.7743C28.5551 60.1326 29.188 59.4998 29.188 58.7189C29.188 57.938 28.5551 57.305 27.7743 57.305ZM3.68828 49.4422H13.7112C16.786 49.4422 19.2873 46.9408 19.2873 43.866V43.7821C19.2873 40.7073 16.7858 38.2058 13.7112 38.2058C12.9305 38.2058 12.2975 38.8386 12.2975 39.6195C12.2975 40.4004 12.9305 41.0332 13.7112 41.0332C15.227 41.0332 16.4599 42.2663 16.4599 43.7821V43.866C16.4599 45.3818 15.2268 46.6149 13.7112 46.6149H4.80866L9.1375 39.6012C10.0334 38.1495 11.5867 37.2828 13.2926 37.2828H21.4611V57.3052H18.4375C17.7445 54.895 15.5211 53.1259 12.8909 53.1259C10.2607 53.1259 8.03748 54.895 7.34421 57.3052H3.68828V49.4422ZM12.8909 61.8424C11.2672 61.8424 9.9463 60.5214 9.9463 58.8978C9.9463 57.2741 11.2672 55.9532 12.8909 55.9532C14.5145 55.9532 15.8355 57.2741 15.8355 58.8978C15.8355 60.5214 14.5145 61.8424 12.8909 61.8424Z" fill="#1D4380"/>
<path d="M35.6042 53.1259C32.4215 53.1259 29.8323 55.7151 29.8323 58.8978C29.8323 62.0804 32.4215 64.6697 35.6042 64.6697C38.7868 64.6697 41.3761 62.0804 41.3761 58.8978C41.3761 55.7151 38.7868 53.1259 35.6042 53.1259ZM35.6042 61.8424C33.9805 61.8424 32.6596 60.5214 32.6596 58.8978C32.6596 57.2741 33.9805 55.9532 35.6042 55.9532C37.2278 55.9532 38.5488 57.2741 38.5488 58.8978C38.5488 60.5214 37.2276 61.8424 35.6042 61.8424Z" fill="#1D4380"/>
<path d="M57.844 10.3624C48.7664 10.3624 41.381 17.7478 41.381 26.8256C41.381 35.9034 48.7664 43.2888 57.844 43.2888C66.9218 43.2888 74.3072 35.9034 74.3072 26.8256C74.3072 17.7478 66.922 10.3624 57.844 10.3624ZM57.844 40.4613C50.3252 40.4613 44.2083 34.3443 44.2083 26.8254C44.2083 19.3066 50.3252 13.1896 57.844 13.1896C65.3628 13.1896 71.4799 19.3066 71.4799 26.8254C71.4799 34.3443 65.3628 40.4613 57.844 40.4613Z" fill="#1D4380"/>
<path d="M59.2577 26.24V17.3516C59.2577 16.5707 58.6249 15.9379 57.844 15.9379C57.0631 15.9379 56.4303 16.5707 56.4303 17.3516V26.8256C56.4303 27.2005 56.5792 27.56 56.8442 27.8254L60.886 31.8671C61.1622 32.1431 61.5241 32.2811 61.8858 32.2811C62.2475 32.2811 62.6094 32.1431 62.8855 31.8671C63.4376 31.3149 63.4376 30.4199 62.8855 29.8678L59.2577 26.24Z" fill="#1D4380"/>
</g>
<defs>
<clipPath id="clip0_75_2277">
<rect width="73.4462" height="73.4463" fill="white" transform="translate(0.860947 0.792847)"/>
</clipPath>
</defs>
</svg>
