<svg width="16" height="16" viewBox="0 0 16 16" fill="none" xmlns="http://www.w3.org/2000/svg">
<mask id="mask0_724_2394" style="mask-type:alpha" maskUnits="userSpaceOnUse" x="0" y="0" width="16" height="16">
<rect width="16" height="16" fill="#D9D9D9"/>
</mask>
<g mask="url(#mask0_724_2394)">
<path d="M11.3335 13.3336V11.3336H9.3335V10.0003H11.3335V8.00026H12.6668V10.0003H14.6668V11.3336H12.6668V13.3336H11.3335ZM7.3335 11.3336H4.66683C3.74461 11.3336 2.9585 11.0086 2.3085 10.3586C1.6585 9.7086 1.3335 8.92249 1.3335 8.00026C1.3335 7.07804 1.6585 6.29193 2.3085 5.64193C2.9585 4.99193 3.74461 4.66693 4.66683 4.66693H7.3335V6.00026H4.66683C4.11127 6.00026 3.63905 6.19471 3.25016 6.5836C2.86127 6.97249 2.66683 7.44471 2.66683 8.00026C2.66683 8.55582 2.86127 9.02804 3.25016 9.41693C3.63905 9.80582 4.11127 10.0003 4.66683 10.0003H7.3335V11.3336ZM5.3335 8.66693V7.3336H10.6668V8.66693H5.3335ZM14.6668 8.00026H13.3335C13.3335 7.44471 13.1391 6.97249 12.7502 6.5836C12.3613 6.19471 11.8891 6.00026 11.3335 6.00026H8.66683V4.66693H11.3335C12.2557 4.66693 13.0418 4.99193 13.6918 5.64193C14.3418 6.29193 14.6668 7.07804 14.6668 8.00026Z" fill="#999999"/>
</g>
</svg>
