<svg width="48" height="52" viewBox="0 0 48 52" fill="none" xmlns="http://www.w3.org/2000/svg">
<path d="M19.8903 9.84532C22.6525 9.84532 25.1538 10.9671 26.9629 12.7751C28.7709 14.5832 29.8917 17.0856 29.8917 19.8468C29.8917 22.609 28.7709 25.1103 26.9629 26.9194C25.1538 28.7274 22.6525 29.8482 19.8903 29.8482C17.1291 29.8482 14.6267 28.7274 12.8186 26.9194C11.0106 25.1103 9.88883 22.609 9.88883 19.8468C9.88883 17.0856 11.0106 14.5832 12.8186 12.7751C14.6267 10.9671 17.1291 9.84532 19.8903 9.84532ZM33.5971 34.0396H35.2901C35.5986 34.0396 35.8525 34.2935 35.8525 34.6019V39.9726H40.1669C40.4773 39.9726 40.7332 40.2265 40.7332 40.5369V42.231C40.7332 42.5414 40.4773 42.7953 40.1669 42.7953H33.0308V34.6019C33.0308 34.2935 33.2847 34.0396 33.5971 34.0396ZM35.3804 27.4034C38.692 27.4034 41.6943 28.7473 43.8653 30.9184L43.9258 30.9828C46.0612 33.1489 47.3813 36.1254 47.3813 39.4043C47.3813 42.7169 46.0374 45.7202 43.8653 47.8922L43.8009 47.9527C41.6357 50.0871 38.6593 51.4082 35.3804 51.4082C32.0677 51.4082 29.0675 50.0623 26.8964 47.8922C24.7204 45.7202 23.3765 42.7169 23.3765 39.4043C23.3765 36.0946 24.7224 33.0944 26.8925 30.9223C29.0635 28.7473 32.0677 27.4034 35.3804 27.4034ZM42.2288 32.5558C40.4773 30.8033 38.0533 29.7192 35.3804 29.7192C32.7065 29.7192 30.2805 30.8033 28.5289 32.5558C26.7784 34.3054 25.6934 36.7314 25.6934 39.4043C25.6934 42.0782 26.7764 44.5042 28.5289 46.2557C30.2785 48.0053 32.7045 49.0913 35.3804 49.0913C38.0285 49.0913 40.4327 48.0271 42.1802 46.3083L42.2288 46.2557C43.9814 44.5042 45.0654 42.0782 45.0654 39.4043C45.0654 36.7562 44.0002 34.352 42.2814 32.6044L42.2288 32.5558ZM20.4566 48.7749C21.2064 48.2989 21.9354 47.7911 22.6406 47.2594C23.0393 47.9068 23.4873 48.5226 23.9805 49.1012C23.0621 49.7886 22.1089 50.4392 21.1191 51.0422C20.7521 51.314 20.2384 51.3477 19.8298 51.0898C15.3795 48.2612 11.6394 44.8493 8.6937 41.1529C4.63917 36.0629 2.08129 30.4185 1.20651 24.9853C0.317843 19.4758 1.15097 14.1716 3.89134 9.85921C4.97143 8.15825 6.35401 6.60805 8.04307 5.26216C11.9101 2.1806 16.3376 0.54907 20.7303 0.586759C24.9644 0.621473 29.1578 2.20143 32.7789 5.50615C34.0484 6.66657 35.1185 7.9827 35.9894 9.41984C38.6236 13.7689 39.4131 19.1991 38.6216 24.7919C37.8877 24.6303 37.1379 24.5222 36.3682 24.4716C37.0893 19.3806 36.394 14.4781 34.0444 10.5991C33.2906 9.35735 32.3583 8.21082 31.2435 7.19322C28.0559 4.28523 24.3921 2.89272 20.7105 2.86396C16.8454 2.83222 12.9218 4.28919 9.46136 7.04742C7.98455 8.22272 6.77256 9.58448 5.82141 11.0821C3.38949 14.9095 2.65554 19.6613 3.45594 24.6303C4.26823 29.6766 6.66842 34.9521 10.479 39.7346C13.135 43.0661 16.4804 46.1605 20.4566 48.7749ZM25.3492 14.3888C23.9547 12.9943 22.0217 12.1265 19.8903 12.1265C17.7599 12.1265 15.8268 12.9943 14.4323 14.3888C13.0378 15.7833 12.17 17.7163 12.17 19.8468C12.17 21.9782 13.0378 23.9112 14.4323 25.3057C15.8268 26.7002 17.7599 27.567 19.8903 27.567C22.0217 27.567 23.9547 26.7002 25.3492 25.3057C26.7437 23.9112 27.6105 21.9782 27.6105 19.8468C27.6105 17.7163 26.7437 15.7833 25.3492 14.3888Z" fill="#1D4380"/>
</svg>
