<svg width="62" height="56" viewBox="0 0 62 56" fill="none" xmlns="http://www.w3.org/2000/svg">
<path fill-rule="evenodd" clip-rule="evenodd" d="M30.3552 11.3487C31.0525 11.3487 31.7398 11.3888 32.4172 11.4691V5.55028C32.0935 5.4299 31.8096 5.23929 31.5705 4.99853C31.1322 4.55713 30.8632 3.95522 30.8632 3.28309C30.8632 2.61598 31.1322 2.00905 31.5705 1.56765C32.0088 1.12625 32.6065 0.855392 33.274 0.855392C33.9364 0.855392 34.5391 1.12625 34.9774 1.56765C35.4157 2.00905 35.6847 2.61096 35.6847 3.28309C35.6847 3.95021 35.4157 4.55713 34.9774 4.99853C34.7433 5.23428 34.4494 5.4299 34.1307 5.55028V11.755C35.7345 12.1061 37.2537 12.6779 38.6583 13.4353V11.148C38.6583 10.6715 39.0418 10.2853 39.515 10.2853H45.512C45.6315 9.97933 45.8158 9.70345 46.045 9.47272C46.4833 9.03132 47.081 8.76046 47.7484 8.76046C48.4109 8.76046 49.0136 9.03132 49.4519 9.47272C49.8902 9.91412 50.1592 10.516 50.1592 11.1882C50.1592 11.8553 49.8902 12.4622 49.4519 12.9036C49.0136 13.345 48.4159 13.6159 47.7484 13.6159C47.081 13.6159 46.4783 13.345 46.0499 12.9036C45.8009 12.6528 45.6066 12.3468 45.4871 12.0058H40.3817V14.4936C43.948 16.9815 46.558 20.7585 47.5442 25.1575H58.4225V16.3144C58.1585 16.194 57.9144 16.0235 57.7152 15.8178C57.2769 15.3764 57.0079 14.7745 57.0079 14.1024C57.0079 13.4353 57.2769 12.8284 57.7152 12.387C58.1535 11.9456 58.7512 11.6747 59.4187 11.6747C60.0811 11.6747 60.6838 11.9456 61.1221 12.387C61.5604 12.8284 61.8294 13.4303 61.8294 14.1024C61.8294 14.7695 61.5604 15.3764 61.1221 15.8178C60.8482 16.0937 60.5095 16.2994 60.1359 16.4198V26.0252C60.1359 26.5017 59.7524 26.8879 59.2792 26.8879H47.848C47.9377 27.6102 47.9825 28.3476 47.9825 29.1C47.9825 30.1031 47.8979 31.0863 47.7385 32.0443H57.1573C57.2769 31.7183 57.4661 31.4324 57.7052 31.1916C58.1436 30.7502 58.7413 30.4793 59.4087 30.4793C60.0712 30.4793 60.6738 30.7502 61.1122 31.1916C61.5505 31.633 61.8195 32.2349 61.8195 32.907C61.8195 33.5742 61.5505 34.1811 61.1122 34.6225C60.6738 35.0639 60.0761 35.3347 59.4087 35.3347C58.7462 35.3347 58.1436 35.0639 57.7052 34.6225C57.4711 34.3867 57.2769 34.0958 57.1573 33.7698H47.3649C46.2591 37.8527 43.7488 41.3488 40.3817 43.6963V44.7747H45.4871C45.6066 44.4336 45.8009 44.1276 46.0499 43.8768C46.4783 43.4354 47.086 43.1646 47.7484 43.1646C48.4159 43.1646 49.0136 43.4354 49.4519 43.8768C49.8902 44.3182 50.1592 44.9251 50.1592 45.5923C50.1592 46.2644 49.8902 46.8663 49.4519 47.3077C49.0136 47.7491 48.4109 48.02 47.7484 48.02C47.081 48.02 46.4833 47.7491 46.045 47.3077C45.8208 47.082 45.6365 46.8061 45.512 46.4951H39.52C39.0468 46.4951 38.6633 46.1089 38.6633 45.6324V44.7546C37.2587 45.512 35.7345 46.0838 34.1357 46.4349V51.2301C34.4594 51.3505 34.7483 51.5461 34.9824 51.7819C35.4207 52.2233 35.6897 52.8302 35.6897 53.4973C35.6897 54.1695 35.4207 54.7714 34.9824 55.2128C34.5441 55.6542 33.9414 55.925 33.2789 55.925C32.6115 55.925 32.0138 55.6542 31.5755 55.2128C31.1372 54.7714 30.8682 54.1644 30.8682 53.4973C30.8682 52.8252 31.1372 52.2233 31.5755 51.7819C31.8146 51.5411 32.0985 51.3505 32.4222 51.2301V46.7259C31.7448 46.8061 31.0575 46.8462 30.3601 46.8462C29.3191 46.8462 28.298 46.756 27.3068 46.5804V53.3669C27.3068 53.8434 26.9233 54.2297 26.4501 54.2297H16.9067C16.7872 54.6109 16.583 54.9519 16.309 55.2228C15.8707 55.6642 15.268 55.9351 14.6056 55.9351C13.9381 55.9351 13.3404 55.6642 12.9021 55.2228C12.4638 54.7814 12.1948 54.1745 12.1948 53.5074C12.1948 52.8352 12.4638 52.2333 12.9021 51.7919C13.3404 51.3505 13.9431 51.0797 14.6056 51.0797C15.273 51.0797 15.8707 51.3505 16.309 51.7919C16.5133 51.9976 16.6776 52.2383 16.8021 52.5042H25.5884V46.1892C23.9497 45.7277 22.4056 45.0305 20.9961 44.1377C20.8416 44.2781 20.6424 44.3634 20.4183 44.3634H15.2083C15.0887 44.6794 14.8994 44.9603 14.6653 45.191C14.227 45.6324 13.6243 45.9033 12.9619 45.9033C12.2994 45.9033 11.6967 45.6324 11.2584 45.191C10.8201 44.7546 10.5511 44.1477 10.5511 43.4756C10.5511 42.8034 10.8201 42.2015 11.2584 41.7601C11.6967 41.3187 12.2994 41.0479 12.9619 41.0479C13.6243 41.0479 14.227 41.3187 14.6653 41.7601C14.9094 42.0059 15.1037 42.3068 15.2232 42.6379H18.9639C15.7163 39.8641 13.4799 35.9316 12.8872 31.4675H4.03114V40.3155C4.29512 40.4359 4.53919 40.6065 4.73842 40.8121C5.17674 41.2535 5.44571 41.8554 5.44571 42.5275C5.44571 43.1947 5.17674 43.8016 4.73842 44.243C4.30011 44.6844 3.7024 44.9552 3.03496 44.9552C2.3725 44.9552 1.76981 44.6844 1.33149 44.243C0.893175 43.8066 0.624207 43.1997 0.624207 42.5275C0.624207 41.8604 0.893175 41.2535 1.33149 40.8121C1.60544 40.5362 1.94414 40.3306 2.31771 40.2102V30.6098C2.31771 30.1332 2.70124 29.747 3.17442 29.747H12.7377C12.7278 29.5313 12.7278 29.3156 12.7278 29.1C12.7278 27.54 12.927 26.0302 13.3006 24.5907H5.2913C5.17176 24.9167 4.98249 25.2026 4.7434 25.4434C4.30509 25.8848 3.70738 26.1556 3.03994 26.1556C2.37748 26.1556 1.77479 25.8848 1.33647 25.4434C0.898156 25.002 0.629187 24.4001 0.629187 23.7279C0.629187 23.0608 0.898156 22.4539 1.33647 22.0125C1.77479 21.5711 2.3725 21.3002 3.03994 21.3002C3.7024 21.3002 4.30509 21.5711 4.7434 22.0125C4.97751 22.2482 5.17176 22.5392 5.2913 22.8652H13.8435C14.9991 19.7603 16.9964 17.0718 19.5516 15.0755V14.1526H15.2182C15.0987 14.4836 14.9044 14.7846 14.6604 15.0303C14.222 15.4717 13.6194 15.7426 12.9569 15.7426C12.2944 15.7426 11.6917 15.4717 11.2534 15.0303C10.8151 14.5889 10.5461 13.987 10.5461 13.3149C10.5461 12.6428 10.8151 12.0358 11.2534 11.5995C11.6917 11.1581 12.2944 10.8872 12.9569 10.8872C13.6194 10.8872 14.222 11.1581 14.6604 11.5995C14.8945 11.8352 15.0788 12.1161 15.2033 12.4271H20.4133C20.8865 12.4271 21.27 12.8133 21.27 13.2898V13.8917C22.6049 13.0842 24.0543 12.4472 25.5835 12.0108V4.28126H16.8021C16.6826 4.5471 16.5133 4.79288 16.309 4.99352C15.8707 5.43492 15.273 5.70577 14.6056 5.70577C13.9431 5.70577 13.3404 5.43492 12.9021 4.99352C12.4638 4.55212 12.1948 3.95021 12.1948 3.27807C12.1948 2.61096 12.4638 2.00403 12.9021 1.56263C13.3404 1.12124 13.9381 0.850376 14.6056 0.850376C15.268 0.850376 15.8707 1.12124 16.309 1.56263C16.583 1.83851 16.7872 2.17959 16.9067 2.55578H26.4452C26.9183 2.55578 27.3019 2.94201 27.3019 3.41852V11.6145C28.2931 11.439 29.3141 11.3487 30.3552 11.3487ZM23.2624 27.3243H24.672V27.1538V24.3298C24.672 22.7147 25.3294 21.2501 26.3854 20.1867C27.4413 19.1233 28.9007 18.4612 30.5046 18.4612C32.1084 18.4612 33.5628 19.1233 34.6188 20.1867C35.6747 21.2501 36.3322 22.7197 36.3322 24.3298V27.1538V27.3243H37.4529C37.702 27.3243 37.9062 27.53 37.9062 27.7808V37.4414C37.9062 37.6922 37.702 37.8979 37.4529 37.8979H23.2624C23.0133 37.8979 22.8091 37.6922 22.8091 37.4414V27.7808C22.8091 27.53 23.0133 27.3243 23.2624 27.3243ZM26.9333 27.3243H34.0609V27.1538V24.2997C34.0609 23.3116 33.6575 22.4138 33.0149 21.7617C32.3674 21.1096 31.4759 20.7084 30.4996 20.7084C29.5184 20.7084 28.6268 21.1146 27.9793 21.7617C27.3317 22.4138 26.9333 23.3116 26.9333 24.2997V27.1538V27.3243ZM30.5295 32.6111L31.2467 35.9567L29.2743 35.9617L29.8521 32.571C29.3141 32.3954 28.9207 31.8888 28.9207 31.2869C28.9207 30.5445 29.5184 29.9426 30.2555 29.9426C30.9927 29.9426 31.5904 30.5445 31.5904 31.2869C31.6004 31.944 31.1372 32.4857 30.5295 32.6111Z" fill="#1D4380"/>
</svg>
