<svg width="45" height="56" viewBox="0 0 45 56" fill="none" xmlns="http://www.w3.org/2000/svg">
<g clip-path="url(#clip0_75_2313)">
<path d="M42.4647 34.5759C42.4723 34.9526 42.214 35.2734 41.859 35.3584C41.401 35.5091 40.8985 35.734 40.4209 35.7459C40.0497 35.7534 39.7327 35.5069 39.6372 35.169L38.8524 32.9572C38.7265 32.6009 38.6028 32.2522 38.4812 31.896L36.9888 34.6932C36.8249 34.9968 36.1932 35.3336 35.9294 35.508C35.5626 35.7491 35.0687 35.6511 34.8256 35.2884C34.7637 35.1959 34.7235 35.0958 34.7062 34.9946L33.8248 30.6313L32.6168 29.8187L29.812 29.3839C29.9108 29.5313 30.0118 29.6788 30.1105 29.823C30.625 30.5743 31.1048 31.276 31.2752 32.0057C31.5487 33.1789 31.1254 34.1734 29.1619 34.9193C29.2205 34.9526 29.278 34.9881 29.3334 35.029C30.117 35.5973 30.3211 36.4562 28.6876 38.6701C28.274 39.2287 27.9191 39.7217 27.6217 40.1511C27.3883 40.4891 27.1702 40.813 26.9704 41.1252L27.4068 43.846C27.4654 44.2131 27.384 44.5715 27.1528 44.9213C26.7848 45.4723 26.2497 45.6887 25.796 46.131C25.7342 46.1924 25.6766 46.2537 25.6256 46.3129L25.8156 47.0889C25.8872 47.3784 25.7863 47.669 25.58 47.8563C25.4476 47.9747 25.2501 48.049 25.0894 48.1221C25.0373 48.3471 24.9581 48.5677 24.8561 48.7862C24.5076 49.5278 23.8488 50.2737 23.1042 50.6374C22.276 51.0432 21.3285 50.9582 20.4211 50.9776C19.9815 50.9862 19.6168 50.6407 19.6081 50.2048C19.6005 49.8474 19.5484 49.4707 19.4529 49.0704C19.226 48.1146 18.7723 47.2568 18.5129 46.3043C18.2839 45.4637 18.1569 44.3261 18.6594 43.5608C18.7332 43.4532 18.7365 42.8838 18.7343 42.7493C18.7224 42.2467 18.4945 41.7451 18.2383 41.3211C18.006 40.9379 17.5371 40.1909 17.5284 39.7507C17.5002 38.4613 17.0487 38.188 16.43 38.2009C15.4813 38.2203 14.5305 38.5044 13.5504 38.5248C13.1325 38.5335 12.7168 38.3526 12.3065 37.9856C11.6889 37.4324 11.0735 36.4132 10.6741 35.6759C10.3224 35.029 10.3495 34.8859 10.3343 34.1712C10.2659 31.981 10.203 29.9102 12.3011 28.3388C13.1575 27.0752 13.9357 26.2508 14.8822 25.717C15.8667 25.1594 16.9716 24.9496 18.4706 24.9183C18.9102 24.9087 19.2738 25.2552 19.2835 25.6911L19.3074 26.8105L20.2713 27.2044L20.2843 27.1398C20.4591 26.2293 21.45 26.5263 22.0296 26.7222C22.7276 26.9558 23.1129 27.3529 23.9432 27.1743C24.258 27.1054 24.1885 27.0203 24.2211 26.7028L23.2768 26.8072C23.0391 26.832 22.8144 26.7502 22.6516 26.6006C22.5105 26.4704 22.4551 26.3068 22.3466 26.1539C21.9906 25.6524 21.3871 25.3629 20.6533 25.0109C19.7535 24.5793 18.6953 24.0713 17.5458 23.0305C13.7686 24.4491 12.5572 24.659 12.2338 23.8227C12.0438 23.334 12.2935 22.9337 12.6289 22.3944C12.9306 21.908 13.3615 21.217 13.3474 20.5766C13.3439 20.4133 13.3914 20.253 13.4836 20.1177C13.5757 19.9824 13.7079 19.8787 13.8619 19.821L17.0335 18.3024C16.278 18.3024 15.9871 17.0087 15.8667 16.4813C15.6973 15.7408 16.6286 15.4125 17.1236 15.066C17.4601 14.8292 17.8627 14.5257 18.3306 14.1554L18.3599 14.1317C15.4336 14.6473 12.6625 15.8237 10.2323 17.5156C5.91235 20.5238 2.85149 25.2703 1.92455 30.4268C1.68684 31.7485 1.58264 33.1111 1.61303 34.5135C1.64234 35.9148 1.80515 37.271 2.09821 38.5819C2.11449 38.6529 2.13078 38.724 2.14814 38.795L5.86785 40.4643C6.21193 40.6182 6.33241 40.9153 6.33892 41.2565C6.37365 42.2391 6.11967 42.9872 5.85917 43.7546C5.65728 44.3476 5.45105 44.9546 5.43043 45.6639C5.42934 45.7392 5.4174 45.8114 5.3957 45.8792C6.87945 47.9553 8.78653 49.7603 10.9476 51.1325C13.1976 52.5619 15.7288 53.5747 18.3609 54.0396C21.0397 54.5132 23.9302 54.4518 26.5862 53.8663C29.1966 53.2916 31.6822 52.1733 33.8693 50.6504C35.9946 49.1705 37.8408 47.2611 39.2421 45.0924C40.6825 42.8645 41.706 40.3481 42.1738 37.7413C42.4093 36.425 42.5135 35.0689 42.4842 33.674C42.4701 33.97 42.4582 34.2778 42.4647 34.5759ZM32.2249 6.20376C34.5596 6.20376 36.4504 8.07974 36.4504 10.3948C36.4504 12.7089 34.5596 14.5838 32.2249 14.5838C29.8913 14.5838 27.9994 12.7089 27.9994 10.3948C27.9994 8.07974 29.8913 6.20376 32.2249 6.20376ZM37.1104 21.9564C36.0412 23.1177 34.793 24.1639 33.3874 25.0238C33.1372 25.2071 32.837 25.3111 32.5261 25.3223C32.2152 25.3334 31.9082 25.2511 31.6453 25.0862C29.5613 23.7721 27.8062 22.1835 26.4234 20.4614C24.5022 18.072 23.2898 15.4061 22.8708 12.8294C22.4334 10.1462 22.8524 7.55128 24.2146 5.42452C24.7573 4.57855 25.4509 3.80793 26.2975 3.13847C28.2078 1.62951 30.4101 0.833054 32.6092 0.850274C34.7496 0.867495 36.8596 1.65211 38.6723 3.29131C39.3072 3.86712 39.8478 4.52797 40.2895 5.25124C41.744 7.62985 42.0696 10.6359 41.4412 13.6549C40.8333 16.5781 39.3311 19.5423 37.1104 21.9564ZM32.4713 23.7968C39.8749 19.3453 42.7317 9.0301 37.6357 4.42034C34.5293 1.60906 30.459 1.80172 27.2548 4.33316C21.6378 8.77072 24.156 18.5585 32.4713 23.7968ZM40.1528 21.598C41.7592 23.9034 42.939 26.508 43.5545 29.244C43.8703 30.6571 44.0451 32.1166 44.0776 33.6202C44.1102 35.1248 43.9973 36.5907 43.7411 38.0158C43.2353 40.8313 42.1337 43.535 40.5793 45.9405C39.0641 48.2857 37.0789 50.3393 34.78 51.9398C32.4236 53.5811 29.7426 54.7876 26.9292 55.4087C24.067 56.0394 20.9703 56.105 18.0831 55.5949C15.2426 55.0922 12.5171 54.0009 10.0912 52.4585C7.72499 50.955 5.65511 48.9886 4.0411 46.7079C2.38693 44.3713 1.16801 41.7128 0.543902 38.9231C0.226962 37.5099 0.0522102 36.0504 0.0207332 34.5458C-0.0118291 33.0411 0.0999684 31.5752 0.357211 30.1502C1.35688 24.5868 4.65436 19.4734 9.31729 16.2273C12.694 13.8767 16.5168 12.5313 20.6457 12.2784C20.6664 12.442 20.6902 12.6066 20.7174 12.7702C20.8075 13.3267 20.929 13.8874 21.0788 14.4482C20.7358 14.4546 20.7206 14.4557 20.3983 14.6354C20.1106 14.7958 19.7503 15.0466 19.3183 15.3888C18.8548 15.7537 18.4282 16.0744 18.0375 16.3489C17.8096 16.5093 17.6012 16.6481 17.4112 16.7676C17.7075 16.83 17.9528 16.9807 18.158 17.8697C18.2893 18.4326 18.565 19.3162 17.8834 19.6424L14.9028 21.0684C14.7747 21.937 14.3145 22.6775 13.9748 23.2243C13.9683 23.235 13.9596 23.2436 13.9509 23.2512C14.3276 23.0155 15.2295 22.233 17.3982 21.4021C17.5462 21.335 17.7114 21.3146 17.8715 21.3434C18.0316 21.3723 18.1789 21.4491 18.2937 21.5635C19.3888 22.6527 20.4525 23.1629 21.3415 23.5902C22.2728 24.0369 23.0445 24.4071 23.6067 25.1885L24.8897 25.0475C25.1437 25.0001 25.3955 25.0647 25.5876 25.2402C25.6667 25.312 25.7303 25.3991 25.7745 25.496C25.8187 25.593 25.8427 25.6978 25.8449 25.8041C25.8568 26.3627 25.8405 27.4024 25.5279 27.9083C25.2533 28.3506 24.7996 28.6036 24.284 28.7155C23.1899 28.9566 22.6331 28.6682 21.6812 28.2753C21.6432 28.4766 21.6248 28.624 21.4858 28.7952C21.3783 28.9275 21.2304 29.0218 21.0644 29.0641C20.8983 29.1064 20.7229 29.0944 20.5643 29.0298L18.273 28.0923C17.9604 27.9912 17.7303 27.7027 17.7227 27.3572L17.7054 26.5382C16.8696 26.6092 16.2194 26.7739 15.6615 27.0892C14.9343 27.5004 14.3004 28.1957 13.5634 29.2967C13.5081 29.3882 13.4343 29.47 13.342 29.5346C11.8094 30.6259 11.8615 32.3265 11.9169 34.1282C11.9277 34.492 11.9353 34.6362 11.9375 34.746C11.9386 34.7826 11.9798 34.7707 12.0677 34.9311C12.3706 35.4919 12.9035 36.4002 13.3681 36.8168C13.4647 36.9029 13.5135 36.9459 13.5146 36.9459C14.4828 36.9255 15.4314 36.6435 16.3942 36.622C17.9387 36.5907 19.0621 37.1353 19.1175 39.7185C19.1175 39.7217 19.5842 40.4902 19.6005 40.516C20.1986 41.5083 20.4558 42.4802 20.2702 43.6319C20.1009 44.6694 19.6895 44.593 20.0455 45.8964C20.3093 46.8607 20.7619 47.7175 20.9996 48.712C21.0539 48.9412 21.0973 49.1651 21.1298 49.3825C21.5455 49.3739 22.0231 49.4126 22.4009 49.2275C22.9609 48.952 23.5232 48.1717 23.5774 47.5474C23.5948 47.1836 23.8054 46.9759 24.1191 46.8306C24.029 46.4668 23.8716 46.0944 24.0898 45.7403C24.4338 45.1796 24.9375 44.7307 25.478 44.3627C25.6397 44.2518 25.7504 44.156 25.8112 44.0753C25.834 44.0376 25.834 44.0721 25.8253 44.0161L25.3597 41.1219C25.3174 40.9271 25.3467 40.7173 25.4617 40.5354C25.6842 40.1823 25.9675 39.7561 26.3127 39.2589C26.6481 38.7767 27.0117 38.2698 27.4024 37.7402C28.261 36.5768 28.4216 36.3206 28.3956 36.3012C28.3402 36.2603 28.2067 36.2097 28.0667 36.157C27.6401 35.9945 27.181 35.8169 26.8576 35.3756C26.4939 34.8741 26.3539 34.0496 27.1756 33.8613C29.3247 33.3683 29.8479 32.8818 29.7252 32.3588C29.6221 31.9142 29.2227 31.332 28.7961 30.7088C28.3717 30.0867 27.9223 29.4302 27.6152 28.709C27.5403 28.5627 27.5133 28.3967 27.5381 28.2344C27.6043 27.8039 28.0103 27.5079 28.4444 27.5736L32.7503 28.2419C32.9619 28.2753 33.166 28.2914 33.3505 28.4152L34.9243 29.4711C35.0265 29.5268 35.1151 29.6041 35.1839 29.6974C35.2528 29.7908 35.3001 29.8979 35.3227 30.0114L35.9718 33.2306L37.9114 29.5959C38.2001 28.9448 39.1585 28.9727 39.3941 29.6583C39.8858 31.0909 40.3753 32.5041 40.8811 33.9301C40.8985 33.4953 40.931 32.9292 40.9929 32.3631C41.0548 31.7862 41.147 31.2104 41.2805 30.768C41.3782 30.443 41.5085 30.1653 41.6767 29.9575C41.5432 29.2095 41.3652 28.4744 41.1427 27.7522C40.8767 26.8815 40.5446 26.0345 40.1484 25.21C39.8045 24.4945 39.4189 23.7995 38.9936 23.1285C39.4038 22.6334 39.7913 22.1221 40.1528 21.598ZM4.25384 43.5554C4.2864 43.4543 4.32005 43.3542 4.35479 43.2541C4.52954 42.7418 4.69995 42.2391 4.74336 41.6848L3.05446 40.9282C3.37683 41.8108 3.79363 42.731 4.25384 43.5554Z" fill="#1D4380"/>
</g>
<defs>
<clipPath id="clip0_75_2313">
<rect width="44.0677" height="55.0847" fill="white" transform="translate(0.0153351 0.850376)"/>
</clipPath>
</defs>
</svg>
