<svg width="54" height="60" viewBox="0 0 54 60" fill="none" xmlns="http://www.w3.org/2000/svg">
<path fill-rule="evenodd" clip-rule="evenodd" d="M49.2599 18.2874C48.3242 19.3096 47.2349 20.2219 46.0113 20.9623C45.8625 21.0722 45.6562 21.0865 45.4882 20.9766C43.6839 19.835 42.1627 18.4594 40.9727 16.9643C39.3267 14.9103 38.2902 12.6319 37.9351 10.4394C37.5752 8.21348 37.9111 6.07355 39.0244 4.33008C39.4659 3.64702 40.0273 3.01651 40.7087 2.47675C42.2779 1.23483 44.0678 0.575651 45.8577 0.589981C47.5756 0.604311 49.2743 1.2396 50.7427 2.57228C51.261 3.04039 51.6929 3.5706 52.048 4.15335C53.2428 6.11654 53.502 8.61472 52.9741 11.1511C52.4559 13.6588 51.1698 16.2048 49.2599 18.2874ZM12.056 44.5636C11.1202 45.5858 10.0309 46.4982 8.80727 47.2386C8.65851 47.3484 8.45216 47.3628 8.28421 47.2529C6.47992 46.1065 4.95874 44.7356 3.76867 43.2405C2.12753 41.1913 1.09102 38.9129 0.735923 36.7156C0.376024 34.4897 0.71193 32.3498 1.82522 30.6111C2.2619 29.9233 2.82334 29.2975 3.50955 28.7578C5.07871 27.5159 6.86861 26.8567 8.65371 26.871C10.3716 26.8853 12.0704 27.5206 13.5387 28.8533C14.057 29.3214 14.4889 29.8516 14.844 30.4344C16.0388 32.3976 16.298 34.8957 15.7701 37.4321C15.2519 39.9351 13.9658 42.481 12.056 44.5636ZM8.78807 49.8084C10.9523 49.8084 12.7806 51.2509 13.3564 53.2189H42.1339C43.5543 53.2189 44.85 52.6409 45.7905 51.7047C46.7311 50.7685 47.3117 49.4836 47.3117 48.0649C47.3117 46.651 46.7311 45.3613 45.7905 44.4251C44.85 43.4889 43.5591 42.9109 42.1339 42.9109H32.0664C29.8062 42.9109 27.7524 41.9938 26.2648 40.5131C24.7772 39.0323 23.8559 36.9879 23.8559 34.7381C23.8559 32.4883 24.7772 30.4439 26.2648 28.9632C27.7524 27.4824 29.8062 26.5653 32.0664 26.5653H41.1694C41.7932 24.6738 43.5831 23.3076 45.6897 23.3076C48.3194 23.3076 50.45 25.4285 50.45 28.0461C50.45 30.6637 48.3194 32.7845 45.6897 32.7845C43.6023 32.7845 41.8316 31.447 41.1886 29.5889H32.0664C30.646 29.5889 29.3503 30.1669 28.4098 31.1031C27.4692 32.0393 26.8886 33.3242 26.8886 34.7429C26.8886 36.1568 27.4692 37.4465 28.4098 38.3827C29.3407 39.3094 30.622 39.8873 32.0328 39.8969H42.1387C44.3989 39.8969 46.4527 40.814 47.9403 42.2948C49.4279 43.7755 50.3492 45.8199 50.3492 48.0697C50.3492 50.3195 49.4279 52.3639 47.9403 53.8446C46.4527 55.3254 44.3989 56.2425 42.1387 56.2425H13.2364C12.5502 58.0242 10.8179 59.2852 8.78807 59.2852C6.15841 59.2852 4.0278 57.1644 4.0278 54.5468C4.0278 51.9292 6.15841 49.8084 8.78807 49.8084ZM8.313 30.8261C10.434 30.8261 12.1519 32.5361 12.1519 34.6474C12.1519 36.7586 10.434 38.4687 8.313 38.4687C6.192 38.4687 4.47408 36.7586 4.47408 34.6474C4.47408 32.5361 6.192 30.8261 8.313 30.8261ZM45.517 4.54503C47.638 4.54503 49.3559 6.25507 49.3559 8.36634C49.3559 10.4776 47.638 12.1876 45.517 12.1876C43.396 12.1876 41.6781 10.4776 41.6781 8.36634C41.6781 6.25507 43.396 4.54503 45.517 4.54503Z" fill="#1D4380"/>
</svg>
