<svg width="52" height="64" viewBox="0 0 52 64" fill="none" xmlns="http://www.w3.org/2000/svg">
<path d="M41.9413 35.1313H48.91V24.5922C48.91 22.8426 47.4711 21.4195 45.7022 21.4195H44.3351H39.5121H33.1104V27.8743H36.3761C36.4639 27.8743 36.5437 27.9002 36.6237 27.9238C36.8993 27.5002 37.3775 27.218 37.9246 27.218C38.7799 27.218 39.4732 27.9037 39.4732 28.7496C39.4732 29.5955 38.7799 30.2813 37.9246 30.2813C37.3775 30.2813 36.8991 29.999 36.6237 29.5754C36.5436 29.5989 36.4639 29.6248 36.3761 29.6248H32.2255C31.7363 29.6248 31.3405 29.2329 31.3405 28.7496V21.4195H24.9466H20.115H18.27C16.501 21.4195 15.0622 22.8426 15.0622 24.5922V34.4022H21.1459V31.1722C21.1459 31.0854 21.1721 31.0066 21.1959 30.9274C20.7676 30.6549 20.4823 30.1818 20.4823 29.6407C20.4823 28.7948 21.1756 28.1091 22.0309 28.1091C22.8861 28.1091 23.5794 28.7948 23.5794 29.6407C23.5794 30.1818 23.2941 30.6548 22.8658 30.9273C22.8896 31.0065 22.9158 31.0854 22.9158 31.1722V35.2774C22.9158 35.7608 22.52 36.1527 22.0309 36.1527H15.0622V46.2541C15.0622 48.0037 16.501 49.4268 18.27 49.4268H30.6034V43.4096H27.3377C27.2498 43.4096 27.1702 43.3837 27.0901 43.3601C26.8146 43.7838 26.3363 44.0661 25.7892 44.0661C24.9339 44.0661 24.2406 43.3803 24.2406 42.5344C24.2406 41.6885 24.9339 41.0028 25.7892 41.0028C26.3363 41.0028 26.8145 41.285 27.09 41.7086C27.1701 41.6851 27.2498 41.6592 27.3377 41.6592H31.4883C31.9774 41.6592 32.3732 42.051 32.3732 42.5344V49.4268H45.7022C47.4711 49.4268 48.91 48.0037 48.91 46.2541V36.8817H42.8262V40.1117C42.8262 40.1986 42.8001 40.2775 42.7763 40.3567C43.2046 40.6292 43.4899 41.1023 43.4899 41.6433C43.4899 42.4892 42.7966 43.175 41.9413 43.175C41.086 43.175 40.3927 42.4892 40.3927 41.6433C40.3927 41.1022 40.678 40.6291 41.1064 40.3567C41.0826 40.2775 41.0564 40.1986 41.0564 40.1117V36.0065C41.0564 35.5232 41.4522 35.1313 41.9413 35.1313ZM31.9861 39.3617C29.7868 39.3617 28.004 37.5984 28.004 35.4232C28.004 33.248 29.7868 31.4847 31.9861 31.4847C34.1853 31.4847 35.9682 33.248 35.9682 35.4232C35.9682 37.5984 34.1853 39.3617 31.9861 39.3617Z" fill="#1D4380"/>
<path d="M24.0617 12.9385C24.0617 8.4842 27.7258 4.86022 32.2298 4.86022C36.733 4.86022 40.3971 8.4842 40.3971 12.9385V19.669H43.4502V12.9385C43.4502 9.97525 42.2844 7.18547 40.1681 5.08373C38.0483 2.98711 35.2285 1.83197 32.2298 1.83197C26.038 1.83197 20.9999 6.81452 20.9999 12.9385V19.669H24.0617V12.9385Z" fill="#1D4380"/>
<path d="M3.8512 30.1148C3.8512 28.2745 5.34311 26.7826 7.18348 26.7826C9.02385 26.7826 10.5158 28.2745 10.5158 30.1148V58.0265C10.5158 59.8669 9.02385 61.3588 7.18348 61.3588C5.34311 61.3588 3.8512 59.8669 3.8512 58.0265L3.8512 30.1148Z" fill="#1D4380"/>
<path d="M28.5718 53.6752C30.6936 53.6752 32.4136 55.3952 32.4136 57.517C32.4136 59.6388 30.6936 61.3588 28.5718 61.3588L8.64509 61.3588C6.52332 61.3588 4.80329 59.6388 4.80329 57.517C4.80329 55.3952 6.52332 53.6752 8.64509 53.6752L28.5718 53.6752Z" fill="#1D4380"/>
</svg>
