<svg width="34" height="34" viewBox="0 0 34 34" fill="none" xmlns="http://www.w3.org/2000/svg">
<mask id="mask0_898_4682" style="mask-type:alpha" maskUnits="userSpaceOnUse" x="0" y="0" width="34" height="34">
<rect y="0.233917" width="33.0103" height="33.0103" fill="#D9D9D9"/>
</mask>
<g mask="url(#mask0_898_4682)">
<path d="M10.7283 22.2408H12.929L14.0294 19.0773H19.0497L20.15 22.2408H22.2819L17.6055 9.86191H15.4048L10.7283 22.2408ZM14.6483 17.2892L16.4364 12.1314H16.5739L18.362 17.2892H14.6483ZM16.5051 30.4933C14.6025 30.4933 12.8144 30.1323 11.141 29.4102C9.46752 28.6881 8.01186 27.7081 6.77398 26.4702C5.53609 25.2323 4.5561 23.7766 3.834 22.1032C3.1119 20.4298 2.75085 18.6417 2.75085 16.739H5.50171C5.50171 18.252 5.78826 19.679 6.36135 21.0201C6.93445 22.3611 7.71959 23.5302 8.71677 24.5274C9.71395 25.5246 10.8831 26.3155 12.2241 26.9C13.5652 27.4846 14.9922 27.7768 16.5051 27.7768C19.5769 27.7768 22.1788 26.7109 24.3107 24.579C26.4426 22.4471 27.5085 19.8452 27.5085 16.7734C27.5085 13.7016 26.4426 11.0998 24.3107 8.96788C22.1788 6.83597 19.5769 5.77001 16.5051 5.77001C14.4649 5.77001 12.6138 6.2686 10.9518 7.26579C9.28986 8.26297 7.97748 9.58682 7.01468 11.2373H11.0034V13.9882H2.75085V5.73563H5.50171V8.48648C6.76252 6.81304 8.34426 5.47773 10.2469 4.48055C12.1496 3.48336 14.2357 2.98477 16.5051 2.98477C18.4078 2.98477 20.1959 3.34582 21.8693 4.06792C23.5427 4.79002 24.9984 5.77001 26.2363 7.0079C27.4742 8.24578 28.4542 9.70144 29.1763 11.3749C29.8983 13.0483 30.2594 14.8364 30.2594 16.739C30.2594 18.6417 29.8983 20.4298 29.1763 22.1032C28.4542 23.7766 27.4742 25.2323 26.2363 26.4702C24.9984 27.7081 23.5427 28.6881 21.8693 29.4102C20.1959 30.1323 18.4078 30.4933 16.5051 30.4933Z" fill="#1D4380"/>
</g>
</svg>
