<svg xmlns="http://www.w3.org/2000/svg" width="65" height="61" fill="none"><path fill="#1D4380" d="M8.64 5.759c-3.093.713-5.297 3.323-5.52 6.54-.102 1.34.29 3.515.906 5.115.94 2.435 2.7 5.062 4.801 7.22.889.921 1.162 1.095 1.453 1.008.222-.07 1.435-1.287 2.238-2.226 2.751-3.27 4.34-6.698 4.562-9.846.137-2.053-.307-3.653-1.4-5.15-.821-1.13-2.256-2.122-3.64-2.522-.786-.243-2.632-.313-3.4-.14m2.87 1.34c2 .521 3.605 2.14 4.152 4.192.205.73.205 2.435 0 3.392-.444 2.175-1.47 4.366-3.11 6.61-.615.835-1.999 2.47-2.324 2.749-.102.087-.239-.017-.922-.748-2.05-2.21-3.725-4.975-4.426-7.324-.393-1.304-.461-1.74-.461-3.061 0-1.305.103-1.844.547-2.732 1.23-2.47 3.964-3.757 6.544-3.079"/><path fill="#1D4380" d="M9.23 9.743c-1.064.34-1.88 1.283-2.081 2.412-.34 1.87 1.295 3.68 3.206 3.494 1.218-.124 2.174-.85 2.606-2.025.138-.34.154-.541.138-1.129-.015-.618-.061-.773-.262-1.19-.308-.603-.955-1.237-1.557-1.47-.508-.185-1.587-.231-2.05-.092m1.727 1.237c.662.31 1.125 1.175 1.017 1.886-.17 1.299-1.557 2.026-2.698 1.423a1.824 1.824 0 0 1-.847-2.412c.462-.974 1.556-1.36 2.528-.897M49.615 20.793c-3.47.749-6.391 3.393-7.515 6.812-1.872 5.589 1.448 13.973 8.114 20.535 1.049 1.023 1.473 1.272 1.923 1.123.35-.15 3.02-2.895 4.044-4.167 1.049-1.323 2.622-3.693 3.396-5.115 2.172-4.067 2.97-8.509 2.147-11.752-.949-3.718-4.045-6.637-7.84-7.46-.998-.2-3.295-.2-4.269.024m4.27 1.896c2.796.724 4.993 2.82 5.966 5.714.25.749.275 1.048.25 2.67 0 1.996-.2 3.044-.899 5.115-1.073 3.07-3.545 6.937-6.391 9.906l-1.024 1.073-.948-.998c-3.77-3.992-6.292-8.459-7.166-12.576-.3-1.397-.3-3.817 0-4.865a8.56 8.56 0 0 1 6.916-6.213c.824-.15 2.372-.075 3.295.174"/><path fill="#1D4380" d="M50.19 26.183c-.35.124-.8.349-1.024.474-.624.399-1.498 1.397-1.823 2.12-.275.6-.324.824-.324 1.997 0 1.222.025 1.347.374 2.12.924 1.972 3.096 3.095 5.168 2.72 2.147-.399 3.67-1.921 4.045-4.067.35-2.02-.774-4.167-2.722-5.115-.699-.35-.923-.4-1.922-.424-.899-.05-1.273-.025-1.773.175m2.471 1.746c.799.25 1.573.924 1.922 1.747.675 1.572-.2 3.493-1.872 4.017-.524.175-1.773.075-2.247-.175a3.01 3.01 0 0 1-.749-4.84c.849-.873 1.773-1.123 2.946-.749M16.834 26.307c-.998.125-1.198.25-1.398.699-.175.45.025.973.5 1.123.499.174 2.072-.025 2.421-.3.55-.449.3-1.447-.424-1.547-.15-.05-.65-.024-1.099.025M23.376 26.432a.91.91 0 0 0-.1 1.298c.25.324 1.573.524 2.047.299a.9.9 0 0 0 .474-1.148c-.2-.449-.374-.524-1.298-.648-.699-.05-.824-.025-1.123.2M28.07 27.23c-.275.275-.325.824-.126 1.198.075.15.45.325.95.5.723.224.873.224 1.148.074.399-.2.599-.698.449-1.148-.125-.399-.75-.723-1.573-.823-.5-.05-.624 0-.849.2M32.538 29.052c-.35.274-.424.873-.15 1.198.25.324 1.299.923 1.623.923.624 0 1.024-.823.724-1.447-.15-.275-1.273-.948-1.623-.948-.15.024-.4.124-.574.274M36.133 32.171c-.474.25-.549.674-.274 1.472.3.948.499 1.173 1.048 1.173.85 0 1.124-.799.674-1.872-.35-.848-.824-1.097-1.448-.773M35.01 36.513c-.2.124-.524.399-.75.573-.723.674-.423 1.697.5 1.697.325 0 .55-.125 1.024-.574.749-.698.849-1.173.3-1.647-.375-.324-.6-.349-1.074-.05M30.441 39.232c-.774.374-.999.799-.699 1.298.1.174.325.399.5.474.274.125.424.1 1.098-.175.424-.175.824-.424.899-.524.2-.35.124-.923-.125-1.173-.325-.324-.899-.299-1.673.1M26.047 40.754c-.674.2-.974.5-.974.899 0 .499.1.698.5.898.324.174.424.174 1.198-.075.724-.225.849-.3.999-.624.1-.274.124-.474.025-.723-.2-.574-.75-.7-1.748-.375M22.851 43.923c-.749.823-.948 1.697-.5 2.121.25.25.75.3 1.124.175.325-.125 1.049-1.547.974-1.847-.25-.748-1.123-.973-1.598-.449M21.428 48.24c-.4.274-.5.599-.374 1.422.15 1.123.899 1.572 1.598.973.3-.25.3-.3.224-1.148-.075-.673-.15-.923-.374-1.148-.3-.324-.7-.374-1.074-.1M46.694 50.26c-.374.076-.774.225-.874.3-.5.4-.424 1.123.125 1.497.3.2.375.2 1.273 0 .6-.125 1.074-.3 1.249-.474a.873.873 0 0 0 0-1.247c-.3-.3-.724-.325-1.773-.075M39.23 51.633c-1.05.175-1.499.873-.95 1.572.2.25.35.3.75.3 1.547 0 2.321-.774 1.597-1.597-.324-.35-.574-.4-1.398-.275M24.05 51.883c-.6.648-.175 1.372.998 1.721.6.175.724.175.999.025.175-.075.375-.3.45-.499.324-.674-.45-1.372-1.623-1.497-.475-.025-.6 0-.824.25M33.811 52.357c-.923.499-.574 1.771.5 1.771 1.498 0 2.247-.748 1.573-1.597-.225-.274-.325-.3-1.024-.3-.45-.024-.899.05-1.049.126M28.743 52.656c-.3.325-.25 1.023.05 1.322.2.2.425.25 1.049.25.998 0 1.173-.05 1.348-.499.175-.424.025-.973-.3-1.148-.125-.075-.624-.125-1.098-.125-.7 0-.899.05-1.049.2"/><circle cx="31.115" cy="38.115" r="6.086" fill="#fff"/><path fill="#FF3B30" d="m28.68 41.496 2.435-2.435 2.434 2.435.947-.947-2.435-2.434 2.435-2.435-.947-.947-2.434 2.435-2.435-2.434-.947.946 2.435 2.435-2.434 2.434zm2.435 3.38a6.6 6.6 0 0 1-2.638-.532 6.8 6.8 0 0 1-2.147-1.445 6.8 6.8 0 0 1-1.445-2.147 6.6 6.6 0 0 1-.533-2.637q0-1.403.533-2.638a6.9 6.9 0 0 1 1.445-2.147 6.8 6.8 0 0 1 2.147-1.445 6.6 6.6 0 0 1 2.638-.533q1.401 0 2.637.533a6.8 6.8 0 0 1 2.147 1.445 6.9 6.9 0 0 1 1.445 2.147q.535 1.236.533 2.638a6.6 6.6 0 0 1-.533 2.637 6.8 6.8 0 0 1-1.445 2.147 6.9 6.9 0 0 1-2.147 1.445q-1.233.534-2.637.533"/></svg>