<svg width="51" height="51" viewBox="0 0 51 51" fill="none" xmlns="http://www.w3.org/2000/svg">
<g clip-path="url(#clip0_75_2301)">
<path fill-rule="evenodd" clip-rule="evenodd" d="M41.3717 9.66921L34.7347 3.03217L15.9794 3.03625L2.7135 16.3062L2.71759 35.0615L15.9876 48.3274L34.7428 48.3233L48.0087 35.0533L48.0047 16.2981L41.3717 9.66921Z" fill="white"/>
<path fill-rule="evenodd" clip-rule="evenodd" d="M33.7587 5.41355L39.6891 11.3481L45.6237 17.2826V34.0774L39.6932 40.0078L33.7587 45.9424H16.9721L11.0335 40.0119L5.09894 34.0774V17.2908L11.0294 11.3522L16.9639 5.41763H33.7587V5.41355ZM36.1154 0.920785L50.096 14.9219C50.2169 15.0422 50.3113 15.1865 50.3732 15.3455C50.4351 15.5044 50.4631 15.6745 50.4554 15.8449V35.5641C50.4552 35.887 50.3275 36.1967 50.1001 36.4259L36.1194 50.4147C35.9991 50.5356 35.8548 50.63 35.6959 50.6919C35.5369 50.7538 35.3668 50.7818 35.1964 50.7741H15.4772C15.1544 50.7739 14.8447 50.6462 14.6154 50.4188L0.63068 36.4381C0.509086 36.3181 0.413933 36.174 0.351332 36.015C0.288731 35.8561 0.260065 35.6858 0.267175 35.5151V15.7959C0.267455 15.4731 0.395153 15.1634 0.622512 14.9341L14.6032 0.949376C14.7232 0.827781 14.8673 0.732628 15.0263 0.670027C15.1852 0.607426 15.3555 0.57876 15.5262 0.58587H35.2454C35.5683 0.58615 35.878 0.713848 36.1072 0.941207L36.1154 0.920785ZM41.3801 9.649L34.7349 3.03647H15.9796L2.71777 16.3065V35.0617L15.9878 48.3276H34.743L48.0089 35.0576V16.2983L41.3719 9.66942L41.3801 9.649Z" fill="#D92D27"/>
<path d="M13.0836 30.4013C12.8059 30.4013 12.5404 30.4013 12.2667 30.3768C11.9931 30.3523 11.7439 30.3359 11.4907 30.3033C11.2375 30.2706 10.9924 30.2338 10.7596 30.193C10.5268 30.1521 10.3022 30.0991 10.0857 30.0419V28.1141C10.358 28.1386 10.6643 28.159 11.0047 28.1753L12.0013 28.2162H12.9447C13.1751 28.2191 13.4052 28.1972 13.6309 28.1508C13.7833 28.1241 13.9249 28.0547 14.0393 27.9507C14.0869 27.9017 14.1238 27.8434 14.1477 27.7794C14.1716 27.7154 14.182 27.6472 14.1782 27.579V27.4279C14.1822 27.3489 14.1664 27.2701 14.1322 27.1987C14.0979 27.1274 14.0464 27.0658 13.9822 27.0195C13.8496 26.9263 13.6908 26.8776 13.5288 26.8806H12.8835C12.099 26.9378 11.3199 26.7134 10.6861 26.2475C10.1878 25.8391 9.93459 25.108 9.93459 24.1114V23.703C9.90753 23.323 9.96698 22.9418 10.1085 22.5881C10.25 22.2344 10.4698 21.9173 10.7515 21.6608C11.4395 21.1656 12.2787 20.9259 13.1245 20.9828C13.4927 20.981 13.8608 20.9987 14.2272 21.0359C14.5744 21.0768 14.9011 21.1217 15.2034 21.1748C15.5056 21.2279 15.7793 21.2851 16.0202 21.3422V23.266C15.6363 23.2333 15.2034 23.2047 14.7296 23.1843C14.2558 23.1639 13.8147 23.1557 13.4226 23.1557C13.2133 23.1538 13.0042 23.1702 12.7977 23.2047C12.6442 23.2279 12.5016 23.2978 12.3893 23.4048C12.3355 23.4634 12.2943 23.5324 12.2683 23.6076C12.2423 23.6828 12.232 23.7625 12.2382 23.8419V23.9644C12.2319 24.0535 12.2467 24.1429 12.2815 24.2252C12.3163 24.3076 12.37 24.3805 12.4383 24.4382C12.6174 24.562 12.834 24.6197 13.0509 24.6015H13.8678C14.3731 24.5828 14.8744 24.6969 15.3218 24.9324C15.6956 25.1352 16 25.4453 16.1959 25.8228C16.3999 26.2291 16.5009 26.6793 16.4899 27.1338V27.5423C16.5322 28.1735 16.3904 28.8035 16.0815 29.3557C15.8062 29.7695 15.3894 30.0686 14.9093 30.1971C14.3151 30.3536 13.702 30.4264 13.0877 30.4135L13.0836 30.4013ZM19.4633 30.3237V23.221H17.1393V21.0482H24.2297V23.221H21.9139V30.3237H19.4633ZM28.7756 30.3972C28.1939 30.4073 27.6133 30.3428 27.0479 30.2052C26.5842 30.0889 26.1607 29.8489 25.8226 29.5109C25.4504 29.1091 25.1911 28.6159 25.0711 28.0814C24.8857 27.2948 24.802 26.4877 24.822 25.6798C24.802 24.8719 24.8857 24.0648 25.0711 23.2782C25.1911 22.7438 25.4504 22.2506 25.8226 21.8487C26.1607 21.5107 26.5842 21.2707 27.0479 21.1544C28.1855 20.8984 29.3657 20.8984 30.5033 21.1544C30.9664 21.2722 31.3895 21.512 31.7286 21.8487C32.0981 22.2519 32.3558 22.7447 32.476 23.2782C32.6614 24.0648 32.7451 24.8719 32.7252 25.6798C32.7451 26.4877 32.6614 27.2948 32.476 28.0814C32.3558 28.6149 32.0981 29.1077 31.7286 29.5109C31.3895 29.8476 30.9664 30.0874 30.5033 30.2052C29.938 30.3428 29.3573 30.4073 28.7756 30.3972ZM28.7756 28.2284C29.0389 28.2353 29.3015 28.1966 29.5516 28.1141C29.7502 28.0371 29.9151 27.8924 30.0172 27.7056C30.1484 27.4673 30.229 27.2045 30.2541 26.9337C30.3048 26.5109 30.328 26.0852 30.3236 25.6594C30.3287 25.2213 30.3056 24.7834 30.2541 24.3483C30.2297 24.0786 30.149 23.817 30.0172 23.5805C29.9113 23.406 29.746 23.2755 29.5516 23.2129C29.046 23.0767 28.5134 23.0767 28.0078 23.2129C27.8099 23.2727 27.6411 23.4036 27.534 23.5805C27.4022 23.817 27.3215 24.0786 27.2971 24.3483C27.2434 24.7901 27.2189 25.2348 27.2236 25.6798C27.2191 26.1056 27.2423 26.5313 27.293 26.9541C27.3181 27.225 27.3988 27.4877 27.5299 27.7261C27.6332 27.915 27.8015 28.0601 28.0037 28.1345C28.2512 28.2161 28.5109 28.2548 28.7715 28.2489L28.7756 28.2284ZM33.881 30.3237V21.0482H37.9654C38.2922 21.05 38.6179 21.0856 38.9374 21.1544C39.2737 21.2261 39.5885 21.3758 39.8564 21.5914C40.1661 21.8574 40.3988 22.2015 40.5303 22.588C40.7196 23.1619 40.8054 23.7648 40.7835 24.3687C40.8044 24.9803 40.7201 25.5909 40.5344 26.174C40.4108 26.5653 40.1869 26.9173 39.885 27.1951C39.6359 27.4147 39.3396 27.574 39.0191 27.6607C38.7186 27.7364 38.41 27.7748 38.1001 27.7751C37.9449 27.7751 37.7775 27.7751 37.61 27.7506C37.4426 27.7261 37.271 27.7138 37.1076 27.6852L36.6584 27.5954L36.3153 27.5423V30.34L33.881 30.3237ZM36.303 25.6063H37.704C37.7778 25.6113 37.852 25.6016 37.9221 25.5778C37.9922 25.554 38.0569 25.5164 38.1124 25.4674C38.2195 25.3551 38.2893 25.2125 38.3125 25.059C38.3536 24.8381 38.3728 24.6138 38.3697 24.3892C38.3734 24.1707 38.3501 23.9525 38.3003 23.7397C38.2733 23.5858 38.2007 23.4435 38.092 23.3313C38.042 23.2856 37.9833 23.2505 37.9195 23.228C37.8556 23.2055 37.7879 23.1962 37.7203 23.2006H36.3153V25.5859L36.303 25.6063Z" fill="white"/>
</g>
<defs>
<clipPath id="clip0_75_2301">
<rect width="50.1883" height="50.1883" fill="white" transform="translate(0.266968 0.585663)"/>
</clipPath>
</defs>
</svg>
