<svg width="43" height="44" viewBox="0 0 43 44" fill="none" xmlns="http://www.w3.org/2000/svg">
<path d="M6.56629 34.8005C6.05496 35.2387 5.70368 35.8544 5.59931 36.5536H5.1854C4.99407 36.5536 4.83752 36.3971 4.83752 36.2057V35.1483C4.83752 34.957 4.99402 34.8005 5.1854 34.8005L6.56629 34.8005ZM10.5525 36.5536C10.5803 36.6892 10.5942 36.8248 10.5942 36.9675C10.5942 38.1605 9.62724 39.131 8.43067 39.131C7.23761 39.131 6.26712 38.1605 6.26712 36.9675C6.26712 36.8248 6.28099 36.6892 6.30883 36.5536C6.50011 35.5552 7.37668 34.8004 8.43062 34.8004C9.48456 34.8004 10.3646 35.5552 10.5525 36.5536ZM9.51245 36.9675C9.51245 36.8214 9.48466 36.6787 9.42899 36.5536C9.269 36.1605 8.88288 35.8856 8.43072 35.8856C7.97852 35.8856 7.59245 36.1605 7.4324 36.5536C7.37673 36.6787 7.34895 36.8214 7.34895 36.9675C7.34895 37.5623 7.83244 38.0492 8.43072 38.0492C9.029 38.0492 9.51245 37.5623 9.51245 36.9675ZM5.69387 33.4126V23.0435C5.69387 22.4672 6.16109 22 6.7374 22H23.364C23.9404 22 24.4075 22.4672 24.4075 23.0435V33.4126C24.4075 33.6039 24.251 33.7604 24.0597 33.7604H6.04175C5.85041 33.7604 5.69387 33.6039 5.69387 33.4126ZM21.8822 32.2419C21.8822 32.4071 22.0161 32.541 22.1812 32.541H22.1905C22.3556 32.541 22.4895 32.4071 22.4895 32.2419V23.6383C22.4895 23.4732 22.3556 23.3393 22.1905 23.3393H22.1812C22.0161 23.3393 21.8822 23.4732 21.8822 23.6383V32.2419ZM19.0706 32.2419C19.0706 32.4071 19.2045 32.541 19.3696 32.541H19.3789C19.544 32.541 19.6778 32.4071 19.6778 32.2419V23.6383C19.6778 23.4732 19.544 23.3393 19.3789 23.3393H19.3696C19.2045 23.3393 19.0706 23.4732 19.0706 23.6383V32.2419ZM16.2591 32.2419C16.2591 32.4071 16.3929 32.541 16.558 32.541H16.5673C16.7324 32.541 16.8663 32.4071 16.8663 32.2419V23.6383C16.8663 23.4732 16.7324 23.3393 16.5673 23.3393H16.558C16.3929 23.3393 16.2591 23.4732 16.2591 23.6383V32.2419ZM13.4476 32.2419C13.4476 32.4071 13.5814 32.541 13.7465 32.541H13.7558C13.9209 32.541 14.0548 32.4071 14.0548 32.2419V23.6383C14.0548 23.4732 13.9209 23.3393 13.7558 23.3393H13.7465C13.5814 23.3393 13.4476 23.4732 13.4476 23.6383V32.2419ZM10.636 32.2419C10.636 32.4071 10.7698 32.541 10.935 32.541H10.9443C11.1094 32.541 11.2432 32.4071 11.2432 32.2419V23.6383C11.2432 23.4732 11.1094 23.3393 10.9443 23.3393H10.935C10.7698 23.3393 10.636 23.4732 10.636 23.6383V32.2419ZM7.82448 32.2419C7.82448 32.4071 7.95834 32.541 8.12345 32.541H8.13276C8.29791 32.541 8.43172 32.4071 8.43172 32.2419V23.6383C8.43172 23.4732 8.29791 23.3393 8.13276 23.3393H8.12345C7.95834 23.3393 7.82448 23.4732 7.82448 23.6383V32.2419ZM15.8918 36.5536C15.9196 36.6892 15.9336 36.8248 15.9336 36.9675C15.9336 38.1605 14.9666 39.131 13.77 39.131C12.5769 39.131 11.6065 38.1605 11.6065 36.9675C11.6065 36.8248 11.6204 36.6892 11.6482 36.5536C11.8395 35.5552 12.7161 34.8004 13.77 34.8004C14.8239 34.8004 15.704 35.5552 15.8918 36.5536ZM14.8518 36.9675C14.8518 36.8214 14.8239 36.6787 14.7718 36.5536C14.6083 36.1605 14.2222 35.8856 13.77 35.8856C13.3179 35.8856 12.9317 36.1605 12.7682 36.5536C12.7161 36.6787 12.6882 36.8214 12.6882 36.9675C12.6882 37.5623 13.1717 38.0492 13.7701 38.0492C14.3683 38.0492 14.8518 37.5623 14.8518 36.9675ZM11.9056 34.8005H10.2952C10.6499 35.1065 10.9317 35.4996 11.1021 35.9448C11.269 35.4996 11.5508 35.1065 11.9056 34.8005ZM35.475 35.1482V36.2057C35.475 36.397 35.3185 36.5536 35.1272 36.5536H32.3097C32.108 35.1726 30.9219 34.1048 29.4853 34.1048C28.0487 34.1048 26.8591 35.1726 26.6574 36.5536H16.6014C16.497 35.8544 16.1457 35.2387 15.6344 34.8004H25.4017V24.8523C25.4017 24.4696 25.7112 24.1566 26.0973 24.1566H29.381C30.3062 24.1566 31.1689 24.6158 31.687 25.381L33.8054 28.5185C34.115 28.9776 34.2819 29.5203 34.2819 30.0733V34.8004H35.1271C35.3185 34.8005 35.475 34.9569 35.475 35.1482ZM31.948 28.5985L30.254 26.1914C30.1879 26.101 30.0836 26.0454 29.9688 26.0454H27.3288C27.1375 26.0454 26.9809 26.2018 26.9809 26.3932V28.7968C26.9809 28.9916 27.1375 29.1446 27.3288 29.1446H31.6628C31.9446 29.1446 32.108 28.8281 31.948 28.5985ZM31.6488 36.9675C31.6488 38.1605 30.6784 39.131 29.4852 39.131C28.2887 39.131 27.3217 38.1605 27.3217 36.9675C27.3217 35.7709 28.2887 34.8005 29.4852 34.8005C30.6784 34.8005 31.6488 35.7709 31.6488 36.9675ZM30.5671 36.9675C30.5671 36.3692 30.0836 35.8857 29.4853 35.8857C28.887 35.8857 28.4035 36.3692 28.4035 36.9675C28.4035 37.5623 28.887 38.0492 29.4853 38.0492C30.0836 38.0492 30.5671 37.5623 30.5671 36.9675Z" fill="#00C0F3"/>
<g clip-path="url(#clip0_59_1198)">
<path d="M15.5881 24.0869L15.5885 24.0876C16.1076 24.8375 17.2174 24.8375 17.7365 24.0876L17.737 24.0869C18.5953 22.8426 19.334 21.7902 19.9677 20.8873C21.1237 19.2403 21.9307 18.0907 22.4779 17.1809C22.9077 16.466 23.1963 15.8699 23.3741 15.2695C23.553 14.6653 23.6125 14.0814 23.6125 13.4C23.6125 9.56162 20.5009 6.45001 16.6625 6.45001C12.8241 6.45001 9.71252 9.56162 9.71252 13.4C9.71252 14.0814 9.77201 14.6653 9.95094 15.2695C10.1287 15.8699 10.4173 16.466 10.8472 17.1809C11.3944 18.0907 12.2013 19.2403 13.3573 20.8873C13.9911 21.7902 14.7298 22.8426 15.5881 24.0869ZM18.85 13.4C18.85 14.6081 17.8707 15.5875 16.6625 15.5875C15.4544 15.5875 14.475 14.6081 14.475 13.4C14.475 12.1919 15.4544 11.2125 16.6625 11.2125C17.8707 11.2125 18.85 12.1919 18.85 13.4Z" fill="#00C0F3" stroke="white"/>
</g>
<defs>
<clipPath id="clip0_59_1198">
<rect width="19.35" height="19.35" fill="white" transform="translate(5.91254 5.875)"/>
</clipPath>
</defs>
</svg>
