<svg width="41" height="40" viewBox="0 0 41 40" fill="none" xmlns="http://www.w3.org/2000/svg">
<path d="M8.8241 36.2376C11.0599 36.2376 12.8723 34.51 12.8723 32.379C12.8723 30.248 11.0599 28.5204 8.8241 28.5204C6.58833 28.5204 4.77588 30.248 4.77588 32.379C4.77588 34.51 6.58833 36.2376 8.8241 36.2376Z" stroke="#E77817" stroke-miterlimit="10"/>
<path d="M8.8241 16.7171C11.0599 16.7171 12.8723 14.9896 12.8723 12.8586C12.8723 10.7275 11.0599 9 8.8241 9C6.58833 9 4.77588 10.7275 4.77588 12.8586C4.77588 14.9896 6.58833 16.7171 8.8241 16.7171Z" stroke="#E77817" stroke-miterlimit="10"/>
<path d="M24.0651 19.4409C26.3009 19.4409 28.1134 17.7134 28.1134 15.5823C28.1134 13.4513 26.3009 11.7238 24.0651 11.7238C21.8294 11.7238 20.0169 13.4513 20.0169 15.5823C20.0169 17.7134 21.8294 19.4409 24.0651 19.4409Z" stroke="#E77817" stroke-miterlimit="10"/>
<path d="M8.58606 16.7175V28.5204C8.58606 28.5204 8.58606 24.4346 13.3488 24.4346C18.1115 24.4346 23.8271 25.3425 23.8271 19.4412" stroke="#E77817" stroke-miterlimit="10"/>
<path d="M8.81077 15.132C10.1372 15.132 11.2124 14.1071 11.2124 12.8428C11.2124 11.5786 10.1372 10.5537 8.81077 10.5537C7.48437 10.5537 6.40912 11.5786 6.40912 12.8428C6.40912 14.1071 7.48437 15.132 8.81077 15.132Z" stroke="#E77817" stroke-linecap="round" stroke-linejoin="round"/>
<path d="M24.0146 17.8605C25.341 17.8605 26.4162 16.8356 26.4162 15.5714C26.4162 14.3071 25.341 13.2823 24.0146 13.2823C22.6882 13.2823 21.6129 14.3071 21.6129 15.5714C21.6129 16.8356 22.6882 17.8605 24.0146 17.8605Z" stroke="#E77817" stroke-linecap="round" stroke-linejoin="round"/>
<path d="M8.73893 34.676C10.0653 34.676 11.1406 33.6512 11.1406 32.3869C11.1406 31.1227 10.0653 30.0978 8.73893 30.0978C7.41253 30.0978 6.33728 31.1227 6.33728 32.3869C6.33728 33.6512 7.41253 34.676 8.73893 34.676Z" stroke="#E77817" stroke-linecap="round" stroke-linejoin="round"/>
<path d="M37.0063 33.3374C37.3818 33.6571 37.6398 34.1062 37.7164 34.6163H38.0204C38.1609 34.6163 38.2759 34.5021 38.2759 34.3625V33.5912C38.2759 33.4516 38.161 33.3375 38.0204 33.3375L37.0063 33.3374ZM34.0789 34.6163C34.0584 34.7152 34.0482 34.8141 34.0482 34.9182C34.0482 35.7885 34.7583 36.4964 35.6371 36.4964C36.5133 36.4964 37.226 35.7885 37.226 34.9182C37.226 34.8141 37.2158 34.7152 37.1954 34.6163C37.0549 33.888 36.4111 33.3374 35.6371 33.3374C34.8631 33.3374 34.2168 33.888 34.0789 34.6163ZM34.8426 34.9182C34.8426 34.8116 34.863 34.7076 34.9039 34.6163C35.0214 34.3295 35.305 34.129 35.6371 34.129C35.9692 34.129 36.2527 34.3295 36.3702 34.6163C36.4111 34.7076 36.4315 34.8116 36.4315 34.9182C36.4315 35.3521 36.0764 35.7073 35.6371 35.7073C35.1977 35.7073 34.8426 35.3521 34.8426 34.9182ZM37.647 32.3251V24.7612C37.647 24.3408 37.3039 24 36.8806 24H24.6701C24.2469 24 23.9038 24.3408 23.9038 24.7612V32.3251C23.9038 32.4646 24.0187 32.5787 24.1592 32.5787H37.3915C37.532 32.5787 37.647 32.4646 37.647 32.3251ZM25.7584 31.4711C25.7584 31.5916 25.6601 31.6892 25.5388 31.6892H25.5319C25.4107 31.6892 25.3124 31.5916 25.3124 31.4711V25.195C25.3124 25.0746 25.4107 24.977 25.5319 24.977H25.5388C25.6601 24.977 25.7584 25.0746 25.7584 25.195V31.4711ZM27.8232 31.4711C27.8232 31.5916 27.7249 31.6892 27.6036 31.6892H27.5968C27.4755 31.6892 27.3772 31.5916 27.3772 31.4711V25.195C27.3772 25.0746 27.4755 24.977 27.5968 24.977H27.6036C27.7249 24.977 27.8232 25.0746 27.8232 25.195V31.4711ZM29.888 31.4711C29.888 31.5916 29.7897 31.6892 29.6684 31.6892H29.6616C29.5403 31.6892 29.442 31.5916 29.442 31.4711V25.195C29.442 25.0746 29.5403 24.977 29.6616 24.977H29.6684C29.7897 24.977 29.888 25.0746 29.888 25.195V31.4711ZM31.9527 31.4711C31.9527 31.5916 31.8544 31.6892 31.7332 31.6892H31.7263C31.6051 31.6892 31.5068 31.5916 31.5068 31.4711V25.195C31.5068 25.0746 31.6051 24.977 31.7263 24.977H31.7332C31.8544 24.977 31.9527 25.0746 31.9527 25.195V31.4711ZM34.0175 31.4711C34.0175 31.5916 33.9192 31.6892 33.7979 31.6892H33.7911C33.6698 31.6892 33.5716 31.5916 33.5716 31.4711V25.195C33.5716 25.0746 33.6698 24.977 33.7911 24.977H33.7979C33.9192 24.977 34.0175 25.0746 34.0175 25.195V31.4711ZM36.0823 31.4711C36.0823 31.5916 35.984 31.6892 35.8627 31.6892H35.8559C35.7346 31.6892 35.6363 31.5916 35.6363 31.4711V25.195C35.6363 25.0746 35.7346 24.977 35.8559 24.977H35.8627C35.984 24.977 36.0823 25.0746 36.0823 25.195V31.4711ZM30.1577 34.6163C30.1372 34.7152 30.127 34.8141 30.127 34.9182C30.127 35.7885 30.8372 36.4964 31.7159 36.4964C32.5921 36.4964 33.3048 35.7885 33.3048 34.9182C33.3048 34.8141 33.2946 34.7152 33.2742 34.6163C33.1337 33.888 32.4899 33.3374 31.7159 33.3374C30.9419 33.3374 30.2956 33.888 30.1577 34.6163ZM30.9215 34.9182C30.9215 34.8116 30.9419 34.7076 30.9802 34.6163C31.1003 34.3295 31.3839 34.129 31.7159 34.129C32.048 34.129 32.3316 34.3295 32.4516 34.6163C32.4899 34.7076 32.5104 34.8116 32.5104 34.9182C32.5104 35.3521 32.1553 35.7073 31.7159 35.7073C31.2765 35.7073 30.9215 35.3521 30.9215 34.9182ZM33.0851 33.3374H34.2678C34.0073 33.5607 33.8004 33.8474 33.6752 34.1722C33.5526 33.8474 33.3457 33.5607 33.0851 33.3374ZM15.7759 33.5911V34.3625C15.7759 34.5021 15.8908 34.6163 16.0313 34.6163H18.1004C18.2486 33.6089 19.1197 32.83 20.1747 32.83C21.2297 32.83 22.1033 33.6089 22.2515 34.6163H29.6366C29.7132 34.1062 29.9712 33.6571 30.3467 33.3374H23.1737V26.0806C23.1737 25.8015 22.9464 25.5731 22.6628 25.5731H20.2513C19.5718 25.5731 18.9383 25.9081 18.5578 26.4663L17.0021 28.755C16.7747 29.0899 16.6521 29.4857 16.6521 29.8891V33.3374H16.0314C15.8908 33.3374 15.7759 33.4516 15.7759 33.5911ZM18.3661 28.8133L19.6102 27.0575C19.6587 26.9915 19.7353 26.9509 19.8196 26.9509H21.7585C21.8989 26.9509 22.0139 27.0651 22.0139 27.2047V28.958C22.0139 29.1001 21.8989 29.2117 21.7585 29.2117H18.5756C18.3686 29.2117 18.2486 28.9808 18.3661 28.8133ZM18.5858 34.9182C18.5858 35.7885 19.2985 36.4964 20.1747 36.4964C21.0535 36.4964 21.7636 35.7885 21.7636 34.9182C21.7636 34.0453 21.0535 33.3374 20.1747 33.3374C19.2985 33.3374 18.5858 34.0453 18.5858 34.9182ZM19.3803 34.9182C19.3803 34.4818 19.7353 34.1291 20.1747 34.1291C20.6141 34.1291 20.9692 34.4818 20.9692 34.9182C20.9692 35.3521 20.6141 35.7073 20.1747 35.7073C19.7353 35.7073 19.3803 35.3521 19.3803 34.9182Z" fill="#E77817"/>
</svg>
