<svg width="31" height="31" viewBox="0 0 31 31" fill="none" xmlns="http://www.w3.org/2000/svg">
<path d="M11.3731 1.9375H19.6269C20.5859 1.9375 21.4966 2.31531 22.1747 2.99344L28.0066 8.82531C28.6847 9.50344 29.0625 10.4141 29.0625 11.3731V19.6269C29.0625 20.5859 28.6847 21.4966 28.0066 22.1747L22.1747 28.0066C21.4966 28.6847 20.5859 29.0625 19.6269 29.0625H11.3731C10.4141 29.0625 9.50344 28.6847 8.82531 28.0066L2.99344 22.1747C2.31531 21.4966 1.9375 20.5859 1.9375 19.6269V11.3731C1.9375 10.4141 2.31531 9.50344 2.99344 8.82531L8.82531 2.99344C9.50344 2.31531 10.4141 1.9375 11.3731 1.9375Z" fill="#D3D3D3"/>
<path d="M12.1772 3.875H18.8228C19.7819 3.875 20.6925 4.25281 21.3706 4.93094L26.0691 9.62937C26.7472 10.3075 27.125 11.2181 27.125 12.1772V18.8228C27.125 19.7819 26.7472 20.6925 26.0691 21.3706L21.3706 26.0691C20.6925 26.7472 19.7819 27.125 18.8228 27.125H12.1772C11.2181 27.125 10.3075 26.7472 9.62937 26.0691L4.93094 21.3706C4.25281 20.6925 3.875 19.7819 3.875 18.8228V12.1772C3.875 11.2181 4.25281 10.3075 4.93094 9.62937L9.62937 4.93094C10.3075 4.25281 11.2181 3.875 12.1772 3.875Z" fill="#F8312F"/>
<path d="M10.25 11.375C10.0438 11.375 9.875 11.5438 9.875 11.75V18.5C9.875 18.7063 10.0438 18.875 10.25 18.875H10.3273C10.5711 18.0102 11.368 17.375 12.3125 17.375C13.257 17.375 14.0516 18.0102 14.2977 18.875H16.7023C16.8172 18.4672 17.0563 18.1086 17.375 17.8461V11.75C17.375 11.5438 17.2063 11.375 17 11.375H10.25ZM10.3273 20H10.25C9.42266 20 8.75 19.3273 8.75 18.5V11.75C8.75 10.9227 9.42266 10.25 10.25 10.25H17C17.8273 10.25 18.5 10.9227 18.5 11.75V12.5H19.7984C20.1969 12.5 20.5789 12.657 20.8602 12.9383L21.8117 13.8898C22.093 14.1711 22.25 14.5531 22.25 14.9516V18.5C22.25 19.3273 21.5773 20 20.75 20H20.6727C20.4289 20.8648 19.632 21.5 18.6875 21.5C17.743 21.5 16.9484 20.8648 16.7023 20H14.2977C14.0539 20.8648 13.257 21.5 12.3125 21.5C11.368 21.5 10.5734 20.8648 10.3273 20ZM18.5 15.5H21.125V14.9516C21.125 14.8531 21.0852 14.757 21.0148 14.6867L20.0633 13.7352C19.993 13.6648 19.8969 13.625 19.7984 13.625H18.5V15.5ZM18.5 16.625V17.3844C18.5609 17.3797 18.6242 17.375 18.6875 17.375C19.632 17.375 20.4266 18.0102 20.6727 18.875H20.75C20.9563 18.875 21.125 18.7063 21.125 18.5V16.625H18.5ZM12.3125 20.375C12.8305 20.375 13.25 19.9555 13.25 19.4375C13.25 18.9195 12.8305 18.5 12.3125 18.5C11.7945 18.5 11.375 18.9195 11.375 19.4375C11.375 19.9555 11.7945 20.375 12.3125 20.375ZM18.6875 20.375C19.2055 20.375 19.625 19.9555 19.625 19.4375C19.625 18.9195 19.2055 18.5 18.6875 18.5C18.1695 18.5 17.75 18.9195 17.75 19.4375C17.75 19.9555 18.1695 20.375 18.6875 20.375Z" fill="white"/>
</svg>
