<svg width="31" height="24" viewBox="0 0 31 24" fill="none" xmlns="http://www.w3.org/2000/svg">
<path d="M9 10.03C9.66339 9.39216 10.5505 9.03995 11.4707 9.049C12.3909 9.05804 13.2709 9.42762 13.9216 10.0783C14.5723 10.7291 14.9419 11.6091 14.951 12.5293C14.96 13.4495 14.6078 14.3366 13.97 15" stroke="#1D4380" stroke-width="1.5"/>
<path d="M4.85319 19.147C8.04919 22.343 12.9132 22.854 16.6422 20.68C17.5292 20.163 17.9722 19.904 17.9992 19.378C18.0262 18.852 17.5282 18.488 16.5312 17.76C14.6832 16.41 12.8642 14.76 11.0512 12.948C9.24019 11.136 7.59019 9.31702 6.24019 7.47002C5.51219 6.47302 5.14819 5.97502 4.62219 6.00202C4.09619 6.02902 3.83719 6.47202 3.32019 7.35902C1.14619 11.089 1.65719 15.952 4.85319 19.149V19.147Z" stroke="#1D4380" stroke-width="1.5" stroke-linejoin="round"/>
<path d="M15.557 2C17.237 2.172 18.781 2.84 19.969 4.026C21.161 5.216 21.829 6.763 22 8.446M18.502 9C18.3106 8.14126 17.88 7.35425 17.26 6.73C16.6373 6.11464 15.8542 5.6867 15 5.495" stroke="#1D4380" stroke-width="1.5" stroke-linecap="round"/>
</svg>
