<svg width="44" height="34" viewBox="0 0 44 34" fill="none" xmlns="http://www.w3.org/2000/svg">
<path d="M37.625 24.7917C37.625 25.731 37.2519 26.6318 36.5877 27.296C35.9235 27.9602 35.0226 28.3333 34.0833 28.3333C33.144 28.3333 32.2432 27.9602 31.579 27.296C30.9148 26.6318 30.5417 25.731 30.5417 24.7917C30.5417 23.8524 30.9148 22.9515 31.579 22.2873C32.2432 21.6231 33.144 21.25 34.0833 21.25C35.0226 21.25 35.9235 21.6231 36.5877 22.2873C37.2519 22.9515 37.625 23.8524 37.625 24.7917ZM23.4583 24.7917C23.4583 25.731 23.0852 26.6318 22.421 27.296C21.7568 27.9602 20.856 28.3333 19.9167 28.3333C18.9774 28.3333 18.0765 27.9602 17.4123 27.296C16.7481 26.6318 16.375 25.731 16.375 24.7917C16.375 23.8524 16.7481 22.9515 17.4123 22.2873C18.0765 21.6231 18.9774 21.25 19.9167 21.25C20.856 21.25 21.7568 21.6231 22.421 22.2873C23.0852 22.9515 23.4583 23.8524 23.4583 24.7917Z" stroke="#107C41" stroke-width="1.5"/>
<path d="M30.5416 26.625H23.4583M37.6249 26.625H38.7058C39.0175 26.625 39.1733 26.625 39.3037 26.608C39.7727 26.5496 40.2088 26.3365 40.5431 26.0025C40.8774 25.6684 41.0908 25.2324 41.1496 24.7635C41.1666 24.6318 41.1666 24.4759 41.1666 24.1642V20.25C41.1666 17.8078 40.1964 15.4656 38.4695 13.7387C36.7426 12.0118 34.4005 11.0417 31.9583 11.0417M12.8333 7.5H26.9999C29.0031 7.5 30.0047 7.5 30.6266 8.12333C31.2499 8.74383 31.2499 9.74542 31.2499 11.75V22M12.8333 19.8958V23.0833C12.8333 24.4079 12.8333 25.0695 13.118 25.5625C13.3045 25.8855 13.5727 26.1537 13.8958 26.3403C14.3888 26.625 15.0503 26.625 16.3749 26.625M1 13.8333H11H21.5M4 16.75H11.5L18.4999 16.8333M12 11.125L5 11.0417" stroke="#107C41" stroke-width="2" stroke-linecap="round" stroke-linejoin="round"/>
</svg>
