<svg width="40" height="40" viewBox="0 0 40 40" fill="none" xmlns="http://www.w3.org/2000/svg">
<path fill-rule="evenodd" clip-rule="evenodd" d="M23.75 7.5C24.4404 7.5 25 8.05965 25 8.75V15H31.8287C32.0351 15 32.2383 15.0511 32.4201 15.1488C32.6019 15.2464 32.7568 15.3876 32.8707 15.5596L37.2921 22.2333C37.4277 22.438 37.5 22.6781 37.5 22.9237V26.25C37.5 26.9404 36.9404 27.5 36.25 27.5H32.5C32.5 30.2614 30.2614 32.5 27.5 32.5C24.7386 32.5 22.5 30.2614 22.5 27.5H15C15 30.2614 12.7614 32.5 10 32.5C7.23859 32.5 5 30.2614 5 27.5H3.75C3.05965 27.5 2.5 26.9404 2.5 26.25V8.75C2.5 8.05965 3.05965 7.5 3.75 7.5H23.75ZM10 25C8.6193 25 7.5 26.1193 7.5 27.5C7.5 28.8807 8.6193 30 10 30L10.0413 29.9996C11.403 29.9776 12.5 28.8669 12.5 27.5C12.5 26.1193 11.3807 25 10 25ZM27.5 25C26.1193 25 25 26.1193 25 27.5C25 28.8807 26.1193 30 27.5 30L27.5413 29.9996C28.903 29.9776 30 28.8669 30 27.5C30 26.1193 28.8807 25 27.5 25ZM22.5 10H5V25H5.66891C6.5334 23.5055 8.1493 22.5 10 22.5C11.8507 22.5 13.4666 23.5055 14.3311 25H22.5V10ZM31.1574 17.5H25V23.1689C25.7355 22.7435 26.5893 22.5 27.5 22.5C29.3507 22.5 30.9666 23.5055 31.8311 25H35V23.3002L31.1574 17.5ZM19.5312 17.5C19.7901 17.5 20 17.7099 20 17.9688V19.5312C20 19.7901 19.7901 20 19.5312 20H12.9688C12.7099 20 12.5 19.7901 12.5 19.5312V17.9688C12.5 17.7099 12.7099 17.5 12.9688 17.5H19.5312ZM12.0312 12.5C12.2901 12.5 12.5 12.7099 12.5 12.9688V14.5312C12.5 14.7901 12.2901 15 12.0312 15H7.96875C7.70988 15 7.5 14.7901 7.5 14.5312V12.9688C7.5 12.7099 7.70988 12.5 7.96875 12.5H12.0312Z" fill="#007AFF"/>
</svg>
