<?xml version="1.0" encoding="UTF-8"?>
<svg version="1.1" xmlns="http://www.w3.org/2000/svg" width="27" height="73">
<path d="M0 0 C2.31 0.33 4.62 0.66 7 1 C7 24.43 7 47.86 7 72 C-13 72 -13 72 -20 71 C-20 48.56 -20 26.12 -20 3 C-12.11901476 -0.3775651 -8.25922649 -1.28603873 0 0 Z " fill="#E49FA2" transform="translate(20,1)"/>
<path d="M0 0 C6.93 0 13.86 0 21 0 C21 14.19 21 28.38 21 43 C14.07 43 7.14 43 0 43 C0 28.81 0 14.62 0 0 Z " fill="#E81D24" transform="translate(3,26)"/>
<path d="M0 0 C6.93 0 13.86 0 21 0 C21 14.19 21 28.38 21 43 C14.07 43 7.14 43 0 43 C0 28.81 0 14.62 0 0 Z M3 4 C2.88674282 6.41323441 2.83582975 8.79677404 2.83203125 11.2109375 C2.82870285 11.93487701 2.82537445 12.65881653 2.82194519 13.4046936 C2.81687261 14.93971113 2.81453697 16.47473972 2.81469727 18.00976562 C2.81251555 20.35825849 2.79437713 22.70627815 2.77539062 25.0546875 C2.77245581 26.54426922 2.7704716 28.03385318 2.76953125 29.5234375 C2.76234573 30.22665131 2.75516022 30.92986511 2.74775696 31.65438843 C2.76497704 35.33294689 2.90139316 36.85208974 5 40 C7.10310382 40.40197129 7.10310382 40.40197129 9.4375 40.25 C10.61119141 40.22679688 10.61119141 40.22679688 11.80859375 40.203125 C14.17681959 40.0673481 14.17681959 40.0673481 17 39 C17.76262664 34.27382588 18.11892423 29.75795287 18.09765625 24.97265625 C18.09282227 23.04389648 18.09282227 23.04389648 18.08789062 21.07617188 C18.07953802 19.73828055 18.07107311 18.40038993 18.0625 17.0625 C18.05747659 15.69726726 18.05291517 14.33203274 18.04882812 12.96679688 C18.03708851 9.64448543 18.02066679 6.32226592 18 3 C15.68756208 2.97314588 13.3750373 2.95367159 11.0625 2.9375 C9.13083984 2.92009766 9.13083984 2.92009766 7.16015625 2.90234375 C4.13701597 2.63467451 4.13701597 2.63467451 3 4 Z " fill="#C02D33" transform="translate(3,26)"/>
<path d="M0 0 C2.65673683 3.05927272 2.83281049 5.39371512 3.0625 9.375 C2.4025 9.375 1.7425 9.375 1.0625 9.375 C1.0625 12.345 1.0625 15.315 1.0625 18.375 C0.4025 18.375 -0.2575 18.375 -0.9375 18.375 C-0.9375 15.735 -0.9375 13.095 -0.9375 10.375 C-6.5475 10.375 -12.1575 10.375 -17.9375 10.375 C-17.9375 12.685 -17.9375 14.995 -17.9375 17.375 C-18.5975 17.375 -19.2575 17.375 -19.9375 17.375 C-19.9375 14.735 -19.9375 12.095 -19.9375 9.375 C-20.5975 9.045 -21.2575 8.715 -21.9375 8.375 C-21.2775 6.065 -20.6175 3.755 -19.9375 1.375 C-19.2775 1.375 -18.6175 1.375 -17.9375 1.375 C-17.9375 0.715 -17.9375 0.055 -17.9375 -0.625 C-11.44258913 -2.92528093 -6.30501936 -3.48788305 0 0 Z " fill="#B9474E" transform="translate(22.9375,2.625)"/>
<path d="M0 0 C1.32 0 2.64 0 4 0 C4 9.9 4 19.8 4 30 C3.67 30 3.34 30 3 30 C3 27.03 3 24.06 3 21 C1.02 21 -0.96 21 -3 21 C-3 18.36 -3 15.72 -3 13 C-7.62 13 -12.24 13 -17 13 C-17 15.64 -17 18.28 -17 21 C-18.98 21 -20.96 21 -23 21 C-23 14.73 -23 8.46 -23 2 C-21.35 1.67 -19.7 1.34 -18 1 C-18.66 1.66 -19.32 2.32 -20 3 C-20.74000384 6.02270522 -20.74000384 6.02270522 -21 9 C-20.67 9.33 -20.34 9.66 -20 10 C-19.85884839 12.67058851 -19.95752893 15.32432238 -20 18 C-19.34 18 -18.68 18 -18 18 C-18 15.69 -18 13.38 -18 11 C-12.24153561 9.60400863 -6.75846439 9.60400863 -1 11 C-1 13.64 -1 16.28 -1 19 C-0.34 19 0.32 19 1 19 C1 16.03 1 13.06 1 10 C1.66 10 2.32 10 3 10 C1.515 5.05 1.515 5.05 0 0 Z " fill="#DBB4BA" transform="translate(23,2)"/>
<path d="M0 0 C4.62 0 9.24 0 14 0 C14 2.64 14 5.28 14 8 C15.98 8 17.96 8 20 8 C20 8.33 20 8.66 20 9 C11.75 9 3.5 9 -5 9 C-5 8.67 -5 8.34 -5 8 C-3.35 8 -1.7 8 0 8 C0 5.36 0 2.72 0 0 Z " fill="#963D43" transform="translate(6,15)"/>
<path d="M0 0 C0.33 0 0.66 0 1 0 C1.99040946 16.34175605 2.11611648 32.63114978 2 49 C-1.20831391 49.0292483 -4.41659307 49.04688189 -7.625 49.0625 C-8.52863281 49.07087891 -9.43226562 49.07925781 -10.36328125 49.08789062 C-15.02904289 49.10491895 -19.41013285 48.96829423 -24 48 C-23.67 47.34 -23.34 46.68 -23 46 C-15.41 46.33 -7.82 46.66 0 47 C0 31.49 0 15.98 0 0 Z " fill="#CA9DA0" transform="translate(25,24)"/>
<path d="M0 0 C0.62261719 0.15339844 1.24523438 0.30679687 1.88671875 0.46484375 C6.18274772 1.20330795 10.46241952 1.36462162 14.8125 1.5625 C15.69615234 1.60568359 16.57980469 1.64886719 17.49023438 1.69335938 C19.65999623 1.79891536 21.8299791 1.89991071 24 2 C24 2.33 24 2.66 24 3 C17.07 3 10.14 3 3 3 C3 16.53 3 30.06 3 44 C2.67 44 2.34 44 2 44 C1.71178525 39.18045152 1.42709003 34.36071203 1.14550781 29.54077148 C1.0494454 27.90464815 0.95245885 26.26857878 0.85449219 24.63256836 C0.7129999 22.26690396 0.5749475 19.9010587 0.4375 17.53515625 C0.39375244 16.81602554 0.35000488 16.09689484 0.30493164 15.35597229 C0.01174519 10.23018682 -0.03539329 5.134239 0 0 Z " fill="#E08C90" transform="translate(0,23)"/>
<path d="M0 0 C0.7734375 -0.00257812 1.546875 -0.00515625 2.34375 -0.0078125 C4.5 0.125 4.5 0.125 7.5 1.125 C7.5 1.785 7.5 2.445 7.5 3.125 C8.16 3.125 8.82 3.125 9.5 3.125 C9.5 4.115 9.5 5.105 9.5 6.125 C6.89521117 6.2059313 4.29293347 6.26545434 1.6875 6.3125 C0.58051758 6.35020508 0.58051758 6.35020508 -0.54882812 6.38867188 C-6.04974762 6.46334499 -6.04974762 6.46334499 -8.51171875 4.61328125 C-8.83785156 4.12214844 -9.16398438 3.63101562 -9.5 3.125 C-6.54393235 0.16893235 -4.0017822 -0.01333927 0 0 Z " fill="#C62A31" transform="translate(12.5,1.875)"/>
<path d="M0 0 C1.32 0 2.64 0 4 0 C4 9.9 4 19.8 4 30 C3.67 30 3.34 30 3 30 C3 26.7 3 23.4 3 20 C1.35 20 -0.3 20 -2 20 C-1.01 19.67 -0.02 19.34 1 19 C1 16.03 1 13.06 1 10 C1.66 10 2.32 10 3 10 C2.01 6.7 1.02 3.4 0 0 Z " fill="#E7D2D5" transform="translate(23,2)"/>
<path d="M0 0 C1.37478516 0.01740234 1.37478516 0.01740234 2.77734375 0.03515625 C3.69644531 0.04417969 4.61554687 0.05320312 5.5625 0.0625 C6.27277344 0.07410156 6.98304687 0.08570313 7.71484375 0.09765625 C7.71484375 2.07765625 7.71484375 4.05765625 7.71484375 6.09765625 C4.41484375 6.09765625 1.11484375 6.09765625 -2.28515625 6.09765625 C-2.66734392 4.44150968 -2.99910727 2.77308601 -3.28515625 1.09765625 C-2.28515625 0.09765625 -2.28515625 0.09765625 0 0 Z " fill="#C1353C" transform="translate(12.28515625,15.90234375)"/>
<path d="M0 0 C2.45840605 -0.02691685 4.91651882 -0.04679802 7.375 -0.0625 C8.07367188 -0.07087891 8.77234375 -0.07925781 9.4921875 -0.08789062 C14.7734375 -0.11328125 14.7734375 -0.11328125 17 1 C17 1.66 17 2.32 17 3 C11.39 3 5.78 3 0 3 C0 2.01 0 1.02 0 0 Z " fill="#602630" transform="translate(5,9)"/>
<path d="M0 0 C0.66 0 1.32 0 2 0 C2 0.66 2 1.32 2 2 C3.65 2.33 5.3 2.66 7 3 C5.68 3.99 4.36 4.98 3 6 C4.65 6.33 6.3 6.66 8 7 C8 7.33 8 7.66 8 8 C6.35 8 4.7 8 3 8 C3 10.31 3 12.62 3 15 C2.34 15 1.68 15 1 15 C1 12.36 1 9.72 1 7 C0.34 6.67 -0.32 6.34 -1 6 C-0.67 4.02 -0.34 2.04 0 0 Z " fill="#7C3F45" transform="translate(2,5)"/>
<path d="M0 0 C0.66 0.33 1.32 0.66 2 1 C2.40729228 3.32156597 2.74438677 5.6568787 3 8 C2.34 8 1.68 8 1 8 C1 10.97 1 13.94 1 17 C0.34 17 -0.32 17 -1 17 C-1 14.36 -1 11.72 -1 9 C-2.65 9 -4.3 9 -6 9 C-6 8.67 -6 8.34 -6 8 C-4.35 8 -2.7 8 -1 8 C-1 7.34 -1 6.68 -1 6 C-1.66 5.67 -2.32 5.34 -3 5 C-1.68 5 -0.36 5 1 5 C0.67 3.35 0.34 1.7 0 0 Z " fill="#72454C" transform="translate(23,4)"/>
<path d="M0 0 C2.0625 0.4375 2.0625 0.4375 4 1 C3.01 1.495 3.01 1.495 2 2 C1.2677581 5.66120948 1 9.07774984 1 12.8125 C1 16 1 16 0 18 C1.32 18.33 2.64 18.66 4 19 C2.35 19.33 0.7 19.66 -1 20 C-1.02888514 16.85418577 -1.04675923 13.70840531 -1.0625 10.5625 C-1.07087891 9.66466797 -1.07925781 8.76683594 -1.08789062 7.84179688 C-1.09111328 6.98779297 -1.09433594 6.13378906 -1.09765625 5.25390625 C-1.10551147 4.06776733 -1.10551147 4.06776733 -1.11352539 2.85766602 C-1 1 -1 1 0 0 Z " fill="#EAD0D2" transform="translate(1,3)"/>
<path d="M0 0 C0 0.99 0 1.98 0 3 C3.3 3.66 6.6 4.32 10 5 C10 5.33 10 5.66 10 6 C8.06318839 6.08107583 6.1254066 6.13922475 4.1875 6.1875 C3.10855469 6.22230469 2.02960937 6.25710937 0.91796875 6.29296875 C-2 6 -2 6 -3.88671875 4.48828125 C-4.43779297 3.75158203 -4.43779297 3.75158203 -5 3 C-3 1 -3 1 0 0 Z " fill="#BD313C" transform="translate(8,2)"/>
<path d="M0 0 C0 0.99 0 1.98 0 3 C-2.31 3 -4.62 3 -7 3 C-7.33 2.01 -7.66 1.02 -8 0 C-2.25 -1.125 -2.25 -1.125 0 0 Z " fill="#C32A33" transform="translate(18,18)"/>
<path d="M0 0 C2.64 0 5.28 0 8 0 C8 1.98 8 3.96 8 6 C7.4121875 5.0409375 7.4121875 5.0409375 6.8125 4.0625 C4.61527704 1.56221181 3.24208567 1.35049575 0 1 C0 0.67 0 0.34 0 0 Z " fill="#A53139" transform="translate(12,16)"/>
</svg>
