<?xml version="1.0" encoding="UTF-8" standalone="no" ?>
<!DOCTYPE svg PUBLIC "-//W3C//DTD SVG 1.1//EN" "http://www.w3.org/Graphics/SVG/1.1/DTD/svg11.dtd">
<svg xmlns="http://www.w3.org/2000/svg" xmlns:xlink="http://www.w3.org/1999/xlink" version="1.1" width="1080" height="1080" viewBox="0 0 1080 1080" xml:space="preserve">
<desc>Created with Fabric.js 5.2.4</desc>
<defs>
</defs>
<g transform="matrix(1 0 0 1 540 540)" id="b22a47e1-57ce-4df9-9f47-83747e60cea8"  >
<rect style="stroke: none; stroke-width: 1; stroke-dasharray: none; stroke-linecap: butt; stroke-dashoffset: 0; stroke-linejoin: miter; stroke-miterlimit: 4; fill: rgb(255,255,255); fill-rule: nonzero; opacity: 1; visibility: hidden;" vector-effect="non-scaling-stroke"  x="-540" y="-540" rx="0" ry="0" width="1080" height="1080" />
</g>
<g transform="matrix(1 0 0 1 540 540)" id="b8679857-ce28-44b1-a534-5baf2f8f3fe3"  >
</g>
<g transform="matrix(1 0 0 1 540 540)" id="8e3b2fee-6505-46f0-bab3-00859d4806b4"  >
<path style="stroke: rgb(0,0,0); stroke-width: 0; stroke-dasharray: none; stroke-linecap: butt; stroke-dashoffset: 0; stroke-linejoin: miter; stroke-miterlimit: 4; fill: rgb(0,150,136); fill-rule: nonzero; opacity: 1;" vector-effect="non-scaling-stroke"  transform=" translate(-512, -512.73)" d="M 679.846264 249.390977 L 679.846264 417.21831 L 727.8035090000001 417.21831 L 727.803509 249.390977 C 727.803509 209.629391 695.5929 177.43208499999997 655.86713 177.43208499999997 L 607.908862 177.432085 L 607.908862 225.388307 L 655.86713 225.388307 C 669.109736 225.388307 679.846264 236.137115 679.846264 249.390977 z M 308.18043 273.344528 C 328.049966 273.344528 344.14862 257.25815500000004 344.14862 237.40089800000004 L 344.14862 165.46656500000006 C 344.14862 145.58577200000005 328.049967 129.47483900000006 308.18043 129.47483900000006 C 288.311917 129.47483900000006 272.213264 145.58577200000005 272.213264 165.46656500000006 L 272.213264 237.40089800000004 C 272.213263 257.258155 288.311917 273.344528 308.18043 273.344528 z M 488.018308 177.431062 L 368.125707 177.431062 L 368.125707 225.387284 L 488.018308 225.387283 L 488.018308 177.431062 z M 547.963585 273.344528 C 567.833121 273.344528 583.930751 257.25815500000004 583.930751 237.40089800000004 L 583.930751 165.46656500000006 C 583.930751 145.58577200000005 567.833121 129.47483900000006 547.963585 129.47483900000006 C 528.095072 129.47483900000006 511.997442 145.58577200000005 511.997442 165.46656500000006 L 511.997442 237.40089800000004 C 511.997442 257.258155 528.095072 273.344528 547.963585 273.344528 z M 176.298773 776.895089 L 176.298773 249.390977 C 176.298773 236.137115 187.034278 225.388307 200.27586100000002 225.388307 L 248.23310600000002 225.388307 L 248.23310600000002 177.432085 L 200.27586100000002 177.432085 C 160.538835 177.432085 128.342552 209.629391 128.342552 249.39097700000002 L 128.342552 776.896113 C 128.342552 816.633139 160.538835 848.829422 200.27586100000002 848.829422 L 344.14861900000005 848.829422 L 344.148619 800.8732 L 200.275861 800.8732 C 187.034279 800.8732 176.298773 790.148951 176.298773 776.895089 z M 272.213263 417.21831 L 583.9317739999999 417.21831 C 597.1743799999999 417.21831 607.9098849999999 406.494061 607.9098849999999 393.239176 C 607.9098849999999 380.00987299999997 597.175403 369.262088 583.9317739999999 369.262088 L 272.213263 369.262088 C 258.971681 369.262088 248.233106 380.009873 248.233106 393.239176 C 248.233106 406.493038 258.971681 417.21831 272.213263 417.21831 z M 344.148619 537.109887 L 272.213263 537.109887 C 258.971681 537.109887 248.233106 547.856649 248.233106 561.111534 C 248.233106 574.316277 258.971681 585.063039 272.213263 585.063039 L 344.148619 585.063039 C 357.390201 585.063039 368.125707 574.316277 368.125707 561.111534 C 368.125707 547.856649 357.389178 537.109887 344.148619 537.109887 z M 894.682237 666.672732 C 887.3420619999999 646.934179 876.067274 633.606639 852.06358 636.325563 C 848.52601 636.701116 842.217328 629.439736 840.286349 624.523773 C 828.8703449999999 595.089394 818.0263689999999 565.419654 807.677674 535.563672 C 801.1684230000001 516.666276 787.984146 504.282225 769.764179 499.246535 C 745.132175 492.40778 719.760322 488.264413 694.715926 482.94936 C 658.1286359999999 477.514581 625.0635659999999 477.327316 585.0318279999999 482.94936 C 570.7843359999999 485.14639800000003 556.4304199999999 486.925928 542.2627449999999 489.64382900000004 C 504.6204259999999 496.90521 475.1512549999999 513.320065 464.40346999999986 554.133609 C 457.9863169999999 578.395176 448.36314499999986 601.903589 439.38158699999985 625.415072 C 437.63787299999984 629.957528 431.78353799999985 636.747165 428.59900999999985 636.325563 C 402.32562299999984 633.001864 392.07004899999987 649.066748 385.05528499999986 669.903309 C 383.77819899999986 674.732291 384.50474599999984 679.157067 385.05528499999986 682.786734 C 395.15940999999987 685.4544930000001 405.22976699999987 688.125322 412.33458199999984 689.995926 C 411.8321389999998 728.0741730000001 411.2693199999998 765.864871 410.89683699999983 803.658639 C 410.69729199999983 824.034712 409.88990399999983 844.454787 411.28159999999986 864.7316 C 411.96209899999985 874.096898 415.43929299999985 888.665709 420.5435439999999 892.266723 C 424.3134039999999 897.326972 491.8127269999999 897.1397069999999 504.4096269999999 892.266723 C 510.1820969999999 890.0686609999999 513.0371219999998 860.3518489999999 517.8261949999999 842.672188 L 765.2094449999998 842.672188 C 771.2878839999998 859.390965 759.6487989999998 879.999328 778.5687069999998 892.266723 C 784.2234969999998 896.202359 857.0511759999998 896.4602319999999 860.3155229999998 890.838188 C 863.7702049999998 888.665709 868.7475659999998 875.314633 868.9020849999997 866.6983949999999 C 869.8588759999997 818.6009569999999 869.5795139999997 770.4574699999998 869.1804239999997 722.311937 C 869.1200489999997 711.7769999999999 866.7766779999997 701.2164799999999 865.4770789999997 690.8411779999999 C 874.6694389999997 688.3105419999999 884.6691869999996 685.5465919999999 894.6658649999997 682.7867349999999 C 895.452787 678.753885 896.425951 672.716378 894.682237 666.672732 z M 537.439904 752.844324 C 535.449573 758.231008 527.487228 763.3393520000001 521.211291 764.7863070000001 C 512.57254 766.824733 502.99132399999996 767.1286550000001 493.89720199999994 767.1286550000001 C 493.8726429999999 767.4602060000001 493.88389899999993 767.2923840000001 493.89720199999994 767.1286550000001 C 493.8931089999999 767.1286550000001 493.88799199999994 767.1266080000001 493.88389899999993 767.1266080000001 C 480.59933799999993 765.7492380000001 467.09271899999993 765.3961970000001 454.08854399999996 762.6793190000002 C 437.18250199999994 759.1437960000002 432.42822199999995 746.5202910000002 437.521217 723.9277370000002 C 441.01069099999995 708.4481840000002 453.105147 707.7707550000002 463.93582 711.3523270000002 C 485.713823 718.4939810000002 507.04463999999996 727.2258530000001 527.816733 736.8746070000002 C 532.80228 739.172953 538.84388 749.006925 537.439904 752.844324 z M 472.059847 644.145669 C 484.541113 609.115851 495.324713 576.707744 507.980964 545.096792 C 510.39289699999995 539.007097 519.6998669999999 533.666462 526.761703 531.959587 C 543.903105 527.861246 561.628815 523.739368 579.0853960000001 523.878538 C 632.1243800000001 524.254091 685.175643 526.1727900000001 738.1890440000001 528.56221 C 759.9547670000001 529.5251410000001 774.5553000000001 540.643363 780.654205 563.2164740000001 C 787.7620900000001 589.5369330000001 797.1867400000001 615.2034990000001 806.562271 644.1456680000001 C 694.773232 668.267043 585.781912 667.705248 472.059847 644.145669 z M 828.786435 761.909793 C 814.8305849999999 765.16186 800.279171 765.679653 788.5449189999999 767.084652 C 775.128351 765.983575 764.23935 766.195399 753.9019109999999 763.945149 C 741.000066 761.137197 736.935494 745.915517 748.26861 740.3906870000001 C 772.951779 728.400608 799.014364 718.7968800000001 825.250912 710.6748980000001 C 835.7541269999999 707.4187380000001 843.002205 716.177215 843.364455 727.8367660000001 C 843.820849 741.465159 847.834256 757.529019 828.786435 761.909793 z M 493.882875 767.126608 C 493.918691 766.826779 493.896178 766.988462 493.882875 767.126608 L 493.882875 767.126608 z" stroke-linecap="round" />
</g>
<g transform="matrix(NaN NaN NaN NaN 0 0)"  >
<g style=""   >
</g>
</g>
<g transform="matrix(NaN NaN NaN NaN 0 0)"  >
<g style=""   >
</g>
</g>
</svg>