<svg width="25" height="24" viewBox="0 0 25 24" fill="none" xmlns="http://www.w3.org/2000/svg">
<g clip-path="url(#clip0_151_3391)">
<circle cx="12.1667" cy="12.5" r="10.5" fill="white" stroke="#FF3B30" stroke-width="2"/>
<path d="M12.7015 6.29727L18.584 16.1081C18.6382 16.1985 18.6667 16.301 18.6667 16.4054C18.6667 16.5098 18.6382 16.6123 18.584 16.7027C18.5298 16.7931 18.4519 16.8681 18.358 16.9203C18.2641 16.9725 18.1576 17 18.0492 17H6.28425C6.17586 17 6.06937 16.9725 5.9755 16.9203C5.88163 16.8681 5.80367 16.7931 5.74948 16.7027C5.69528 16.6123 5.66675 16.5098 5.66675 16.4054C5.66675 16.301 5.69528 16.1985 5.74948 16.1081L11.632 6.29727C11.6862 6.20689 11.7641 6.13183 11.858 6.07965C11.9519 6.02747 12.0584 6 12.1667 6C12.2751 6 12.3816 6.02747 12.4755 6.07965C12.5694 6.13183 12.6473 6.20689 12.7015 6.29727ZM11.5492 14.027V15.2162H12.7843V14.027H11.5492ZM11.5492 9.86485V12.8378H12.7843V9.86485H11.5492Z" fill="#FF3B30"/>
</g>
<defs>
<clipPath id="clip0_151_3391">
<rect width="24" height="24" fill="white" transform="translate(0.666748)"/>
</clipPath>
</defs>
</svg>
