<svg width="25" height="24" viewBox="0 0 25 24" fill="none" xmlns="http://www.w3.org/2000/svg">
<g clip-path="url(#clip0_154_3442)">
<path d="M12.332 0C7.18357 0 2.99951 4.18406 2.99951 9.33247C2.99951 12.4744 4.81934 15.103 6.9347 16.9384C7.60353 17.5139 8.77009 18.4316 9.81221 19.7848C10.9632 21.2936 12.0053 22.9112 12.332 24C12.6586 22.9112 13.7007 21.2936 14.8517 19.7848C15.8939 18.4316 17.0604 17.5139 17.7293 16.9384C19.8446 15.103 21.6644 12.4744 21.6644 9.33247C21.6644 4.18406 17.4804 0 12.332 0ZM12.332 3.98185C15.2873 3.98185 17.6826 6.37719 17.6826 9.33247C17.6826 12.2878 15.2873 14.6831 12.332 14.6831C9.3767 14.6831 6.98136 12.2878 6.98136 9.33247C6.98136 6.37719 9.3767 3.98185 12.332 3.98185Z" fill="#1D4380"/>
<g clip-path="url(#clip1_154_3442)">
<path d="M15.3302 6.97207L15.0152 6.35477C14.9493 6.22561 14.7912 6.17429 14.662 6.24021C14.5328 6.30612 14.4816 6.46427 14.5474 6.59345L14.762 7.01399C14.4186 7.12801 14.1701 7.45205 14.1701 7.83325V8.4772C14.1701 8.58596 14.2583 8.67415 14.3671 8.67415H14.8337V9.33387C14.8337 9.62672 14.5955 9.86496 14.3026 9.86496H13.983V6.48387C13.9829 6.21707 13.7659 6 13.4991 6H11.1769C10.8407 6 10.5672 6.27349 10.5672 6.60967V11.0402C10.355 11.0913 10.1968 11.2827 10.1968 11.5105V11.8031C10.1968 11.9118 10.2849 12 10.3937 12H14.1565C14.2653 12 14.3534 11.9118 14.3534 11.8031V11.5105C14.3534 11.2827 14.1952 11.0913 13.983 11.0402V10.3901H14.3026C14.885 10.3901 15.3589 9.91627 15.3589 9.33383V7.0914C15.3589 7.04991 15.349 7.00901 15.3302 6.97207ZM13.1503 7.96066H11.3999C11.3092 7.96066 11.2358 7.88719 11.2358 7.79654V6.83978C11.2358 6.74913 11.3092 6.67566 11.3999 6.67566H13.1503C13.241 6.67566 13.3144 6.74913 13.3144 6.83978V7.79655C13.3144 7.88719 13.241 7.96066 13.1503 7.96066Z" fill="#1D4380"/>
</g>
</g>
<defs>
<clipPath id="clip0_154_3442">
<rect width="24" height="24" fill="white" transform="translate(0.777832)"/>
</clipPath>
<clipPath id="clip1_154_3442">
<rect width="6" height="6" fill="white" transform="translate(9.77783 6)"/>
</clipPath>
</defs>
</svg>
