<svg width="25" height="26" viewBox="0 0 25 26" fill="none" xmlns="http://www.w3.org/2000/svg">
<mask id="mask0_106_3414" style="mask-type:alpha" maskUnits="userSpaceOnUse" x="0" y="0" width="25" height="26">
<rect y="0.115356" width="25" height="25" fill="#D9D9D9"/>
</mask>
<g mask="url(#mask0_106_3414)">
<path d="M2.08301 10.5321C2.08301 8.79597 2.46929 7.20309 3.24186 5.75344C4.01443 4.30379 5.05176 3.10153 6.35384 2.14667L7.5778 3.81333C6.53613 4.57722 5.70714 5.54077 5.09082 6.70396C4.4745 7.86715 4.16634 9.1432 4.16634 10.5321H2.08301ZM20.833 10.5321C20.833 9.1432 20.5248 7.86715 19.9085 6.70396C19.2922 5.54077 18.4632 4.57722 17.4215 3.81333L18.6455 2.14667C19.9476 3.10153 20.9849 4.30379 21.7575 5.75344C22.5301 7.20309 22.9163 8.79597 22.9163 10.5321H20.833ZM4.16634 19.9071V17.8238H6.24967V10.5321C6.24967 9.09111 6.6837 7.81073 7.55176 6.69094C8.41981 5.57115 9.54828 4.83764 10.9372 4.49042V3.76125C10.9372 3.32722 11.0891 2.9583 11.3929 2.65448C11.6967 2.35066 12.0656 2.19875 12.4997 2.19875C12.9337 2.19875 13.3026 2.35066 13.6064 2.65448C13.9103 2.9583 14.0622 3.32722 14.0622 3.76125V4.49042C15.4511 4.83764 16.5795 5.57115 17.4476 6.69094C18.3156 7.81073 18.7497 9.09111 18.7497 10.5321V17.8238H20.833V19.9071H4.16634ZM12.4997 23.0321C11.9268 23.0321 11.4363 22.8281 11.0283 22.4201C10.6203 22.0121 10.4163 21.5217 10.4163 20.9488H14.583C14.583 21.5217 14.379 22.0121 13.971 22.4201C13.563 22.8281 13.0726 23.0321 12.4997 23.0321ZM8.33301 17.8238H16.6663V10.5321C16.6663 9.38625 16.2584 8.40535 15.4424 7.58938C14.6264 6.7734 13.6455 6.36542 12.4997 6.36542C11.3538 6.36542 10.3729 6.7734 9.55696 7.58938C8.74099 8.40535 8.33301 9.38625 8.33301 10.5321V17.8238Z" fill="#FF3B30"/>
</g>
</svg>
