<svg width="22" height="30" viewBox="0 0 22 30" fill="none" xmlns="http://www.w3.org/2000/svg">
<path d="M11.0509 2.4164C9.83817 2.50781 8.77212 2.80078 7.7267 3.33047C6.96328 3.71484 6.43598 4.07812 5.77801 4.6664C4.22594 6.05625 3.15301 8.12344 2.91459 10.1977C2.89395 10.3687 2.86644 10.5961 2.85498 10.6992C2.80225 11.1328 2.84352 12.1312 2.93751 12.7266C3.1576 14.1117 3.6505 15.3633 4.42539 16.5C4.48959 16.5961 4.61568 16.7906 4.7005 16.9336C4.78533 17.0742 4.92059 17.2969 4.99854 17.4258C5.12234 17.6297 5.65651 18.5086 6.0279 19.125C6.09439 19.2352 6.24111 19.4766 6.35574 19.6641C6.46808 19.8516 6.6469 20.1469 6.75236 20.3203C6.85782 20.4937 7.05956 20.8266 7.19941 21.0586C7.33926 21.2906 7.64417 21.7922 7.87572 22.1719C8.10498 22.5516 8.40072 23.0367 8.5291 23.25C8.65749 23.4633 8.9945 24.0164 9.27648 24.4805C9.93445 25.5656 10.2233 26.0437 10.6268 26.707C10.8056 27.0023 11.0509 27.4102 11.1724 27.6094C11.459 28.0852 11.5874 28.2891 11.5989 28.2891C11.6034 28.2891 11.6562 28.207 11.7158 28.1062C11.7754 28.0078 11.8488 27.8883 11.8763 27.8437C11.9038 27.7992 11.9955 27.6516 12.0757 27.5156C12.1583 27.3797 12.321 27.1102 12.4379 26.918C12.5549 26.7234 12.8002 26.3203 12.9813 26.0203C13.261 25.5562 13.5682 25.0477 14.3981 23.6836C14.6113 23.3344 16.7755 19.7672 17.7682 18.1289C18.245 17.3414 18.7081 16.5891 18.7998 16.4531C19.0635 16.0594 19.2194 15.7875 19.4211 15.375C19.914 14.3648 20.1914 13.3922 20.3152 12.2367C20.3588 11.8219 20.3519 10.6922 20.3015 10.3242C20.1433 9.12656 19.8292 8.09766 19.3386 7.17188C19.1185 6.75703 19.0864 6.70078 18.8893 6.39844C17.6765 4.53516 15.8126 3.19453 13.6943 2.6625C13.3229 2.56875 13.222 2.55 12.7589 2.48672C12.1193 2.39766 11.5943 2.37422 11.0509 2.4164Z" fill="#107C41"/>
<ellipse cx="11.601" cy="10.9512" rx="6.9809" ry="7.13672" fill="white"/>
<g clip-path="url(#clip0_155_3488)">
<path d="M15.6568 8.25789C15.6568 6.95146 14.773 5.88867 13.6869 5.88867C12.6008 5.88867 11.717 6.95146 11.717 8.25789C11.717 9.42145 12.4187 10.3896 13.3393 10.5879V11.3379H13.0102C12.8183 11.3379 12.6668 11.497 12.6668 11.6933C12.6668 11.8047 12.6668 15.5419 12.6668 15.721C12.6668 16.3089 13.1304 16.7871 13.7055 16.7871C14.2806 16.7871 14.7523 16.3089 14.7523 15.721C14.7523 15.5362 14.7523 11.8035 14.7523 11.6933C14.7523 11.497 14.5926 11.3379 14.4007 11.3379H14.0322V10.5879C14.9529 10.3896 15.6568 9.42145 15.6568 8.25789ZM14.0572 12.0487V12.7594H13.362V12.0487H14.0572Z" fill="#107C41"/>
<path d="M10.8355 5.92963C10.7875 5.90357 10.7328 5.88867 10.6743 5.88867C10.6742 5.88867 10.6741 5.88867 10.6741 5.88867C10.674 5.88867 10.6739 5.88867 10.6738 5.88867C10.4819 5.88867 10.3262 6.04778 10.3262 6.24406V8.25791H9.62916V6.24406C9.62916 6.04774 9.47575 5.88867 9.28384 5.88867C9.09193 5.88867 8.93621 6.04774 8.93621 6.24406V8.25791H8.23866V6.24406C8.23866 6.04774 8.08527 5.88867 7.89336 5.88867C7.70145 5.88867 7.54573 6.04774 7.54573 6.24406L7.54517 8.85019C7.54517 9.70985 8.14232 10.4268 8.93567 10.5915V11.3379H8.58804C8.39613 11.3379 8.24041 11.497 8.24041 11.6933C8.24041 11.8047 8.24041 15.5419 8.24041 15.721C8.24041 16.3089 8.70822 16.7871 9.28328 16.7871C9.85834 16.7871 10.3262 16.3089 10.3262 15.721C10.3262 15.5362 10.3262 11.8035 10.3262 11.6933C10.3262 11.497 10.1704 11.3379 9.97852 11.3379H9.63091V10.5915C10.4243 10.4269 11.0214 9.70985 11.0214 8.85022V6.24406C11.0214 6.10753 10.946 5.98914 10.8355 5.92963ZM9.63091 12.7594H8.93567V12.0487H9.63091V12.7594Z" fill="#107C41"/>
</g>
<defs>
<clipPath id="clip0_155_3488">
<rect width="10.6605" height="10.8984" fill="white" transform="translate(6.27075 5.88867)"/>
</clipPath>
</defs>
</svg>
