<svg width="25" height="24" viewBox="0 0 25 24" fill="none" xmlns="http://www.w3.org/2000/svg">
<path d="M21.8536 18.8719C21.0664 18.4522 20.5437 18.7612 20.5437 18.7612C20.0029 19.08 19.1078 19.0991 18.5517 18.8029L14.2617 16.5187L18.5513 14.2342C19.1071 13.9391 20.0029 13.9579 20.5433 14.2762C20.5433 14.2762 21.0664 14.5845 21.8532 14.1656C22.6834 13.7231 22.9688 12.7436 22.4888 11.9764L22.3298 11.7236C22.0677 11.5406 21.8194 11.1435 21.7782 10.8412L21.6196 10.5885C21.1399 9.82199 20.0776 9.55986 19.2462 10.0024C18.4591 10.4209 18.4883 10.9931 18.4883 10.9931C18.5168 11.5845 18.0871 12.3097 17.5317 12.6049L12.2221 15.4324L6.91169 12.6049C6.35669 12.3097 5.92619 11.5845 5.95544 10.9931C5.95544 10.9931 5.98431 10.4212 5.19756 10.0024C4.36619 9.55986 3.30344 9.82236 2.82381 10.5885L2.66556 10.8412C2.62431 11.1435 2.37644 11.5402 2.11319 11.7236L1.95531 11.9764C1.47531 12.7436 1.76031 13.7231 2.59131 14.1656C3.37769 14.5849 3.90081 14.2762 3.90081 14.2762C4.44081 13.9575 5.33706 13.9391 5.89206 14.2342L10.1824 16.5187L5.89206 18.8032C5.33706 19.0995 4.44081 19.08 3.90081 18.7616C3.90081 18.7616 3.37769 18.4526 2.59131 18.8722C1.76069 19.3144 1.47531 20.295 1.95531 21.0611L2.11319 21.3139C2.37606 21.4972 2.62431 21.8944 2.66556 22.1966L2.82381 22.4494C3.30306 23.2155 4.36619 23.4784 5.19756 23.0355C5.98469 22.6166 5.95544 22.0444 5.95544 22.0444C5.92619 21.4541 6.35669 20.7281 6.91169 20.433L12.2221 17.6051L17.5321 20.4326C18.0871 20.7277 18.5172 21.4537 18.4887 22.044C18.4887 22.044 18.4598 22.6159 19.2466 23.0351C20.0779 23.478 21.1403 23.2147 21.6199 22.449L21.7786 22.1962C21.8194 21.894 22.0677 21.4972 22.3302 21.3135L22.4892 21.0607C22.9688 20.2946 22.6834 19.314 21.8536 18.8719Z" fill="#FF3B30"/>
<path d="M15.2856 2.61655C15.1866 2.61655 15.0904 2.62883 14.9985 2.65196V2.31936C14.9985 1.67197 14.4718 1.14529 13.8244 1.14529C13.5832 1.14529 13.3589 1.21848 13.1721 1.34359C12.9613 1.14308 12.6766 1.01999 12.3635 1.01999C11.8281 1.01999 11.3754 1.38011 11.2347 1.87081C11.1112 1.82659 10.9784 1.80257 10.8399 1.80257C10.1925 1.80257 9.66585 2.32925 9.66585 2.97664V4.92157C9.52532 4.86692 9.37269 4.83682 9.21308 4.83682C8.52332 4.83682 7.96216 5.39782 7.96216 6.08758V8.42418C7.96216 9.90775 8.86509 12.7752 12.282 13.0097C12.3822 13.0165 12.4833 13.02 12.5823 13.02C14.7202 13.02 16.4597 11.3236 16.4597 9.23833V3.79062C16.4597 3.14323 15.933 2.61655 15.2856 2.61655ZM12.5823 12.3625C12.4983 12.3625 12.4133 12.3595 12.3269 12.3537C9.17087 12.1372 8.61963 9.38488 8.61963 8.42416V6.08756C8.61963 5.75993 8.88543 5.49429 9.21306 5.49429C9.54072 5.49429 9.80652 5.75993 9.80652 6.08756V7.89217H10.3233V2.97666C10.3233 2.69138 10.5546 2.46006 10.8399 2.46006C11.1252 2.46006 11.3565 2.69138 11.3565 2.97666V6.56163H11.8469V2.19406C11.8469 1.90878 12.0782 1.67748 12.3635 1.67748C12.6487 1.67748 12.8801 1.90881 12.8801 2.19406V6.56163H13.3079V2.31936C13.3079 2.03408 13.5392 1.80278 13.8245 1.80278C14.1097 1.80278 14.3411 2.0341 14.3411 2.31936V6.56163H14.769V3.79062C14.769 3.50534 15.0004 3.27401 15.2856 3.27401C15.5709 3.27401 15.8022 3.50534 15.8022 3.79062V9.23833C15.8022 10.8578 14.4948 12.3625 12.5823 12.3625Z" fill="#FF3B30"/>
<path d="M9.24321 20.58C9.42321 20.58 9.58121 20.611 9.71721 20.673C9.85321 20.735 9.96921 20.827 10.0652 20.949L9.83421 21.216C9.75221 21.112 9.66221 21.036 9.56421 20.988C9.46821 20.938 9.35621 20.913 9.22821 20.913C9.14421 20.913 9.07421 20.924 9.01821 20.946C8.96421 20.968 8.92421 20.997 8.89821 21.033C8.87421 21.069 8.86221 21.109 8.86221 21.153C8.86221 21.207 8.88321 21.253 8.92521 21.291C8.96721 21.327 9.03921 21.357 9.14121 21.381L9.51021 21.465C9.70621 21.509 9.84621 21.575 9.93021 21.663C10.0162 21.749 10.0592 21.861 10.0592 21.999C10.0592 22.129 10.0252 22.241 9.95721 22.335C9.88921 22.427 9.79421 22.498 9.67221 22.548C9.55021 22.596 9.41021 22.62 9.25221 22.62C9.11421 22.62 8.98721 22.604 8.87121 22.572C8.75721 22.538 8.65521 22.492 8.56521 22.434C8.47521 22.376 8.40021 22.309 8.34021 22.233L8.57421 21.954C8.62021 22.018 8.67721 22.075 8.74521 22.125C8.81321 22.175 8.89021 22.215 8.97621 22.245C9.06421 22.273 9.15621 22.287 9.25221 22.287C9.33421 22.287 9.40321 22.278 9.45921 22.26C9.51721 22.24 9.56021 22.213 9.58821 22.179C9.61821 22.143 9.63321 22.1 9.63321 22.05C9.63321 21.998 9.61521 21.954 9.57921 21.918C9.54521 21.88 9.48121 21.851 9.38721 21.831L8.98521 21.741C8.86921 21.713 8.76921 21.677 8.68521 21.633C8.60321 21.587 8.54021 21.529 8.49621 21.459C8.45421 21.387 8.43321 21.302 8.43321 21.204C8.43321 21.086 8.46521 20.98 8.52921 20.886C8.59321 20.792 8.68521 20.718 8.80521 20.664C8.92721 20.608 9.07321 20.58 9.24321 20.58ZM11.9612 20.61V20.943H11.2982V22.59H10.8842V20.943H10.2182V20.61H11.9612ZM13.0783 20.58C13.2743 20.58 13.4433 20.621 13.5853 20.703C13.7273 20.785 13.8363 20.902 13.9123 21.054C13.9903 21.206 14.0293 21.388 14.0293 21.6C14.0293 21.812 13.9903 21.994 13.9123 22.146C13.8363 22.298 13.7273 22.415 13.5853 22.497C13.4433 22.579 13.2743 22.62 13.0783 22.62C12.8823 22.62 12.7123 22.579 12.5683 22.497C12.4263 22.415 12.3163 22.298 12.2383 22.146C12.1623 21.994 12.1243 21.812 12.1243 21.6C12.1243 21.388 12.1623 21.206 12.2383 21.054C12.3163 20.902 12.4263 20.785 12.5683 20.703C12.7123 20.621 12.8823 20.58 13.0783 20.58ZM13.0783 20.919C12.9663 20.919 12.8713 20.945 12.7933 20.997C12.7153 21.049 12.6553 21.126 12.6133 21.228C12.5733 21.328 12.5533 21.452 12.5533 21.6C12.5533 21.746 12.5733 21.87 12.6133 21.972C12.6553 22.074 12.7153 22.151 12.7933 22.203C12.8713 22.255 12.9663 22.281 13.0783 22.281C13.1883 22.281 13.2823 22.255 13.3603 22.203C13.4383 22.151 13.4973 22.074 13.5373 21.972C13.5793 21.87 13.6003 21.746 13.6003 21.6C13.6003 21.452 13.5793 21.328 13.5373 21.228C13.4973 21.126 13.4383 21.049 13.3603 20.997C13.2823 20.945 13.1883 20.919 13.0783 20.919ZM15.278 20.61C15.43 20.61 15.56 20.636 15.668 20.688C15.776 20.738 15.859 20.811 15.917 20.907C15.977 21.001 16.007 21.115 16.007 21.249C16.007 21.383 15.977 21.498 15.917 21.594C15.859 21.688 15.776 21.761 15.668 21.813C15.56 21.863 15.43 21.888 15.278 21.888H14.861V22.59H14.447V20.61H15.278ZM15.215 21.561C15.339 21.561 15.432 21.535 15.494 21.483C15.556 21.429 15.587 21.351 15.587 21.249C15.587 21.145 15.556 21.067 15.494 21.015C15.432 20.963 15.339 20.937 15.215 20.937H14.861V21.561H15.215Z" fill="#FF3B30"/>
</svg>
