<svg width="25" height="24" viewBox="0 0 25 24" fill="none" xmlns="http://www.w3.org/2000/svg">
<path d="M21.7425 18.8719C20.9554 18.4522 20.4326 18.7612 20.4326 18.7612C19.8919 19.08 18.9967 19.0991 18.4406 18.8029L14.1506 16.5187L18.4402 14.2342C18.996 13.9391 19.8919 13.9579 20.4322 14.2762C20.4322 14.2762 20.9554 14.5845 21.7421 14.1656C22.5724 13.7231 22.8577 12.7436 22.3777 11.9764L22.2187 11.7236C21.9566 11.5406 21.7084 11.1435 21.6671 10.8412L21.5085 10.5885C21.0289 9.82199 19.9665 9.55986 19.1351 10.0024C18.348 10.4209 18.3772 10.9931 18.3772 10.9931C18.4057 11.5845 17.976 12.3097 17.4206 12.6049L12.111 15.4324L6.80061 12.6049C6.2456 12.3097 5.8151 11.5845 5.84435 10.9931C5.84435 10.9931 5.87323 10.4212 5.08648 10.0024C4.2551 9.55986 3.19235 9.82236 2.71273 10.5885L2.55448 10.8412C2.51323 11.1435 2.26535 11.5402 2.0021 11.7236L1.84423 11.9764C1.36423 12.7436 1.64923 13.7231 2.48023 14.1656C3.2666 14.5849 3.78973 14.2762 3.78973 14.2762C4.32973 13.9575 5.22598 13.9391 5.78098 14.2342L10.0714 16.5187L5.78098 18.8032C5.22598 19.0995 4.32973 19.08 3.78973 18.7616C3.78973 18.7616 3.2666 18.4526 2.48023 18.8722C1.6496 19.3144 1.36423 20.295 1.84423 21.0611L2.0021 21.3139C2.26498 21.4972 2.51323 21.8944 2.55448 22.1966L2.71273 22.4494C3.19198 23.2155 4.2551 23.4784 5.08648 23.0355C5.8736 22.6166 5.84435 22.0444 5.84435 22.0444C5.8151 21.4541 6.2456 20.7281 6.80061 20.433L12.111 17.6051L17.421 20.4326C17.976 20.7277 18.4061 21.4537 18.3776 22.044C18.3776 22.044 18.3487 22.6159 19.1355 23.0351C19.9669 23.478 21.0292 23.2147 21.5089 22.449L21.6675 22.1962C21.7084 21.894 21.9566 21.4972 22.2191 21.3135L22.3781 21.0607C22.8577 20.2946 22.5724 19.314 21.7425 18.8719Z" fill="#1D4380"/>
<path d="M15.1745 2.61655C15.0755 2.61655 14.9793 2.62883 14.8874 2.65196V2.31936C14.8874 1.67197 14.3608 1.14529 13.7134 1.14529C13.4721 1.14529 13.2478 1.21848 13.061 1.34359C12.8502 1.14308 12.5655 1.01999 12.2524 1.01999C11.7171 1.01999 11.2643 1.38011 11.1236 1.87081C11.0002 1.82659 10.8673 1.80257 10.7288 1.80257C10.0815 1.80257 9.55476 2.32925 9.55476 2.97664V4.92157C9.41423 4.86692 9.26161 4.83682 9.102 4.83682C8.41224 4.83682 7.85107 5.39782 7.85107 6.08758V8.42418C7.85107 9.90775 8.754 12.7752 12.1709 13.0097C12.2711 13.0165 12.3722 13.02 12.4712 13.02C14.6092 13.02 16.3486 11.3236 16.3486 9.23833V3.79062C16.3486 3.14323 15.8219 2.61655 15.1745 2.61655ZM12.4712 12.3625C12.3872 12.3625 12.3023 12.3595 12.2159 12.3537C9.05979 12.1372 8.50854 9.38488 8.50854 8.42416V6.08756C8.50854 5.75993 8.77435 5.49429 9.10198 5.49429C9.42963 5.49429 9.69544 5.75993 9.69544 6.08756V7.89217H10.2122V2.97666C10.2122 2.69138 10.4436 2.46006 10.7288 2.46006C11.0141 2.46006 11.2454 2.69138 11.2454 2.97666V6.56163H11.7358V2.19406C11.7358 1.90878 11.9671 1.67748 12.2524 1.67748C12.5376 1.67748 12.769 1.90881 12.769 2.19406V6.56163H13.1968V2.31936C13.1968 2.03408 13.4281 1.80278 13.7134 1.80278C13.9986 1.80278 14.23 2.0341 14.23 2.31936V6.56163H14.658V3.79062C14.658 3.50534 14.8893 3.27401 15.1745 3.27401C15.4598 3.27401 15.6912 3.50534 15.6912 3.79062V9.23833C15.6911 10.8578 14.3837 12.3625 12.4712 12.3625Z" fill="#1D4380"/>
<path d="M9.13212 20.58C9.31212 20.58 9.47012 20.611 9.60612 20.673C9.74212 20.735 9.85812 20.827 9.95412 20.949L9.72312 21.216C9.64112 21.112 9.55112 21.036 9.45312 20.988C9.35712 20.938 9.24512 20.913 9.11712 20.913C9.03312 20.913 8.96312 20.924 8.90712 20.946C8.85312 20.968 8.81312 20.997 8.78712 21.033C8.76312 21.069 8.75112 21.109 8.75112 21.153C8.75112 21.207 8.77212 21.253 8.81412 21.291C8.85612 21.327 8.92812 21.357 9.03012 21.381L9.39912 21.465C9.59512 21.509 9.73512 21.575 9.81912 21.663C9.90512 21.749 9.94812 21.861 9.94812 21.999C9.94812 22.129 9.91412 22.241 9.84612 22.335C9.77812 22.427 9.68312 22.498 9.56112 22.548C9.43912 22.596 9.29912 22.62 9.14112 22.62C9.00312 22.62 8.87612 22.604 8.76012 22.572C8.64612 22.538 8.54412 22.492 8.45412 22.434C8.36412 22.376 8.28912 22.309 8.22912 22.233L8.46312 21.954C8.50912 22.018 8.56612 22.075 8.63412 22.125C8.70212 22.175 8.77912 22.215 8.86512 22.245C8.95312 22.273 9.04512 22.287 9.14112 22.287C9.22312 22.287 9.29212 22.278 9.34812 22.26C9.40612 22.24 9.44912 22.213 9.47712 22.179C9.50712 22.143 9.52212 22.1 9.52212 22.05C9.52212 21.998 9.50412 21.954 9.46812 21.918C9.43412 21.88 9.37012 21.851 9.27612 21.831L8.87412 21.741C8.75812 21.713 8.65812 21.677 8.57412 21.633C8.49212 21.587 8.42912 21.529 8.38512 21.459C8.34312 21.387 8.32212 21.302 8.32212 21.204C8.32212 21.086 8.35412 20.98 8.41812 20.886C8.48212 20.792 8.57412 20.718 8.69412 20.664C8.81612 20.608 8.96212 20.58 9.13212 20.58ZM11.8501 20.61V20.943H11.1871V22.59H10.7731V20.943H10.1071V20.61H11.8501ZM12.9672 20.58C13.1632 20.58 13.3322 20.621 13.4742 20.703C13.6162 20.785 13.7252 20.902 13.8012 21.054C13.8792 21.206 13.9182 21.388 13.9182 21.6C13.9182 21.812 13.8792 21.994 13.8012 22.146C13.7252 22.298 13.6162 22.415 13.4742 22.497C13.3322 22.579 13.1632 22.62 12.9672 22.62C12.7712 22.62 12.6012 22.579 12.4572 22.497C12.3152 22.415 12.2052 22.298 12.1272 22.146C12.0512 21.994 12.0132 21.812 12.0132 21.6C12.0132 21.388 12.0512 21.206 12.1272 21.054C12.2052 20.902 12.3152 20.785 12.4572 20.703C12.6012 20.621 12.7712 20.58 12.9672 20.58ZM12.9672 20.919C12.8552 20.919 12.7602 20.945 12.6822 20.997C12.6042 21.049 12.5442 21.126 12.5022 21.228C12.4622 21.328 12.4422 21.452 12.4422 21.6C12.4422 21.746 12.4622 21.87 12.5022 21.972C12.5442 22.074 12.6042 22.151 12.6822 22.203C12.7602 22.255 12.8552 22.281 12.9672 22.281C13.0772 22.281 13.1712 22.255 13.2492 22.203C13.3272 22.151 13.3862 22.074 13.4262 21.972C13.4682 21.87 13.4892 21.746 13.4892 21.6C13.4892 21.452 13.4682 21.328 13.4262 21.228C13.3862 21.126 13.3272 21.049 13.2492 20.997C13.1712 20.945 13.0772 20.919 12.9672 20.919ZM15.1669 20.61C15.3189 20.61 15.4489 20.636 15.5569 20.688C15.6649 20.738 15.7479 20.811 15.8059 20.907C15.8659 21.001 15.8959 21.115 15.8959 21.249C15.8959 21.383 15.8659 21.498 15.8059 21.594C15.7479 21.688 15.6649 21.761 15.5569 21.813C15.4489 21.863 15.3189 21.888 15.1669 21.888H14.7499V22.59H14.3359V20.61H15.1669ZM15.1039 21.561C15.2279 21.561 15.3209 21.535 15.3829 21.483C15.4449 21.429 15.4759 21.351 15.4759 21.249C15.4759 21.145 15.4449 21.067 15.3829 21.015C15.3209 20.963 15.2279 20.937 15.1039 20.937H14.7499V21.561H15.1039Z" fill="#1D4380"/>
</svg>
