<svg width="25" height="24" viewBox="0 0 25 24" fill="none" xmlns="http://www.w3.org/2000/svg">
<g clip-path="url(#clip0_151_3418)">
<path d="M15.1695 14.2516H17.1435V11.3235C17.1435 10.8374 16.7359 10.442 16.2348 10.442H15.8476H14.4814H12.668V12.2354H13.5931C13.618 12.2354 13.6405 12.2426 13.6632 12.2491C13.7413 12.1314 13.8768 12.053 14.0317 12.053C14.274 12.053 14.4704 12.2435 14.4704 12.4786C14.4704 12.7136 14.274 12.9041 14.0317 12.9041C13.8767 12.9041 13.7412 12.8257 13.6632 12.708C13.6405 12.7145 13.618 12.7217 13.5931 12.7217H12.4174C12.2788 12.7217 12.1667 12.6128 12.1667 12.4785V10.442H10.3555H8.98693H8.46431C7.96323 10.442 7.55566 10.8374 7.55566 11.3235V14.049H9.27896V13.1516C9.27896 13.1275 9.28636 13.1056 9.29311 13.0836C9.17179 13.0079 9.09096 12.8765 9.09096 12.7261C9.09096 12.4911 9.28736 12.3006 9.52962 12.3006C9.77188 12.3006 9.96828 12.4911 9.96828 12.7261C9.96828 12.8765 9.88745 13.0079 9.76613 13.0836C9.77288 13.1056 9.78028 13.1275 9.78028 13.1516V14.2922C9.78028 14.4265 9.66817 14.5354 9.52962 14.5354H7.55566V17.3419C7.55566 17.828 7.96323 18.2233 8.46431 18.2233H11.9579V16.5516H11.0329C11.008 16.5516 10.9854 16.5444 10.9627 16.5378C10.8847 16.6555 10.7492 16.734 10.5942 16.734C10.3519 16.734 10.1556 16.5434 10.1556 16.3084C10.1556 16.0734 10.3519 15.8829 10.5942 15.8829C10.7492 15.8829 10.8847 15.9613 10.9627 16.079C10.9854 16.0724 11.008 16.0652 11.0329 16.0652H12.2086C12.3471 16.0652 12.4592 16.1741 12.4592 16.3084V18.2233H16.2348C16.7359 18.2233 17.1435 17.828 17.1435 17.3419V14.7379H15.4202V15.6353C15.4202 15.6595 15.4128 15.6814 15.406 15.7034C15.5273 15.7791 15.6082 15.9105 15.6082 16.0608C15.6082 16.2959 15.4118 16.4864 15.1695 16.4864C14.9272 16.4864 14.7308 16.2959 14.7308 16.0608C14.7308 15.9105 14.8117 15.7791 14.933 15.7034C14.9263 15.6814 14.9188 15.6595 14.9188 15.6353V14.4948C14.9188 14.3605 15.0309 14.2516 15.1695 14.2516ZM12.3496 15.4269C11.7266 15.4269 11.2216 14.937 11.2216 14.3327C11.2216 13.7284 11.7266 13.2384 12.3496 13.2384C12.9725 13.2384 13.4775 13.7284 13.4775 14.3327C13.4775 14.937 12.9725 15.4269 12.3496 15.4269Z" fill="#D92D27"/>
<path d="M10.1048 8.08577C10.1048 6.84821 11.1427 5.84135 12.4185 5.84135C13.6941 5.84135 14.732 6.84821 14.732 8.08577V9.9557H15.5969V8.08577C15.5969 7.26247 15.2666 6.48738 14.6672 5.90344C14.0667 5.32094 13.268 5 12.4185 5C10.6647 5 9.23755 6.38432 9.23755 8.08577V9.9557H10.1048V8.08577Z" fill="#D92D27"/>
<path d="M12.5292 4.90479e-08C15.5021 -0.000268872 18.3687 1.10531 20.5716 3.10167C22.7744 5.09803 24.1559 7.84242 24.4472 10.801C24.7386 13.7595 23.9191 16.7207 22.148 19.1084C20.3769 21.4961 17.781 23.1397 14.8652 23.7194C11.9494 24.299 8.92223 23.7734 6.37255 22.2446C3.82287 20.7159 1.93301 18.2934 1.0706 15.4484C0.208193 12.6033 0.434904 9.53924 1.70663 6.85212C2.97836 4.165 5.20417 2.04701 7.95107 0.910156C9.40261 0.309304 10.9582 4.02902e-05 12.5292 4.90479e-08ZM20.3886 6.43164L6.96084 19.8594C8.29065 20.7986 9.83636 21.3864 11.4543 21.5681C13.0722 21.7498 14.7097 21.5194 16.2147 20.8984C18.5727 19.9165 20.4466 18.0419 21.4276 15.6836C21.9113 14.5159 22.1589 13.2639 22.1562 12C22.1609 10.0042 21.5408 8.05705 20.3827 6.43164H20.3886ZM5.2167 18.2617L18.7909 4.6875C16.9459 3.13075 14.5837 2.32346 12.1719 2.42545C9.76003 2.52744 7.47439 3.53128 5.76743 5.23823C4.06048 6.94519 3.05664 9.23083 2.95465 11.6427C2.85266 14.0545 3.65995 16.4167 5.2167 18.2617Z" fill="#FF3B30"/>
</g>
<defs>
<clipPath id="clip0_151_3418">
<rect width="24" height="24" fill="white" transform="translate(0.555664)"/>
</clipPath>
</defs>
</svg>
