<svg xmlns="http://www.w3.org/2000/svg" width="29" height="29" fill="none"><path stroke="#1D4380" stroke-linecap="round" stroke-linejoin="round" stroke-width="1.5" d="M10.743 24.885a1.914 1.914 0 1 0 0-3.828 1.914 1.914 0 0 0 0 3.828M19.08 24.885a1.914 1.914 0 1 0 0-3.828 1.914 1.914 0 0 0 0 3.828M6.307 7.79l2.261 7.16c.348 1.1.52 1.65.855 2.058.293.36.674.637 1.105.81.49.194 1.065.194 2.22.194h4.336c1.154 0 1.73 0 2.219-.194.432-.173.812-.45 1.106-.81.333-.408.506-.958.855-2.058l.46-1.458.27-.862.372-1.181a2.813 2.813 0 0 0-2.682-3.659zm0 0-.013-.041a8 8 0 0 0-.157-.473 3.29 3.29 0 0 0-2.826-2.07c-.116-.009-.243-.009-.498-.009"/><circle cx="22.417" cy="6.417" r="4.917" fill="#fff" stroke="#fff"/><path fill="#1D4380" fill-rule="evenodd" d="M27.916 6.5a5.417 5.417 0 1 1-10.833 0 5.417 5.417 0 0 1 10.833 0m-3.233-1.641a.406.406 0 0 1 0 .574L21.974 8.14a.406.406 0 0 1-.574 0l-1.083-1.083a.405.405 0 1 1 .574-.574l.796.796 1.21-1.21 1.211-1.211a.406.406 0 0 1 .575 0" clip-rule="evenodd"/></svg>