<svg xmlns="http://www.w3.org/2000/svg" width="28" height="25" fill="none"><path stroke="#34C759" stroke-linecap="round" stroke-linejoin="round" stroke-width="1.5" d="M8.68 23.688a1.914 1.914 0 1 0 0-3.828 1.914 1.914 0 0 0 0 3.828M17.017 23.688a1.914 1.914 0 1 0 0-3.828 1.914 1.914 0 0 0 0 3.828M4.244 6.593l2.262 7.16c.347 1.1.52 1.65.854 2.057.293.36.674.638 1.105.81.49.195 1.066.195 2.22.195h4.337c1.154 0 1.73 0 2.218-.195.432-.172.813-.45 1.106-.81.333-.407.506-.957.855-2.057l.46-1.458.27-.862.373-1.181a2.812 2.812 0 0 0-2.682-3.659zm0 0-.012-.042a8 8 0 0 0-.158-.472 3.29 3.29 0 0 0-2.826-2.07C1.133 4 1.005 4 .75 4"/><circle cx="21.75" cy="6" r="4.5" fill="#fff" stroke="#fff"/><path fill="#34C759" fill-rule="evenodd" d="M26.75 6a5 5 0 1 1-10 0 5 5 0 0 1 10 0m-2.985-1.515a.375.375 0 0 1 0 .53l-2.5 2.5a.375.375 0 0 1-.53 0l-1-1a.376.376 0 1 1 .53-.53L21 6.72l1.117-1.117 1.118-1.118a.375.375 0 0 1 .53 0" clip-rule="evenodd"/></svg>