<svg xmlns="http://www.w3.org/2000/svg" width="30" height="30" fill="none"><path stroke="#FF383C" stroke-linecap="round" stroke-linejoin="round" stroke-width="1.5" d="M8.68 28.688a1.914 1.914 0 1 0 0-3.828 1.914 1.914 0 0 0 0 3.828M17.017 28.688a1.914 1.914 0 1 0 0-3.828 1.914 1.914 0 0 0 0 3.828M4.244 11.593l2.262 7.16c.347 1.1.52 1.65.854 2.057.293.36.674.638 1.105.81.49.195 1.066.195 2.22.195h4.337c1.154 0 1.73 0 2.218-.195.432-.172.813-.45 1.106-.81.333-.407.506-.957.855-2.057l.46-1.458.27-.862.373-1.181a2.813 2.813 0 0 0-2.682-3.659zm0 0-.012-.041q-.071-.24-.158-.473a3.29 3.29 0 0 0-2.826-2.07C1.133 9 1.005 9 .75 9"/><g clip-path="url(#a)"><circle cx="21.235" cy="9.318" r="6.318" fill="#fff" stroke="#fff"/><path fill="#FF383C" d="m20.917 9.923 2.705 2.705a.42.42 0 0 0 .287.125.39.39 0 0 0 .303-.125.4.4 0 0 0 .133-.295.4.4 0 0 0-.133-.295l-2.705-2.705 2.705-2.705a.42.42 0 0 0 .125-.286.4.4 0 0 0-.125-.304.4.4 0 0 0-.295-.133.4.4 0 0 0-.295.133l-2.705 2.705-2.705-2.705a.42.42 0 0 0-.287-.125.4.4 0 0 0-.303.125.4.4 0 0 0-.133.295.4.4 0 0 0 .133.295l2.705 2.705-2.705 2.705a.42.42 0 0 0-.125.288.39.39 0 0 0 .125.302.4.4 0 0 0 .295.134.4.4 0 0 0 .295-.134zm.002 6.91a7.3 7.3 0 0 1-2.925-.59 7.6 7.6 0 0 1-2.382-1.603 7.6 7.6 0 0 1-1.604-2.38 7.3 7.3 0 0 1-.591-2.924q0-1.557.59-2.925a7.6 7.6 0 0 1 1.602-2.383 7.55 7.55 0 0 1 2.38-1.604 7.3 7.3 0 0 1 2.925-.59q1.555 0 2.925.59a7.6 7.6 0 0 1 2.383 1.602 7.6 7.6 0 0 1 1.604 2.38q.591 1.37.591 2.925a7.3 7.3 0 0 1-.59 2.925 7.6 7.6 0 0 1-1.603 2.382 7.6 7.6 0 0 1-2.38 1.604 7.3 7.3 0 0 1-2.925.591"/></g><defs><clipPath id="a"><path fill="#fff" d="M11.75 0h18v18h-18z"/></clipPath></defs></svg>