<svg xmlns="http://www.w3.org/2000/svg" width="27" height="27" fill="none"><g clip-path="url(#a)"><path stroke="#FDB92A" stroke-linecap="round" stroke-linejoin="round" stroke-width="1.5" d="M10.743 23.344a1.914 1.914 0 1 0 0-3.828 1.914 1.914 0 0 0 0 3.828M19.08 23.344a1.914 1.914 0 1 0 0-3.828 1.914 1.914 0 0 0 0 3.828M6.307 6.25l2.261 7.159c.348 1.1.52 1.65.855 2.057.293.36.674.638 1.105.81.49.195 1.065.195 2.22.195h4.336c1.154 0 1.73 0 2.219-.195.432-.172.812-.45 1.106-.81.333-.407.506-.957.855-2.057l.46-1.458.27-.862.372-1.181a2.813 2.813 0 0 0-2.682-3.659zm0 0-.013-.042a8 8 0 0 0-.157-.473 3.29 3.29 0 0 0-2.826-2.07c-.116-.009-.243-.009-.498-.009"/><circle cx="20.585" cy="5.585" r="5.585" fill="#FDB92A"/><g clip-path="url(#b)"><path fill="#fff" d="M20.947 8.521a.27.27 0 0 1 .294.357.27.27 0 0 1-.222.176 3.8 3.8 0 0 1-.717.021 3.56 3.56 0 0 1-2.264-1.01 3.43 3.43 0 0 1 0-4.914 3.57 3.57 0 0 1 2.505-1.018 3.6 3.6 0 0 1 1.727.441l-.07-.18a.29.29 0 0 1 .172-.375.3.3 0 0 1 .383.169l.296.757q.016.045.019.09a.29.29 0 0 1-.207.324l-.79.237a.297.297 0 0 1-.37-.193.29.29 0 0 1 .198-.362l.065-.02a3 3 0 0 0-1.423-.35c-.827 0-1.576.328-2.118.86a2.9 2.9 0 0 0 0 4.155 3 3 0 0 0 1.887.851c.21.016.427.01.635-.016m-.946-4.326c0-.149.122-.269.274-.269.15 0 .273.12.273.269v1.634l1.141.492c.138.06.201.218.14.354a.276.276 0 0 1-.36.137l-1.29-.556A.27.27 0 0 1 20 6.004zm1.9 4.04a.267.267 0 0 0 .047.497q.104.029.201-.019.266-.132.505-.304a.27.27 0 0 0 .11-.241.275.275 0 0 0-.436-.19 3 3 0 0 1-.427.256m1.117-.963c-.124.182.016.427.24.418a.27.27 0 0 0 .215-.119q.166-.241.289-.507a.27.27 0 0 0-.24-.38.27.27 0 0 0-.26.158q-.103.225-.244.43m.503-1.378a.27.27 0 0 0 .136.258.275.275 0 0 0 .41-.207q.027-.29.008-.58a.27.27 0 0 0-.147-.22c-.19-.096-.415.048-.4.257q.018.247-.006.492m-.226-1.444a.276.276 0 0 0 .366.138.266.266 0 0 0 .137-.35 3.5 3.5 0 0 0-.278-.513c-.134-.203-.45-.144-.499.093q-.02.107.038.197.137.208.236.435"/></g></g><defs><clipPath id="a"><path fill="#fff" d="M0 0h27v27H0z"/></clipPath><clipPath id="b"><path fill="#fff" d="M17 2h7.083v7.083H17z"/></clipPath></defs></svg>