<svg width="24" height="23" viewBox="0 0 24 23" fill="none" xmlns="http://www.w3.org/2000/svg">
<path d="M6.01491 7.44081H6.44795V7.00777V5.49579C6.44795 4.39894 6.85672 3.35219 7.57639 2.58457C8.29518 1.81789 9.26388 1.39288 10.2676 1.39288H13.1026C14.1063 1.39288 15.075 1.81789 15.7938 2.58457C16.5135 3.35219 16.9223 4.39894 16.9223 5.49579V7.00777V7.44081H17.3553H20.1904C20.8181 7.44081 21.4262 7.70653 21.8792 8.18965C22.333 8.67372 22.5924 9.3359 22.5924 10.0317V21.4321C22.5924 22.0588 22.0844 22.5668 21.4578 22.5668H17.7915H15.1727H12.0301H9.4113H6.26874H2.48245C1.6247 22.5668 0.926369 21.8772 0.915611 21.0195L0.777765 10.0291C0.778414 9.33424 1.03775 8.67311 1.49102 8.18965C1.94396 7.70653 2.5521 7.44081 3.17982 7.44081H6.01491ZM14.5202 7.44081H14.9532V7.00777V5.49579C14.9532 4.98863 14.7646 4.49707 14.4209 4.13048C14.0763 3.76294 13.6028 3.55077 13.1026 3.55077H10.2676C9.76741 3.55077 9.29387 3.76294 8.94929 4.13048C8.6056 4.49707 8.41697 4.98863 8.41697 5.49579V7.00777V7.44081H8.85001H14.5202ZM10.3668 11.6904C10.0231 12.057 9.83452 12.5485 9.83452 13.0557C9.83452 13.5629 10.0231 14.0544 10.3668 14.421C10.7114 14.7886 11.185 15.0007 11.6851 15.0007H11.6993C12.1994 15.0007 12.673 14.7886 13.0175 14.421C13.3612 14.0544 13.5499 13.5629 13.5499 13.0557C13.5499 12.5485 13.3612 12.057 13.0175 11.6904C12.673 11.3229 12.1994 11.1107 11.6993 11.1107H11.6851C11.185 11.1107 10.7114 11.3229 10.3668 11.6904Z" stroke="#5D6F84" stroke-width="0.866074"/>
</svg>
