<svg width="24" height="24" viewBox="0 0 24 24" fill="none" xmlns="http://www.w3.org/2000/svg">
<path d="M9.79831 2.02605C9.5998 2.01292 9.4042 2.07919 9.25455 2.21028C9.10489 2.34137 9.01344 2.52654 9.00032 2.72505C8.98719 2.92356 9.05346 3.11916 9.18454 3.26882C9.31563 3.41847 9.5008 3.50992 9.69931 3.52305C14.9413 3.86805 19.1333 8.06105 19.4763 13.3031C19.4827 13.4013 19.5085 13.4974 19.552 13.5858C19.5956 13.6741 19.6561 13.753 19.7302 13.818C19.8042 13.8829 19.8904 13.9327 19.9836 13.9643C20.0769 13.996 20.1755 14.009 20.2738 14.0026C20.3721 13.9961 20.4682 13.9704 20.5565 13.9268C20.6449 13.8833 20.7238 13.8227 20.7887 13.7487C20.8537 13.6746 20.9034 13.5885 20.9351 13.4952C20.9668 13.4019 20.9798 13.3033 20.9733 13.2051C20.5803 7.21005 15.7903 2.42005 9.79831 2.02605ZM8.49631 15.6221C8.79468 15.6221 9.08083 15.5035 9.29181 15.2925C9.50279 15.0816 9.62131 14.7954 9.62131 14.4971C9.62131 14.1987 9.50279 13.9125 9.29181 13.7016C9.08083 13.4906 8.79468 13.3721 8.49631 13.3721C8.19795 13.3721 7.9118 13.4906 7.70082 13.7016C7.48984 13.9125 7.37132 14.1987 7.37132 14.4971C7.37132 14.7954 7.48984 15.0816 7.70082 15.2925C7.9118 15.5035 8.19795 15.6221 8.49631 15.6221ZM7.97632 21.772L7.58631 21.386L4.61732 18.432C3.84875 17.6634 3.32538 16.6841 3.11337 15.618C2.90136 14.5519 3.01024 13.4469 3.42624 12.4426C3.84224 11.4384 4.54667 10.5801 5.45047 9.97623C6.35427 9.37235 7.41684 9.05003 8.50382 9.05003C9.59079 9.05003 10.6534 9.37235 11.5572 9.97623C12.461 10.5801 13.1654 11.4384 13.5814 12.4426C13.9974 13.4469 14.1063 14.5519 13.8943 15.618C13.6823 16.6841 13.1589 17.6634 12.3903 18.432C11.9463 18.876 11.1063 19.712 10.3783 20.435L9.03231 21.772C8.89181 21.9116 8.70183 21.9899 8.50382 21.9899C8.3058 21.9899 8.11582 21.9116 7.97531 21.772M5.67731 11.7201C4.92798 12.4694 4.50701 13.4858 4.50701 14.5456C4.50701 15.6053 4.92798 16.6217 5.67731 17.3711C6.15931 17.8531 6.99731 18.687 7.71631 19.401L8.50331 20.1831L9.31931 19.371C10.0483 18.647 10.8863 17.8141 11.3293 17.3711C12.0787 16.6215 12.4996 15.6051 12.4995 14.5452C12.4994 13.4853 12.0783 12.4689 11.3288 11.7196C10.5793 10.9702 9.56282 10.5492 8.50296 10.5493C7.4431 10.5494 6.42668 10.9705 5.67731 11.7201ZM9.81731 5.50305C9.6192 5.48515 9.42208 5.54668 9.26934 5.67411C9.11659 5.80154 9.02072 5.98443 9.00281 6.18255C8.98491 6.38067 9.04645 6.57778 9.17388 6.73053C9.30131 6.88328 9.4842 6.97915 9.68231 6.99705C11.3073 7.14677 12.8288 7.86036 13.9829 9.01411C15.137 10.1679 15.8511 11.6891 16.0013 13.3141C16.0194 13.5122 16.1153 13.695 16.2682 13.8223C16.421 13.9497 16.6182 14.0111 16.8163 13.9931C17.0144 13.975 17.1973 13.879 17.3246 13.7262C17.4519 13.5733 17.5134 13.3762 17.4953 13.1781C17.3132 11.2033 16.4456 9.35461 15.043 7.95269C13.6403 6.55078 11.7922 5.68411 9.81731 5.50305Z" fill="#34C759"/>
</svg>
