<svg width="24" height="21" viewBox="0 0 24 21" fill="none" xmlns="http://www.w3.org/2000/svg">
<path d="M5.25875 8.97339L5.84492 8.89928L5.71989 8.32183C5.37275 6.7186 5.5823 5.02116 6.29433 3.60855C7.00593 2.19679 8.14948 1.20427 9.45011 0.813672C10.7457 0.424586 12.1239 0.653642 13.2905 1.4692C14.4621 2.28828 15.3309 3.63922 15.6781 5.2426L15.787 5.74547L16.2947 5.66221C17.0768 5.53396 17.8733 5.5963 18.6365 5.84679C19.4002 6.09743 20.1186 6.53259 20.7448 7.13126C21.3712 7.73018 21.8914 8.47946 22.2687 9.3355C22.646 10.1915 22.871 11.1331 22.9275 12.1013C22.9841 13.0695 22.8707 14.04 22.5956 14.9516C22.3205 15.8633 21.8906 16.6933 21.3365 17.3916C20.7825 18.0898 20.1175 18.6399 19.3862 19.0133C18.6554 19.3864 17.8718 19.5764 17.083 19.5755H17.0824H5.716C4.61194 19.5737 3.53059 19.0744 2.7004 18.1458C1.868 17.2147 1.3583 15.9275 1.29623 14.5448C1.23416 13.1621 1.6257 11.8144 2.37436 10.7793C3.12172 9.7459 4.15863 9.11249 5.25875 8.97339Z" stroke="#5D6F84" stroke-width="1.08259"/>
</svg>
