<?xml version="1.0" standalone="no"?>
<!DOCTYPE svg PUBLIC "-//W3C//DTD SVG 20010904//EN"
 "http://www.w3.org/TR/2001/REC-SVG-20010904/DTD/svg10.dtd">
<svg version="1.0" xmlns="http://www.w3.org/2000/svg"
 width="80.000000pt" height="130.000000pt" viewBox="0 0 80.000000 130.000000"
 preserveAspectRatio="xMidYMid meet">

<g transform="translate(0.000000,130.000000) scale(0.100000,-0.100000)"
fill="#000000" stroke="none">
<path d="M300 1266 c-182 -53 -305 -220 -287 -392 7 -73 46 -152 165 -342 112
-179 161 -276 191 -379 12 -40 25 -73 29 -73 4 0 19 37 33 83 37 114 89 217
204 396 111 175 139 234 150 309 19 142 -80 306 -229 377 -69 33 -182 43 -256
21z"/>
</g>
</svg>
