<svg width="24" height="24" viewBox="0 0 24 24" fill="none" xmlns="http://www.w3.org/2000/svg">
<path d="M9.92618 6.67471H7.00457C6.55424 6.67471 6.18915 7.03981 6.18915 7.49014C6.18915 7.94047 6.55424 8.30556 7.00457 8.30556H9.92618C10.3765 8.30556 10.7416 7.94047 10.7416 7.49014C10.7416 7.03981 10.3765 6.67471 9.92618 6.67471Z" fill="#CF1B0E"/>
<path d="M9.92618 10.0633H7.00457C6.55424 10.0633 6.18915 10.4284 6.18915 10.8787C6.18915 11.329 6.55424 11.6941 7.00457 11.6941H9.92618C10.3765 11.6941 10.7416 11.329 10.7416 10.8787C10.7416 10.4284 10.3765 10.0633 9.92618 10.0633Z" fill="#CF1B0E"/>
<path d="M13.3545 15.7727V16.5668H13.774C14.2828 16.5668 14.2828 16.2624 14.2828 16.1624C14.2828 16.0659 14.2828 15.7726 13.774 15.7726H13.3545V15.7727Z" fill="#CF1B0E"/>
<path d="M19.5482 14.2722H18.2212V6.00661C18.2212 5.79275 18.1364 5.58775 17.9851 5.43668L14.7845 2.23587C14.6331 2.08486 14.4284 2 14.2146 2H4.58252C3.70985 2 3 2.70991 3 3.58257V20.5485C3 21.4212 3.70991 22.1312 4.58252 22.1312H16.6387C17.5113 22.1312 18.2212 21.4212 18.2212 20.5485V18.9151H19.5481C20.2378 18.9151 20.797 18.356 20.797 17.6662V15.521C20.797 14.8314 20.2379 14.2722 19.5482 14.2722ZM16.5026 20.3691H4.71853V3.76207H13.095V6.13093C13.095 6.70472 13.56 7.16962 14.1336 7.16962H16.5026V14.2722H12.4702C11.7805 14.2722 11.2214 14.8314 11.2214 15.5211V17.6663C11.2214 18.356 11.7805 18.9151 12.4702 18.9151H16.5026V20.3691ZM14.7987 16.1624C14.7987 16.73 14.406 17.0827 13.774 17.0827H13.3545V17.5707C13.3545 17.6966 13.2524 17.7988 13.1264 17.7988H13.0668C12.9407 17.7988 12.8386 17.6966 12.8386 17.5707V15.485C12.8386 15.3591 12.9407 15.2569 13.0668 15.2569H13.774C14.406 15.2568 14.7987 15.6038 14.7987 16.1624ZM16.0922 17.7988H15.2716C15.1456 17.7988 15.0435 17.6966 15.0435 17.5707V15.485C15.0435 15.3591 15.1455 15.2569 15.2716 15.2569H16.0922C16.807 15.2569 17.3885 15.8277 17.3885 16.5294C17.3885 17.2294 16.807 17.7988 16.0922 17.7988ZM19.3621 15.5445C19.3621 15.6706 19.26 15.7727 19.1339 15.7727H18.2073V16.3191H18.9967C19.1226 16.3191 19.2248 16.4211 19.2248 16.5472V16.6069C19.2248 16.7328 19.1226 16.8351 18.9967 16.8351H18.2073V17.5706C18.2073 17.6965 18.1053 17.7988 17.9792 17.7988H17.9196C17.7935 17.7988 17.6915 17.6965 17.6915 17.5706V15.485C17.6915 15.3591 17.7935 15.2568 17.9196 15.2568H19.1339C19.26 15.2568 19.3621 15.3591 19.3621 15.485V15.5445Z" fill="#CF1B0E"/>
<path d="M16.0922 15.7727H15.5593V17.283H16.0922C16.5225 17.283 16.8726 16.9447 16.8726 16.5294C16.8726 16.1121 16.5226 15.7727 16.0922 15.7727Z" fill="#CF1B0E"/>
</svg>
