<svg width="25" height="24" viewBox="0 0 25 24" fill="none" xmlns="http://www.w3.org/2000/svg">
<path d="M15.6667 5.66142C16.2266 5.66142 16.7635 5.90733 17.1594 6.34505C17.5554 6.78278 17.7778 7.37646 17.7778 7.9955M22 7.9955C22.0003 9.08922 21.7688 10.1678 21.3242 11.1448C20.8796 12.1218 20.2341 12.9701 19.4396 13.6217C18.6451 14.2732 17.7235 14.7099 16.7488 14.8968C15.7741 15.0837 14.7734 15.0155 13.8268 14.6978L11.4444 17.3318H9.33333V19.6659H7.22222V22H4.05556C3.7756 22 3.50712 21.877 3.30916 21.6582C3.11121 21.4393 3 21.1425 3 20.833V17.815C3.00006 17.5055 3.11131 17.2087 3.30928 16.9899L9.60461 10.0297C9.34119 9.06686 9.26849 8.05262 9.39143 7.05597C9.51438 6.05932 9.8301 5.10365 10.3171 4.25402C10.8041 3.40438 11.451 2.68073 12.2136 2.1323C12.9763 1.58388 13.8369 1.22357 14.7368 1.07588C15.6367 0.928199 16.5549 0.996615 17.4287 1.27647C18.3026 1.55633 19.1117 2.04106 19.8009 2.69767C20.4901 3.35428 21.0433 4.16736 21.4228 5.08156C21.8022 5.99576 21.9991 6.98962 22 7.9955Z" stroke="#5D6F84" stroke-opacity="0.75" stroke-width="1.1" stroke-linecap="round" stroke-linejoin="round"/>
<path d="M1 1L24 23" stroke="#5D6F84" stroke-width="2" stroke-linecap="round" stroke-linejoin="round"/>
</svg>
