<svg width="24" height="24" viewBox="0 0 24 24" fill="none" xmlns="http://www.w3.org/2000/svg">
<path d="M16.1419 2.78796H7.21983C6.9745 2.78796 6.77563 2.98683 6.77563 3.23216V20.5558C6.77563 20.8011 6.9745 21 7.21983 21H20.1015C20.3468 21 20.5457 20.8011 20.5457 20.5558V7.19181C20.5457 7.07401 20.4989 6.96103 20.4156 6.87772L16.4559 2.91807C16.3726 2.83476 16.2597 2.78796 16.1419 2.78796Z" fill="white" stroke="#107C41" stroke-width="2" stroke-miterlimit="10"/>
<path d="M16.1038 2.78796V6.78573C16.1038 7.03105 16.3026 7.22992 16.548 7.22992H20.5457" stroke="#107C41" stroke-width="2" stroke-miterlimit="10"/>
<path d="M12.5502 14.7813H10.3292V14.3371H12.5502C12.6729 14.3371 12.7723 14.4365 12.7723 14.5592C12.7723 14.6818 12.6729 14.7813 12.5502 14.7813ZM12.5502 13.4487H10.3292V13.0045H12.5502C12.6729 13.0045 12.7723 13.1039 12.7723 13.2266C12.7723 13.3492 12.6729 13.4487 12.5502 13.4487ZM12.5502 12.1161H10.3292V11.6719H12.5502C12.6729 11.6719 12.7723 11.7713 12.7723 11.894C12.7723 12.0166 12.6729 12.1161 12.5502 12.1161ZM12.5502 10.7835H10.3292V10.3393H12.5502C12.6729 10.3393 12.7723 10.4387 12.7723 10.5614C12.7723 10.6841 12.6729 10.7835 12.5502 10.7835ZM12.5502 16.1138H10.3292V15.6696H12.5502C12.6729 15.6696 12.7723 15.7691 12.7723 15.8917C12.7723 16.0144 12.6729 16.1138 12.5502 16.1138ZM18.7689 14.7813H16.548C16.4253 14.7813 16.3259 14.6818 16.3259 14.5592C16.3259 14.4365 16.4253 14.3371 16.548 14.3371H18.7689C18.8916 14.3371 18.991 14.4365 18.991 14.5592C18.991 14.6818 18.8916 14.7813 18.7689 14.7813ZM18.7689 16.1138H16.548C16.4253 16.1138 16.3259 16.0144 16.3259 15.8917C16.3259 15.7691 16.4253 15.6696 16.548 15.6696H18.7689C18.8916 15.6696 18.991 15.7691 18.991 15.8917C18.991 16.0144 18.8916 16.1138 18.7689 16.1138ZM18.7689 13.4487H16.548C16.4253 13.4487 16.3259 13.3492 16.3259 13.2266C16.3259 13.1039 16.4253 13.0045 16.548 13.0045H18.7689C18.8916 13.0045 18.991 13.1039 18.991 13.2266C18.991 13.3492 18.8916 13.4487 18.7689 13.4487ZM18.7689 12.1161H16.548C16.4253 12.1161 16.3259 12.0166 16.3259 11.894C16.3259 11.7713 16.4253 11.6719 16.548 11.6719H18.7689C18.8916 11.6719 18.991 11.7713 18.991 11.894C18.991 12.0166 18.8916 12.1161 18.7689 12.1161ZM18.7689 10.7835H16.548C16.4253 10.7835 16.3259 10.6841 16.3259 10.5614C16.3259 10.4387 16.4253 10.3393 16.548 10.3393H18.7689C18.8916 10.3393 18.991 10.4387 18.991 10.5614C18.991 10.6841 18.8916 10.7835 18.7689 10.7835ZM15.6596 14.7813H13.4386C13.3159 14.7813 13.2165 14.6818 13.2165 14.5592C13.2165 14.4365 13.3159 14.3371 13.4386 14.3371H15.6596C15.7822 14.3371 15.8817 14.4365 15.8817 14.5592C15.8817 14.6818 15.7822 14.7813 15.6596 14.7813ZM15.6596 16.1138H13.4386C13.3159 16.1138 13.2165 16.0144 13.2165 15.8917C13.2165 15.7691 13.3159 15.6696 13.4386 15.6696H15.6596C15.7822 15.6696 15.8817 15.7691 15.8817 15.8917C15.8817 16.0144 15.7822 16.1138 15.6596 16.1138ZM15.6596 13.4487H13.4386C13.3159 13.4487 13.2165 13.3492 13.2165 13.2266C13.2165 13.1039 13.3159 13.0045 13.4386 13.0045H15.6596C15.7822 13.0045 15.8817 13.1039 15.8817 13.2266C15.8817 13.3492 15.7822 13.4487 15.6596 13.4487ZM15.6596 12.1161H13.4386C13.3159 12.1161 13.2165 12.0166 13.2165 11.894C13.2165 11.7713 13.3159 11.6719 13.4386 11.6719H15.6596C15.7822 11.6719 15.8817 11.7713 15.8817 11.894C15.8817 12.0166 15.7822 12.1161 15.6596 12.1161ZM15.6596 10.7835H13.4386C13.3159 10.7835 13.2165 10.6841 13.2165 10.5614C13.2165 10.4387 13.3159 10.3393 13.4386 10.3393H15.6596C15.7822 10.3393 15.8817 10.4387 15.8817 10.5614C15.8817 10.6841 15.7822 10.7835 15.6596 10.7835Z" fill="#107C41"/>
<path d="M3.88839 17.6685H10.9955C11.4862 17.6685 11.8839 17.2708 11.8839 16.7801V9.673C11.8839 9.18236 11.4862 8.78461 10.9955 8.78461H3.88839C3.39776 8.78461 3 9.18236 3 9.673V16.7801C3 17.2708 3.39776 17.6685 3.88839 17.6685Z" fill="#107C41"/>
<path d="M4.98761 15.8918L6.73881 13.2191L5.13488 10.5614H6.4256L7.3012 12.2601C7.38167 12.4212 7.43697 12.5415 7.46713 12.6207H7.47842C7.53654 12.4919 7.59684 12.3667 7.65974 12.2454L8.59561 10.5614H9.7805L8.13516 13.2044L9.82215 15.8918H8.56156L7.5502 14.0258C7.50747 13.9565 7.46713 13.8734 7.4294 13.7767H7.41443C7.39686 13.8363 7.35782 13.9168 7.29752 14.0183L6.25579 15.8918H4.98761Z" fill="white"/>
</svg>
