<svg width="29" height="29" viewBox="0 0 29 29" fill="none" xmlns="http://www.w3.org/2000/svg">
<g filter="url(#filter0_d_1307_8137)">
<path d="M26.4 20.2228C26.4 21.4435 25.3045 22.7385 23.0871 23.7633C20.9204 24.7647 17.8851 25.4 14.5 25.4C11.1149 25.4 8.07955 24.7647 5.91289 23.7633C3.69553 22.7385 2.6 21.4435 2.6 20.2228C2.6 19.0022 3.69553 17.7072 5.91289 16.6824C8.07955 15.681 11.1149 15.0457 14.5 15.0457C17.8851 15.0457 20.9204 15.681 23.0871 16.6824C25.3045 17.7072 26.4 19.0022 26.4 20.2228Z" stroke="#5D6F84" stroke-width="1.2"/>
<path d="M14.4504 1.6C10.342 1.6 6.99941 4.97372 6.99941 9.15204C6.99941 10.1738 7.31183 11.4989 7.85136 12.9409C8.38727 14.3732 9.13139 15.8792 9.95754 17.25C10.7851 18.6232 11.6833 19.8412 12.52 20.7073C12.9388 21.1407 13.329 21.4722 13.6746 21.6915C14.0285 21.916 14.2853 21.9909 14.4504 21.9909C14.6156 21.9909 14.8725 21.916 15.2264 21.6915C15.5721 21.4722 15.9624 21.1407 16.3813 20.7073C17.2182 19.8413 18.1166 18.6233 18.9444 17.2501C19.7708 15.8793 20.5152 14.3733 21.0512 12.941C21.5909 11.499 21.9034 10.174 21.9034 9.15214L14.4504 1.6ZM14.4504 1.6C18.5589 1.6 21.9026 4.97385 21.9034 9.15204L14.4504 1.6ZM14.4504 13.433C12.1047 13.433 10.2145 11.5096 10.2145 9.15204C10.2145 6.79456 12.1046 4.87083 14.4504 4.87083C16.7971 4.87083 18.6863 6.79431 18.6863 9.15196L14.4504 13.433ZM14.4504 13.433C16.7969 13.433 18.6866 11.5099 18.6863 9.15204L14.4504 13.433ZM17.4863 9.15204V9.15211C17.4865 10.8609 16.1205 12.233 14.4504 12.233C12.7812 12.233 11.4145 10.8607 11.4145 9.15204C11.4145 7.44336 12.7812 6.07083 14.4504 6.07083C16.1204 6.07083 17.4863 7.44303 17.4863 9.15204Z" fill="#DEEEFE" stroke="#5D6F84" stroke-width="1.2"/>
</g>
<defs>
<filter id="filter0_d_1307_8137" x="0" y="0" width="29" height="29" filterUnits="userSpaceOnUse" color-interpolation-filters="sRGB">
<feFlood flood-opacity="0" result="BackgroundImageFix"/>
<feColorMatrix in="SourceAlpha" type="matrix" values="0 0 0 0 0 0 0 0 0 0 0 0 0 0 0 0 0 0 127 0" result="hardAlpha"/>
<feOffset dy="1"/>
<feGaussianBlur stdDeviation="1"/>
<feComposite in2="hardAlpha" operator="out"/>
<feColorMatrix type="matrix" values="0 0 0 0 0 0 0 0 0 0 0 0 0 0 0 0 0 0 0.25 0"/>
<feBlend mode="normal" in2="BackgroundImageFix" result="effect1_dropShadow_1307_8137"/>
<feBlend mode="normal" in="SourceGraphic" in2="effect1_dropShadow_1307_8137" result="shape"/>
</filter>
</defs>
</svg>
