<svg width="25" height="24" viewBox="0 0 25 24" fill="none" xmlns="http://www.w3.org/2000/svg">
<path d="M8.44434 10H6.44434C5.9139 10 5.4052 10.2107 5.03012 10.5858C4.65505 10.9609 4.44434 11.4696 4.44434 12V19C4.44434 19.5304 4.65505 20.0392 5.03012 20.4142C5.4052 20.7893 5.9139 21 6.44434 21H18.4443C18.7954 21 19.1403 20.9076 19.4443 20.732C19.7483 20.5565 20.0008 20.304 20.1763 20M8.44434 10V8.00001M8.44434 10H10.4443M16.4443 10H18.4443C18.9748 10 19.4835 10.2107 19.8585 10.5858C20.2336 10.9609 20.4443 11.4696 20.4443 12V15M16.4443 10V7.00001C16.4445 6.29779 16.2598 5.6079 15.9088 4.9997C15.5578 4.3915 15.0528 3.88642 14.4447 3.53524C13.8366 3.18406 13.1468 2.99915 12.4446 2.99911C11.7423 2.99908 11.0525 3.1839 10.4443 3.53501M16.4443 10H15.4443M12.4443 14V17M3.44434 3.00001L21.4443 21" stroke="#FF3B30" stroke-width="2" stroke-linecap="round" stroke-linejoin="round"/>
</svg>
