<svg width="25" height="24" viewBox="0 0 25 24" fill="none" xmlns="http://www.w3.org/2000/svg">
<g clip-path="url(#clip0_150_3375)">
<path fill-rule="evenodd" clip-rule="evenodd" d="M12.3333 2.35938C14.24 2.35937 16.1039 2.92479 17.6893 3.98411C19.2747 5.04344 20.5104 6.5491 21.24 8.31069C21.9697 10.0723 22.1606 12.0107 21.7886 13.8808C21.4167 15.7509 20.4985 17.4687 19.1502 18.817C17.8019 20.1652 16.0841 21.0834 14.214 21.4554C12.3439 21.8274 10.4055 21.6365 8.64395 20.9068C6.88235 20.1771 5.37669 18.9414 4.31737 17.356C3.25804 15.7707 2.69263 13.9067 2.69263 12C2.69263 9.44315 3.70833 6.99102 5.5163 5.18305C7.32427 3.37508 9.7764 2.35938 12.3333 2.35938Z" fill="white"/>
<path d="M15.2844 15.6426V9.11523C15.2881 8.1041 14.8995 7.13093 14.2004 6.40039C13.8625 6.04211 13.4549 5.75665 13.0027 5.56155C12.5504 5.36645 12.0631 5.26581 11.5706 5.26581C11.078 5.26581 10.5907 5.36645 10.1385 5.56155C9.68623 5.75665 9.27863 6.04211 8.94068 6.40039C8.23803 7.12939 7.84589 8.10274 7.84693 9.11523V16.3789H10.136V9.11523C10.1342 8.72469 10.2841 8.34869 10.554 8.06641C10.6838 7.93008 10.84 7.82155 11.0131 7.7474C11.1862 7.67325 11.3725 7.63501 11.5608 7.63501C11.7491 7.63501 11.9354 7.67325 12.1085 7.7474C12.2815 7.82155 12.4378 7.93008 12.5676 8.06641C12.8381 8.34849 12.9886 8.72445 12.9876 9.11523V15.6426H11.3801L14.0461 18.7344L16.8293 15.6426H15.2844Z" fill="black"/>
<path d="M12.3332 4.90478e-08C15.306 -0.000268872 18.1727 1.10531 20.3755 3.10167C22.5784 5.09803 23.9598 7.84242 24.2512 10.801C24.5426 13.7595 23.723 16.7207 21.9519 19.1084C20.1809 21.4961 17.585 23.1397 14.6692 23.7194C11.7534 24.299 8.72618 23.7734 6.17651 22.2446C3.62683 20.7159 1.73697 18.2934 0.874557 15.4484C0.0121484 12.6033 0.238859 9.53924 1.51059 6.85212C2.78232 4.165 5.00813 2.04701 7.75503 0.910156C9.20656 0.309304 10.7622 4.02902e-05 12.3332 4.90478e-08ZM20.1925 6.43164L6.7648 19.8594C8.09461 20.7986 9.64031 21.3864 11.2582 21.5681C12.8761 21.7498 14.5137 21.5194 16.0187 20.8984C18.3766 19.9165 20.2506 18.0419 21.2316 15.6836C21.7153 14.5159 21.9629 13.2639 21.9601 12C21.9649 10.0042 21.3448 8.05705 20.1867 6.43164H20.1925ZM5.02065 18.2617L18.5949 4.6875C16.7499 3.13075 14.3877 2.32346 11.9758 2.42545C9.56399 2.52744 7.27834 3.53128 5.57139 5.23823C3.86443 6.94519 2.8606 9.23083 2.7586 11.6427C2.65661 14.0545 3.4639 16.4167 5.02065 18.2617Z" fill="#D92D27"/>
</g>
<defs>
<clipPath id="clip0_150_3375">
<rect width="24" height="24" fill="white" transform="translate(0.333252)"/>
</clipPath>
</defs>
</svg>
