<svg width="66" height="10" viewBox="0 0 66 10" fill="none" xmlns="http://www.w3.org/2000/svg">
<path d="M9.184 0.76L5.824 10H3.57L0.196 0.76H2.24L4.186 6.64L4.718 8.46L5.236 6.654L7.196 0.76H9.184ZM12.5149 0.76V10H10.5829V0.76H12.5149ZM14.9169 10V0.76H21.8469V2.314H16.8489V4.61H20.7829V6.094H16.8489V8.446H22.0429V10H14.9169ZM25.5263 10L22.8383 0.76H24.8963L26.7163 8.39L28.5643 0.76H30.4123L32.2883 8.39L34.0943 0.76H36.0683L33.3803 10H31.2103L29.9223 4.96L29.4883 2.776H29.4603L29.0263 4.96L27.7523 10H25.5263ZM49.1752 10H47.1732L46.4032 7.746H42.8612L42.0912 10H40.1172L43.4912 0.76H45.8012L49.1752 10ZM43.2952 6.318H45.9692L44.6252 2.286L43.2952 6.318ZM52.4778 8.446H57.3498V10H50.5458V0.76H52.4778V8.446ZM60.886 8.446H65.758V10H58.954V0.76H60.886V8.446Z" fill="#1D4380"/>
</svg>
