<svg width="30" height="30" viewBox="0 0 30 30" fill="none" xmlns="http://www.w3.org/2000/svg">
<rect width="30" height="30" rx="2" fill="#4069B3"/>
<g filter="url(#filter0_d_235_9930)">
<path d="M12.625 20.8929C12.625 21.3192 12.4373 21.7279 12.1033 22.0293C11.7692 22.3307 11.3162 22.5001 10.8438 22.5001C10.3713 22.5001 9.91826 22.3307 9.58422 22.0293C9.25017 21.7279 9.0625 21.3192 9.0625 20.8929C9.0625 20.4667 9.25017 20.0579 9.58422 19.7565C9.91826 19.4551 10.3713 19.2858 10.8438 19.2858C11.3162 19.2858 11.7692 19.4551 12.1033 19.7565C12.4373 20.0579 12.625 20.4667 12.625 20.8929ZM20.9375 20.8929C20.9375 21.3192 20.7498 21.7279 20.4158 22.0293C20.0817 22.3307 19.6287 22.5001 19.1562 22.5001C18.6838 22.5001 18.2308 22.3307 17.8967 22.0293C17.5627 21.7279 17.375 21.3192 17.375 20.8929C17.375 20.4667 17.5627 20.0579 17.8967 19.7565C18.2308 19.4551 18.6838 19.2858 19.1562 19.2858C19.6287 19.2858 20.0817 19.4551 20.4158 19.7565C20.7498 20.0579 20.9375 20.4667 20.9375 20.8929Z" fill="white"/>
<path d="M6.6875 7.5C6.37256 7.5 6.07051 7.61288 5.84781 7.81381C5.62511 8.01475 5.5 8.28727 5.5 8.57143V19.2857C5.5 19.5699 5.62511 19.8424 5.84781 20.0433C6.07051 20.2443 6.37256 20.3571 6.6875 20.3571H7.93438C8.07065 19.7516 8.43475 19.2072 8.96497 18.8162C9.4952 18.4252 10.1589 18.2116 10.8438 18.2116C11.5286 18.2116 12.1923 18.4252 12.7225 18.8162C13.2528 19.2072 13.6169 19.7516 13.7531 20.3571H16.0556C16.3705 20.3571 16.6725 20.2443 16.8952 20.0433C17.1179 19.8424 17.2431 19.5699 17.2431 19.2857V8.57143C17.2431 8.28727 17.1179 8.01475 16.8952 7.81381C16.6725 7.61288 16.3705 7.5 16.0556 7.5H6.6875ZM19.75 10.7143C19.4351 10.7143 19.133 10.8272 18.9103 11.0281C18.6876 11.229 18.5625 11.5016 18.5625 11.7857V18.2679C18.9446 18.1974 19.3383 18.1956 19.7211 18.2625C20.104 18.3294 20.4685 18.4637 20.7938 18.6577C21.1191 18.8517 21.3989 19.1017 21.6171 19.3933C21.8353 19.6849 21.9877 20.0124 22.0656 20.3571H23.3125C23.6274 20.3571 23.9295 20.2443 24.1522 20.0433C24.3749 19.8424 24.5 19.5699 24.5 19.2857V13.9286C24.4999 13.6444 24.3748 13.372 24.1521 13.1711L21.7771 11.0282C21.5544 10.8273 21.2524 10.7143 20.9375 10.7143H19.75Z" fill="white"/>
</g>
<defs>
<filter id="filter0_d_235_9930" x="3.5" y="6.5" width="23" height="19" filterUnits="userSpaceOnUse" color-interpolation-filters="sRGB">
<feFlood flood-opacity="0" result="BackgroundImageFix"/>
<feColorMatrix in="SourceAlpha" type="matrix" values="0 0 0 0 0 0 0 0 0 0 0 0 0 0 0 0 0 0 127 0" result="hardAlpha"/>
<feOffset dy="1"/>
<feGaussianBlur stdDeviation="1"/>
<feComposite in2="hardAlpha" operator="out"/>
<feColorMatrix type="matrix" values="0 0 0 0 0 0 0 0 0 0 0 0 0 0 0 0 0 0 0.25 0"/>
<feBlend mode="normal" in2="BackgroundImageFix" result="effect1_dropShadow_235_9930"/>
<feBlend mode="normal" in="SourceGraphic" in2="effect1_dropShadow_235_9930" result="shape"/>
</filter>
</defs>
</svg>
