<svg width="30" height="30" viewBox="0 0 30 30" fill="none" xmlns="http://www.w3.org/2000/svg">
<rect width="30" height="30" rx="2" fill="#4069B3"/>
<g filter="url(#filter0_d_558_26847)">
<path d="M8.9 6.5C8.26348 6.5 7.65303 6.75286 7.20294 7.20294C6.75286 7.65303 6.5 8.26348 6.5 8.9V11.3C6.5 11.9365 6.75286 12.547 7.20294 12.9971C7.65303 13.4471 8.26348 13.7 8.9 13.7H11.3C11.9365 13.7 12.547 13.4471 12.9971 12.9971C13.4471 12.547 13.7 11.9365 13.7 11.3V8.9C13.7 8.26348 13.4471 7.65303 12.9971 7.20294C12.547 6.75286 11.9365 6.5 11.3 6.5H8.9ZM8.9 16.1C8.26348 16.1 7.65303 16.3529 7.20294 16.8029C6.75286 17.253 6.5 17.8635 6.5 18.5V20.9C6.5 21.5365 6.75286 22.147 7.20294 22.5971C7.65303 23.0471 8.26348 23.3 8.9 23.3H11.3C11.9365 23.3 12.547 23.0471 12.9971 22.5971C13.4471 22.147 13.7 21.5365 13.7 20.9V18.5C13.7 17.8635 13.4471 17.253 12.9971 16.8029C12.547 16.3529 11.9365 16.1 11.3 16.1H8.9ZM16.1 8.9C16.1 8.26348 16.3529 7.65303 16.8029 7.20294C17.253 6.75286 17.8635 6.5 18.5 6.5H20.9C21.5365 6.5 22.147 6.75286 22.5971 7.20294C23.0471 7.65303 23.3 8.26348 23.3 8.9V11.3C23.3 11.9365 23.0471 12.547 22.5971 12.9971C22.147 13.4471 21.5365 13.7 20.9 13.7H18.5C17.8635 13.7 17.253 13.4471 16.8029 12.9971C16.3529 12.547 16.1 11.9365 16.1 11.3V8.9ZM16.1 18.5C16.1 17.8635 16.3529 17.253 16.8029 16.8029C17.253 16.3529 17.8635 16.1 18.5 16.1H20.9C21.5365 16.1 22.147 16.3529 22.5971 16.8029C23.0471 17.253 23.3 17.8635 23.3 18.5V20.9C23.3 21.5365 23.0471 22.147 22.5971 22.5971C22.147 23.0471 21.5365 23.3 20.9 23.3H18.5C17.8635 23.3 17.253 23.0471 16.8029 22.5971C16.3529 22.147 16.1 21.5365 16.1 20.9V18.5Z" fill="#FCFCFC"/>
</g>
<defs>
<filter id="filter0_d_558_26847" x="4.5" y="5.75" width="20.7998" height="20.8" filterUnits="userSpaceOnUse" color-interpolation-filters="sRGB">
<feFlood flood-opacity="0" result="BackgroundImageFix"/>
<feColorMatrix in="SourceAlpha" type="matrix" values="0 0 0 0 0 0 0 0 0 0 0 0 0 0 0 0 0 0 127 0" result="hardAlpha"/>
<feOffset dy="1.25"/>
<feGaussianBlur stdDeviation="1"/>
<feComposite in2="hardAlpha" operator="out"/>
<feColorMatrix type="matrix" values="0 0 0 0 0 0 0 0 0 0 0 0 0 0 0 0 0 0 0.25 0"/>
<feBlend mode="normal" in2="BackgroundImageFix" result="effect1_dropShadow_558_26847"/>
<feBlend mode="normal" in="SourceGraphic" in2="effect1_dropShadow_558_26847" result="shape"/>
</filter>
</defs>
</svg>
