<svg width="30" height="30" viewBox="0 0 30 30" fill="none" xmlns="http://www.w3.org/2000/svg">
<g id="Group 39907">
<rect id="Surface" y="0.00012207" width="30" height="30" rx="2" fill="#4069B3"/>
<g id="Vector" filter="url(#filter0_d_560_26857)">
<path d="M5.99951 15.8571C5.99951 15.5304 6.11804 15.217 6.32902 14.9859C6.53999 14.7548 6.82614 14.625 7.12451 14.625H9.37451C9.67288 14.625 9.95903 14.7548 10.17 14.9859C10.381 15.217 10.4995 15.5304 10.4995 15.8571V22.0179C10.4995 22.3446 10.381 22.658 10.17 22.8891C9.95903 23.1202 9.67288 23.25 9.37451 23.25H7.12451C6.82614 23.25 6.53999 23.1202 6.32902 22.8891C6.11804 22.658 5.99951 22.3446 5.99951 22.0179V15.8571ZM12.7495 10.9286C12.7495 10.6018 12.868 10.2884 13.079 10.0573C13.29 9.82624 13.5761 9.69643 13.8745 9.69643H16.1245C16.4229 9.69643 16.709 9.82624 16.92 10.0573C17.131 10.2884 17.2495 10.6018 17.2495 10.9286V22.0179C17.2495 22.3446 17.131 22.658 16.92 22.8891C16.709 23.1202 16.4229 23.25 16.1245 23.25H13.8745C13.5761 23.25 13.29 23.1202 13.079 22.8891C12.868 22.658 12.7495 22.3446 12.7495 22.0179V10.9286ZM19.4995 7.23214C19.4995 6.90536 19.618 6.59196 19.829 6.36089C20.04 6.12981 20.3261 6 20.6245 6H22.8745C23.1729 6 23.459 6.12981 23.67 6.36089C23.881 6.59196 23.9995 6.90536 23.9995 7.23214V22.0179C23.9995 22.3446 23.881 22.658 23.67 22.8891C23.459 23.1202 23.1729 23.25 22.8745 23.25H20.6245C20.3261 23.25 20.04 23.1202 19.829 22.8891C19.618 22.658 19.4995 22.3446 19.4995 22.0179V7.23214Z" fill="white"/>
</g>
</g>
<defs>
<filter id="filter0_d_560_26857" x="3.99951" y="5" width="22" height="21.25" filterUnits="userSpaceOnUse" color-interpolation-filters="sRGB">
<feFlood flood-opacity="0" result="BackgroundImageFix"/>
<feColorMatrix in="SourceAlpha" type="matrix" values="0 0 0 0 0 0 0 0 0 0 0 0 0 0 0 0 0 0 127 0" result="hardAlpha"/>
<feOffset dy="1"/>
<feGaussianBlur stdDeviation="1"/>
<feComposite in2="hardAlpha" operator="out"/>
<feColorMatrix type="matrix" values="0 0 0 0 0 0 0 0 0 0 0 0 0 0 0 0 0 0 0.25 0"/>
<feBlend mode="normal" in2="BackgroundImageFix" result="effect1_dropShadow_560_26857"/>
<feBlend mode="normal" in="SourceGraphic" in2="effect1_dropShadow_560_26857" result="shape"/>
</filter>
</defs>
</svg>
