<svg width="33" height="33" viewBox="0 0 33 33" fill="none" xmlns="http://www.w3.org/2000/svg">
<g clip-path="url(#clip0_273_12211)">
<g filter="url(#filter0_d_273_12211)">
<path d="M28.2621 17.4264C28.0855 20.3548 26.844 23.1278 24.7578 25.2141C22.5 27.4718 19.4378 28.7402 16.2448 28.7402C13.0519 28.7402 9.98966 27.4718 7.73189 25.2141C5.47412 22.9563 4.20572 19.8941 4.20572 16.7011C4.20572 13.5081 5.47412 10.446 7.73189 8.18819C9.81811 6.10196 12.5912 4.86047 15.5196 4.68386V16.7011V17.4264H16.2448H28.2621Z" stroke="#5D6F84" stroke-width="1.45049" shape-rendering="crispEdges"/>
</g>
<g filter="url(#filter1_d_273_12211)">
<path d="M19.4355 4.33862C21.6432 4.91057 23.6577 6.06252 25.2703 7.6751C26.8828 9.28767 28.0348 11.3022 28.6067 13.5098H19.4355V4.33862Z" stroke="#5D6F84" stroke-width="1.45049" shape-rendering="crispEdges"/>
</g>
</g>
<defs>
<filter id="filter0_d_273_12211" x="1.66735" y="3.03021" width="29.155" height="29.1549" filterUnits="userSpaceOnUse" color-interpolation-filters="sRGB">
<feFlood flood-opacity="0" result="BackgroundImageFix"/>
<feColorMatrix in="SourceAlpha" type="matrix" values="0 0 0 0 0 0 0 0 0 0 0 0 0 0 0 0 0 0 127 0" result="hardAlpha"/>
<feOffset dy="0.906559"/>
<feGaussianBlur stdDeviation="0.906559"/>
<feComposite in2="hardAlpha" operator="out"/>
<feColorMatrix type="matrix" values="0 0 0 0 0 0 0 0 0 0 0 0 0 0 0 0 0 0 0.25 0"/>
<feBlend mode="normal" in2="BackgroundImageFix" result="effect1_dropShadow_273_12211"/>
<feBlend mode="normal" in="SourceGraphic" in2="effect1_dropShadow_273_12211" result="shape"/>
</filter>
<filter id="filter1_d_273_12211" x="16.8973" y="2.49493" width="14.4597" height="14.4599" filterUnits="userSpaceOnUse" color-interpolation-filters="sRGB">
<feFlood flood-opacity="0" result="BackgroundImageFix"/>
<feColorMatrix in="SourceAlpha" type="matrix" values="0 0 0 0 0 0 0 0 0 0 0 0 0 0 0 0 0 0 127 0" result="hardAlpha"/>
<feOffset dy="0.906559"/>
<feGaussianBlur stdDeviation="0.906559"/>
<feComposite in2="hardAlpha" operator="out"/>
<feColorMatrix type="matrix" values="0 0 0 0 0 0 0 0 0 0 0 0 0 0 0 0 0 0 0.25 0"/>
<feBlend mode="normal" in2="BackgroundImageFix" result="effect1_dropShadow_273_12211"/>
<feBlend mode="normal" in="SourceGraphic" in2="effect1_dropShadow_273_12211" result="shape"/>
</filter>
<clipPath id="clip0_273_12211">
<rect width="31.9109" height="31.9109" fill="white" transform="translate(0.289062 0.745605)"/>
</clipPath>
</defs>
</svg>
