<svg width="20" height="20" viewBox="0 0 20 20" fill="none" xmlns="http://www.w3.org/2000/svg">
<path d="M1.9681 1.96798C1.56177 2.3743 1.3335 2.9254 1.3335 3.50004V5.66671C1.3335 6.24134 1.56177 6.79244 1.9681 7.19877C2.37443 7.6051 2.92553 7.83337 3.50016 7.83337H5.66683C6.24146 7.83337 6.79256 7.6051 7.19889 7.19877C7.60522 6.79244 7.8335 6.24134 7.8335 5.66671V3.50004C7.8335 2.9254 7.60522 2.3743 7.19889 1.96798C6.79256 1.56165 6.24146 1.33337 5.66683 1.33337H3.50016C2.92553 1.33337 2.37443 1.56165 1.9681 1.96798Z" stroke="#5D6F84" stroke-linecap="round" stroke-linejoin="round"/>
<path d="M12.8014 1.96798C12.3951 2.3743 12.1668 2.9254 12.1668 3.50004V5.66671C12.1668 6.24134 12.3951 6.79244 12.8014 7.19877C13.2078 7.6051 13.7589 7.83337 14.3335 7.83337H16.5002C17.0748 7.83337 17.6259 7.6051 18.0322 7.19877C18.4386 6.79244 18.6668 6.24134 18.6668 5.66671V3.50004C18.6668 2.9254 18.4386 2.3743 18.0322 1.96798C17.6259 1.56165 17.0748 1.33337 16.5002 1.33337H14.3335C13.7589 1.33337 13.2078 1.56165 12.8014 1.96798Z" stroke="#5D6F84" stroke-linecap="round" stroke-linejoin="round"/>
<path d="M1.9681 12.8013C1.56177 13.2076 1.3335 13.7587 1.3335 14.3334V16.5C1.3335 17.0747 1.56177 17.6258 1.9681 18.0321C2.37443 18.4384 2.92553 18.6667 3.50016 18.6667H5.66683C6.24146 18.6667 6.79256 18.4384 7.19889 18.0321C7.60522 17.6258 7.8335 17.0747 7.8335 16.5V14.3334C7.8335 13.7587 7.60522 13.2076 7.19889 12.8013C6.79256 12.395 6.24146 12.1667 5.66683 12.1667H3.50016C2.92553 12.1667 2.37443 12.395 1.9681 12.8013Z" stroke="#5D6F84" stroke-linecap="round" stroke-linejoin="round"/>
<path d="M12.8014 12.8013C12.3951 13.2076 12.1668 13.7587 12.1668 14.3334V16.5C12.1668 17.0747 12.3951 17.6258 12.8014 18.0321C13.2078 18.4384 13.7589 18.6667 14.3335 18.6667H16.5002C17.0748 18.6667 17.6259 18.4384 18.0322 18.0321C18.4386 17.6258 18.6668 17.0747 18.6668 16.5V14.3334C18.6668 13.7587 18.4386 13.2076 18.0322 12.8013C17.6259 12.395 17.0748 12.1667 16.5002 12.1667H14.3335C13.7589 12.1667 13.2078 12.395 12.8014 12.8013Z" stroke="#5D6F84" stroke-linecap="round" stroke-linejoin="round"/>
</svg>
