<svg width="23" height="23" viewBox="0 0 23 23" fill="none" xmlns="http://www.w3.org/2000/svg">
<g filter="url(#filter0_d_235_9926)">
<path d="M8.625 17.2083V11.4583C8.625 10.95 8.42307 10.4625 8.06362 10.103C7.70418 9.7436 7.21666 9.54167 6.70833 9.54167H4.79167C4.28334 9.54167 3.79582 9.7436 3.43638 10.103C3.07693 10.4625 2.875 10.95 2.875 11.4583V17.2083C2.875 17.7167 3.07693 18.2042 3.43638 18.5636C3.79582 18.9231 4.28334 19.125 4.79167 19.125H6.70833C7.21666 19.125 7.70418 18.9231 8.06362 18.5636C8.42307 18.2042 8.625 17.7167 8.625 17.2083ZM8.625 17.2083V7.625C8.625 7.11667 8.82693 6.62916 9.18638 6.26971C9.54582 5.91027 10.0333 5.70833 10.5417 5.70833H12.4583C12.9667 5.70833 13.4542 5.91027 13.8136 6.26971C14.1731 6.62916 14.375 7.11667 14.375 7.625V17.2083M8.625 17.2083C8.625 17.7167 8.82693 18.2042 9.18638 18.5636C9.54582 18.9231 10.0333 19.125 10.5417 19.125H12.4583C12.9667 19.125 13.4542 18.9231 13.8136 18.5636C14.1731 18.2042 14.375 17.7167 14.375 17.2083M14.375 17.2083V3.79167C14.375 3.28334 14.5769 2.79582 14.9364 2.43638C15.2958 2.07693 15.7833 1.875 16.2917 1.875H18.2083C18.7167 1.875 19.2042 2.07693 19.5636 2.43638C19.9231 2.79582 20.125 3.28334 20.125 3.79167V17.2083C20.125 17.7167 19.9231 18.2042 19.5636 18.5636C19.2042 18.9231 18.7167 19.125 18.2083 19.125H16.2917C15.7833 19.125 15.2958 18.9231 14.9364 18.5636C14.5769 18.2042 14.375 17.7167 14.375 17.2083Z" stroke="#5D6F84" stroke-width="1.4" stroke-linecap="round" stroke-linejoin="round" shape-rendering="crispEdges"/>
</g>
<defs>
<filter id="filter0_d_235_9926" x="0.174805" y="0.175049" width="22.6504" height="22.6499" filterUnits="userSpaceOnUse" color-interpolation-filters="sRGB">
<feFlood flood-opacity="0" result="BackgroundImageFix"/>
<feColorMatrix in="SourceAlpha" type="matrix" values="0 0 0 0 0 0 0 0 0 0 0 0 0 0 0 0 0 0 127 0" result="hardAlpha"/>
<feOffset dy="1"/>
<feGaussianBlur stdDeviation="1"/>
<feComposite in2="hardAlpha" operator="out"/>
<feColorMatrix type="matrix" values="0 0 0 0 0 0 0 0 0 0 0 0 0 0 0 0 0 0 0.25 0"/>
<feBlend mode="normal" in2="BackgroundImageFix" result="effect1_dropShadow_235_9926"/>
<feBlend mode="normal" in="SourceGraphic" in2="effect1_dropShadow_235_9926" result="shape"/>
</filter>
</defs>
</svg>
