<svg width="30" height="30" viewBox="0 0 30 30" fill="none" xmlns="http://www.w3.org/2000/svg">
<rect width="30" height="30" rx="2" fill="#4069B3"/>
<g filter="url(#filter0_d_582_12066)">
<path fill-rule="evenodd" clip-rule="evenodd" d="M24.5 15C24.5 19.6944 20.2464 23.4999 15 23.4999C13.3138 23.5071 11.6507 23.099 10.1514 22.3099L5.5 23.4999L7.08888 19.7077C6.08544 18.3599 5.5 16.7412 5.5 15C5.5 10.3056 9.75362 6.5 15 6.5C20.2464 6.5 24.5 10.3056 24.5 15ZM11.4375 14.7857C11.4375 14.2334 10.9898 13.7857 10.4375 13.7857H10.0625C9.51022 13.7857 9.0625 14.2334 9.0625 14.7857V15.2142C9.0625 15.7665 9.51022 16.2142 10.0625 16.2142H10.4375C10.9898 16.2142 11.4375 15.7665 11.4375 15.2142V14.7857ZM20.9375 14.7857C20.9375 14.2334 20.4898 13.7857 19.9375 13.7857H19.5625C19.0102 13.7857 18.5625 14.2334 18.5625 14.7857V15.2142C18.5625 15.7665 19.0102 16.2142 19.5625 16.2142H19.9375C20.4898 16.2142 20.9375 15.7665 20.9375 15.2142V14.7857ZM13.8125 14.7857C13.8125 14.2334 14.2602 13.7857 14.8125 13.7857H15.1875C15.7398 13.7857 16.1875 14.2334 16.1875 14.7857V15.2142C16.1875 15.7665 15.7398 16.2142 15.1875 16.2142H14.8125C14.2602 16.2142 13.8125 15.7665 13.8125 15.2142V14.7857Z" fill="white"/>
</g>
<defs>
<filter id="filter0_d_582_12066" x="3.5" y="5.5" width="23" height="21" filterUnits="userSpaceOnUse" color-interpolation-filters="sRGB">
<feFlood flood-opacity="0" result="BackgroundImageFix"/>
<feColorMatrix in="SourceAlpha" type="matrix" values="0 0 0 0 0 0 0 0 0 0 0 0 0 0 0 0 0 0 127 0" result="hardAlpha"/>
<feOffset dy="1"/>
<feGaussianBlur stdDeviation="1"/>
<feComposite in2="hardAlpha" operator="out"/>
<feColorMatrix type="matrix" values="0 0 0 0 0 0 0 0 0 0 0 0 0 0 0 0 0 0 0.25 0"/>
<feBlend mode="normal" in2="BackgroundImageFix" result="effect1_dropShadow_582_12066"/>
<feBlend mode="normal" in="SourceGraphic" in2="effect1_dropShadow_582_12066" result="shape"/>
</filter>
</defs>
</svg>
