<svg width="30" height="30" viewBox="0 0 30 30" fill="none" xmlns="http://www.w3.org/2000/svg">
<path d="M0 3.2C0 2.0799 0 1.51984 0.217987 1.09202C0.409734 0.715695 0.715695 0.409734 1.09202 0.217987C1.51984 0 2.0799 0 3.2 0L26.8 0C27.9201 0 28.4802 0 28.908 0.217987C29.2843 0.409734 29.5903 0.715695 29.782 1.09202C30 1.51984 30 2.0799 30 3.2V26.8C30 27.9201 30 28.4802 29.782 28.908C29.5903 29.2843 29.2843 29.5903 28.908 29.782C28.4802 30 27.9201 30 26.8 30H3.2C2.0799 30 1.51984 30 1.09202 29.782C0.715695 29.5903 0.409734 29.2843 0.217987 28.908C0 28.4802 0 27.9201 0 26.8L0 3.2Z" fill="#4069B3"/>
<g filter="url(#filter0_d_560_26892)">
<path fill-rule="evenodd" clip-rule="evenodd" d="M8.14286 7.875C8.14286 7.24511 8.38367 6.64102 8.81233 6.19562C9.24098 5.75022 9.82236 5.5 10.4286 5.5H19.5714C20.1776 5.5 20.759 5.75022 21.1877 6.19562C21.6163 6.64102 21.8571 7.24511 21.8571 7.875V22.125C22.1602 22.125 22.4509 22.2501 22.6653 22.4728C22.8796 22.6955 23 22.9976 23 23.3125C23 23.6274 22.8796 23.9295 22.6653 24.1522C22.4509 24.3749 22.1602 24.5 21.8571 24.5H18.4286C18.1255 24.5 17.8348 24.3749 17.6205 24.1522C17.4061 23.9295 17.2857 23.6274 17.2857 23.3125V20.9375C17.2857 20.6226 17.1653 20.3205 16.951 20.0978C16.7367 19.8751 16.446 19.75 16.1429 19.75H13.8571C13.554 19.75 13.2633 19.8751 13.049 20.0978C12.8347 20.3205 12.7143 20.6226 12.7143 20.9375V23.3125C12.7143 23.6274 12.5939 23.9295 12.3796 24.1522C12.1652 24.3749 11.8745 24.5 11.5714 24.5H8.14286C7.83975 24.5 7.54906 24.3749 7.33474 24.1522C7.12041 23.9295 7 23.6274 7 23.3125C7 22.9976 7.12041 22.6955 7.33474 22.4728C7.54906 22.2501 7.83975 22.125 8.14286 22.125V7.875ZM11.5714 9.0625H13.8571V11.4375H11.5714V9.0625ZM13.8571 13.8125H11.5714V16.1875H13.8571V13.8125ZM16.1429 9.0625H18.4286V11.4375H16.1429V9.0625ZM18.4286 13.8125H16.1429V16.1875H18.4286V13.8125Z" fill="white"/>
</g>
<defs>
<filter id="filter0_d_560_26892" x="5" y="4.5" width="20" height="23" filterUnits="userSpaceOnUse" color-interpolation-filters="sRGB">
<feFlood flood-opacity="0" result="BackgroundImageFix"/>
<feColorMatrix in="SourceAlpha" type="matrix" values="0 0 0 0 0 0 0 0 0 0 0 0 0 0 0 0 0 0 127 0" result="hardAlpha"/>
<feOffset dy="1"/>
<feGaussianBlur stdDeviation="1"/>
<feComposite in2="hardAlpha" operator="out"/>
<feColorMatrix type="matrix" values="0 0 0 0 0 0 0 0 0 0 0 0 0 0 0 0 0 0 0.25 0"/>
<feBlend mode="normal" in2="BackgroundImageFix" result="effect1_dropShadow_560_26892"/>
<feBlend mode="normal" in="SourceGraphic" in2="effect1_dropShadow_560_26892" result="shape"/>
</filter>
</defs>
</svg>
