<svg width="30" height="30" viewBox="0 0 30 30" fill="none" xmlns="http://www.w3.org/2000/svg">
<g id="Group 39914">
<rect id="Surface" width="30" height="30" rx="2" fill="#4069B3"/>
<g id="Vector" filter="url(#filter0_d_565_26897)">
<path d="M22.853 18.2528C23.2801 17.2215 23.5 16.1162 23.5 15C23.5 12.7457 22.6045 10.5837 21.0104 8.98959C19.4163 7.39553 17.2543 6.5 15 6.5C12.7457 6.5 10.5837 7.39553 8.98959 8.98959C7.39553 10.5837 6.5 12.7457 6.5 15C6.5 16.1162 6.71986 17.2215 7.14702 18.2528C7.57419 19.2841 8.20029 20.2211 8.98959 21.0104C9.77889 21.7997 10.7159 22.4258 11.7472 22.853C12.7785 23.2801 13.8838 23.5 15 23.5C16.1162 23.5 17.2215 23.2801 18.2528 22.853C19.2841 22.4258 20.2211 21.7997 21.0104 21.0104C21.7997 20.2211 22.4258 19.2841 22.853 18.2528Z" fill="white"/>
</g>
<g id="&#226;&#130;&#185;" filter="url(#filter1_i_565_26897)">
<path d="M18.3291 12.4805L18.0146 13.5605H11.6709L11.9854 12.4805H18.3291ZM15.4854 20L11.8691 15.7754L11.8623 14.9277H13.5303C14.0133 14.9277 14.4121 14.848 14.7266 14.6885C15.0456 14.5244 15.2848 14.3034 15.4443 14.0254C15.6038 13.7474 15.6836 13.4352 15.6836 13.0889C15.6836 12.7015 15.6084 12.362 15.458 12.0703C15.3076 11.7741 15.0706 11.5439 14.7471 11.3799C14.4281 11.2113 14.0088 11.127 13.4893 11.127H11.6846L12.0059 10.0469H13.4893C14.2822 10.0469 14.9362 10.1676 15.4512 10.4092C15.9707 10.6462 16.3581 10.9925 16.6133 11.4482C16.8685 11.904 16.9961 12.4554 16.9961 13.1025C16.9961 13.6585 16.889 14.1576 16.6748 14.5996C16.4652 15.0371 16.1165 15.3812 15.6289 15.6318C15.1458 15.8825 14.4941 16.0078 13.6738 16.0078L17.0371 19.918V20H15.4854ZM18.3291 10.0469L18.0146 11.127H12.9014L13.2158 10.0469H18.3291Z" fill="#4069B3"/>
</g>
</g>
<defs>
<filter id="filter0_d_565_26897" x="4.5" y="5.75" width="21" height="21" filterUnits="userSpaceOnUse" color-interpolation-filters="sRGB">
<feFlood flood-opacity="0" result="BackgroundImageFix"/>
<feColorMatrix in="SourceAlpha" type="matrix" values="0 0 0 0 0 0 0 0 0 0 0 0 0 0 0 0 0 0 127 0" result="hardAlpha"/>
<feOffset dy="1.25"/>
<feGaussianBlur stdDeviation="1"/>
<feComposite in2="hardAlpha" operator="out"/>
<feColorMatrix type="matrix" values="0 0 0 0 0 0 0 0 0 0 0 0 0 0 0 0 0 0 0.25 0"/>
<feBlend mode="normal" in2="BackgroundImageFix" result="effect1_dropShadow_565_26897"/>
<feBlend mode="normal" in="SourceGraphic" in2="effect1_dropShadow_565_26897" result="shape"/>
</filter>
<filter id="filter1_i_565_26897" x="11.6709" y="10.0469" width="6.6582" height="10.4531" filterUnits="userSpaceOnUse" color-interpolation-filters="sRGB">
<feFlood flood-opacity="0" result="BackgroundImageFix"/>
<feBlend mode="normal" in="SourceGraphic" in2="BackgroundImageFix" result="shape"/>
<feColorMatrix in="SourceAlpha" type="matrix" values="0 0 0 0 0 0 0 0 0 0 0 0 0 0 0 0 0 0 127 0" result="hardAlpha"/>
<feOffset dy="0.5"/>
<feGaussianBlur stdDeviation="0.75"/>
<feComposite in2="hardAlpha" operator="arithmetic" k2="-1" k3="1"/>
<feColorMatrix type="matrix" values="0 0 0 0 0.2 0 0 0 0 0.2 0 0 0 0 0.2 0 0 0 0.25 0"/>
<feBlend mode="normal" in2="shape" result="effect1_innerShadow_565_26897"/>
</filter>
</defs>
</svg>
