<svg width="30" height="30" viewBox="0 0 30 30" fill="none" xmlns="http://www.w3.org/2000/svg">
<g id="Group 39909">
<rect id="Surface" x="0.000488281" width="30" height="30" rx="2" fill="#4069B3"/>
<g id="Vector" filter="url(#filter0_d_560_26875)">
<path d="M6.18754 5.5C5.87258 5.5 5.57053 5.61775 5.34782 5.82735C5.12512 6.03695 5 6.32123 5 6.61765C5 6.91407 5.12512 7.19834 5.34782 7.40794C5.57053 7.61754 5.87258 7.73529 6.18754 7.73529H7.63634L7.99854 9.10106C8.00214 9.11678 8.00609 9.13244 8.01041 9.148L9.62309 15.2168L8.56262 16.2138C7.06632 17.622 8.1256 20.0294 10.2418 20.0294H20.438C20.753 20.0294 21.055 19.9117 21.2777 19.7021C21.5004 19.4925 21.6256 19.2082 21.6256 18.9118C21.6256 18.6153 21.5004 18.3311 21.2777 18.1215C21.055 17.9119 20.753 17.7941 20.438 17.7941H10.2418L11.4293 16.6765H19.2505C19.471 16.6764 19.6871 16.6185 19.8746 16.5093C20.0621 16.4002 20.2136 16.244 20.3121 16.0584L23.8748 9.35253C23.9652 9.18218 24.0079 8.9929 23.9988 8.80265C23.9897 8.61241 23.9291 8.42751 23.8227 8.2655C23.7164 8.10349 23.5678 7.96974 23.3911 7.87695C23.2144 7.78416 23.0154 7.7354 22.8131 7.73529H10.0827L9.71453 6.34606C9.6502 6.10437 9.50191 5.88984 9.2932 5.73656C9.0845 5.58327 8.82736 5.50001 8.56262 5.5H6.18754ZM21.6256 22.8235C21.6256 23.2682 21.4379 23.6946 21.1038 24.009C20.7698 24.3234 20.3167 24.5 19.8442 24.5C19.3718 24.5 18.9187 24.3234 18.5847 24.009C18.2506 23.6946 18.0629 23.2682 18.0629 22.8235C18.0629 22.3789 18.2506 21.9525 18.5847 21.6381C18.9187 21.3237 19.3718 21.1471 19.8442 21.1471C20.3167 21.1471 20.7698 21.3237 21.1038 21.6381C21.4379 21.9525 21.6256 22.3789 21.6256 22.8235ZM10.3439 24.5C10.8164 24.5 11.2694 24.3234 11.6035 24.009C11.9376 23.6946 12.1252 23.2682 12.1252 22.8235C12.1252 22.3789 11.9376 21.9525 11.6035 21.6381C11.2694 21.3237 10.8164 21.1471 10.3439 21.1471C9.8715 21.1471 9.41841 21.3237 9.08435 21.6381C8.75029 21.9525 8.56262 22.3789 8.56262 22.8235C8.56262 23.2682 8.75029 23.6946 9.08435 24.009C9.41841 24.3234 9.8715 24.5 10.3439 24.5Z" fill="white"/>
</g>
</g>
<defs>
<filter id="filter0_d_560_26875" x="3" y="4.5" width="23" height="23" filterUnits="userSpaceOnUse" color-interpolation-filters="sRGB">
<feFlood flood-opacity="0" result="BackgroundImageFix"/>
<feColorMatrix in="SourceAlpha" type="matrix" values="0 0 0 0 0 0 0 0 0 0 0 0 0 0 0 0 0 0 127 0" result="hardAlpha"/>
<feOffset dy="1"/>
<feGaussianBlur stdDeviation="1"/>
<feComposite in2="hardAlpha" operator="out"/>
<feColorMatrix type="matrix" values="0 0 0 0 0 0 0 0 0 0 0 0 0 0 0 0 0 0 0.25 0"/>
<feBlend mode="normal" in2="BackgroundImageFix" result="effect1_dropShadow_560_26875"/>
<feBlend mode="normal" in="SourceGraphic" in2="effect1_dropShadow_560_26875" result="shape"/>
</filter>
</defs>
</svg>
