<svg width="30" height="30" viewBox="0 0 30 30" fill="none" xmlns="http://www.w3.org/2000/svg">
<rect x="0.000488281" width="30" height="30" rx="2" fill="#4069B3"/>
<g filter="url(#filter0_d_560_26880)">
<path d="M23 20.2778H18V21.3333C18 22.1732 17.6839 22.9786 17.1213 23.5725C16.5587 24.1664 15.7956 24.5 15 24.5C14.2044 24.5 13.4413 24.1664 12.8787 23.5725C12.3161 22.9786 12 22.1732 12 21.3333V20.2778H7L8.405 18.7947C8.786 18.3926 9 17.8468 9 17.2789V13.9444C9 11.1873 10.67 8.84083 13 7.97106V7.61111C13 7.05121 13.2107 6.51424 13.5858 6.11833C13.9609 5.72242 14.4696 5.5 15 5.5C15.5304 5.5 16.0391 5.72242 16.4142 6.11833C16.7893 6.51424 17 7.05121 17 7.61111V7.97106C18.17 8.40802 19.1829 9.21707 19.8992 10.2868C20.6156 11.3566 21.0002 12.6344 21 13.9444V17.2779C21 17.5596 21.0525 17.8385 21.1546 18.0988C21.2567 18.359 21.4063 18.5955 21.595 18.7947L23 20.2778Z" fill="white"/>
</g>
<defs>
<filter id="filter0_d_560_26880" x="5" y="4.75" width="20" height="23" filterUnits="userSpaceOnUse" color-interpolation-filters="sRGB">
<feFlood flood-opacity="0" result="BackgroundImageFix"/>
<feColorMatrix in="SourceAlpha" type="matrix" values="0 0 0 0 0 0 0 0 0 0 0 0 0 0 0 0 0 0 127 0" result="hardAlpha"/>
<feOffset dy="1.25"/>
<feGaussianBlur stdDeviation="1"/>
<feComposite in2="hardAlpha" operator="out"/>
<feColorMatrix type="matrix" values="0 0 0 0 0 0 0 0 0 0 0 0 0 0 0 0 0 0 0.25 0"/>
<feBlend mode="normal" in2="BackgroundImageFix" result="effect1_dropShadow_560_26880"/>
<feBlend mode="normal" in="SourceGraphic" in2="effect1_dropShadow_560_26880" result="shape"/>
</filter>
</defs>
</svg>
