<svg width="20" height="24" viewBox="0 0 20 24" fill="none" xmlns="http://www.w3.org/2000/svg">
<g id="Vector" filter="url(#filter0_d_560_26866)">
<path d="M7 16V14M10 16V12M13 16V10M15 20H5C4.46957 20 3.96086 19.7893 3.58579 19.4142C3.21071 19.0391 3 18.5304 3 18V4C3 3.46957 3.21071 2.96086 3.58579 2.58579C3.96086 2.21071 4.46957 2 5 2H10.586C10.8512 2.00006 11.1055 2.10545 11.293 2.293L16.707 7.707C16.8946 7.89449 16.9999 8.1488 17 8.414V18C17 18.5304 16.7893 19.0391 16.4142 19.4142C16.0391 19.7893 15.5304 20 15 20Z" stroke="#5D6F84" stroke-width="1.5" stroke-linecap="round" stroke-linejoin="round" shape-rendering="crispEdges"/>
</g>
<defs>
<filter id="filter0_d_560_26866" x="0.25" y="0.5" width="19.5" height="23.5" filterUnits="userSpaceOnUse" color-interpolation-filters="sRGB">
<feFlood flood-opacity="0" result="BackgroundImageFix"/>
<feColorMatrix in="SourceAlpha" type="matrix" values="0 0 0 0 0 0 0 0 0 0 0 0 0 0 0 0 0 0 127 0" result="hardAlpha"/>
<feOffset dy="1.25"/>
<feGaussianBlur stdDeviation="1"/>
<feComposite in2="hardAlpha" operator="out"/>
<feColorMatrix type="matrix" values="0 0 0 0 0 0 0 0 0 0 0 0 0 0 0 0 0 0 0.25 0"/>
<feBlend mode="normal" in2="BackgroundImageFix" result="effect1_dropShadow_560_26866"/>
<feBlend mode="normal" in="SourceGraphic" in2="effect1_dropShadow_560_26866" result="shape"/>
</filter>
</defs>
</svg>
