<svg width="30" height="30" viewBox="0 0 30 30" fill="none" xmlns="http://www.w3.org/2000/svg">
<g id="Group 39908">
<rect id="Surface" x="0.000488281" width="30" height="30" rx="2" fill="#4069B3"/>
<g id="Vector" filter="url(#filter0_d_560_26871)">
<path fill-rule="evenodd" clip-rule="evenodd" d="M10 6C9.33696 6 8.70107 6.23705 8.23223 6.65901C7.76339 7.08097 7.5 7.65326 7.5 8.25V21.75C7.5 22.3467 7.76339 22.919 8.23223 23.341C8.70107 23.7629 9.33696 24 10 24H20C20.663 24 21.2989 23.7629 21.7678 23.341C22.2366 22.919 22.5 22.3467 22.5 21.75V12.0908C22.4999 11.4941 22.2364 10.9219 21.7675 10.5L17.5 6.65925C17.0313 6.23726 16.3955 6.00013 15.7325 6H10ZM12.5 17.25C12.5 16.9516 12.3683 16.6655 12.1339 16.4545C11.8995 16.2435 11.5815 16.125 11.25 16.125C10.9185 16.125 10.6005 16.2435 10.3661 16.4545C10.1317 16.6655 10 16.9516 10 17.25V20.625C10 20.9234 10.1317 21.2095 10.3661 21.4205C10.6005 21.6315 10.9185 21.75 11.25 21.75C11.5815 21.75 11.8995 21.6315 12.1339 21.4205C12.3683 21.2095 12.5 20.9234 12.5 20.625V17.25ZM15 13.875C15.3315 13.875 15.6495 13.9935 15.8839 14.2045C16.1183 14.4155 16.25 14.7016 16.25 15V20.625C16.25 20.9234 16.1183 21.2095 15.8839 21.4205C15.6495 21.6315 15.3315 21.75 15 21.75C14.6685 21.75 14.3505 21.6315 14.1161 21.4205C13.8817 21.2095 13.75 20.9234 13.75 20.625V15C13.75 14.7016 13.8817 14.4155 14.1161 14.2045C14.3505 13.9935 14.6685 13.875 15 13.875V13.875ZM20 12.75C20 12.4516 19.8683 12.1655 19.6339 11.9545C19.3995 11.7435 19.0815 11.625 18.75 11.625C18.4185 11.625 18.1005 11.7435 17.8661 11.9545C17.6317 12.1655 17.5 12.4516 17.5 12.75V20.625C17.5 20.9234 17.6317 21.2095 17.8661 21.4205C18.1005 21.6315 18.4185 21.75 18.75 21.75C19.0815 21.75 19.3995 21.6315 19.6339 21.4205C19.8683 21.2095 20 20.9234 20 20.625V12.75Z" fill="white"/>
</g>
</g>
<defs>
<filter id="filter0_d_560_26871" x="5.5" y="5" width="19" height="22" filterUnits="userSpaceOnUse" color-interpolation-filters="sRGB">
<feFlood flood-opacity="0" result="BackgroundImageFix"/>
<feColorMatrix in="SourceAlpha" type="matrix" values="0 0 0 0 0 0 0 0 0 0 0 0 0 0 0 0 0 0 127 0" result="hardAlpha"/>
<feOffset dy="1"/>
<feGaussianBlur stdDeviation="1"/>
<feComposite in2="hardAlpha" operator="out"/>
<feColorMatrix type="matrix" values="0 0 0 0 0 0 0 0 0 0 0 0 0 0 0 0 0 0 0.3 0"/>
<feBlend mode="normal" in2="BackgroundImageFix" result="effect1_dropShadow_560_26871"/>
<feBlend mode="normal" in="SourceGraphic" in2="effect1_dropShadow_560_26871" result="shape"/>
</filter>
</defs>
</svg>
