<svg width="39" height="35" viewBox="0 0 39 35" fill="none" xmlns="http://www.w3.org/2000/svg">
<rect width="39" height="35" rx="3" fill="#4069B3"/>
<path d="M20.5607 18.1C20.842 17.7791 21 17.3438 21 16.89C21 16.4362 20.842 16.0009 20.5607 15.68C20.2793 15.3591 19.8978 15.1788 19.5 15.1788C19.1022 15.1788 18.7207 15.3591 18.4394 15.68C18.158 16.0009 18 16.4362 18 16.89C18 17.3438 18.158 17.7791 18.4394 18.1C18.7207 18.4209 19.1022 18.6012 19.5 18.6012C19.8978 18.6012 20.2793 18.4209 20.5607 18.1Z" fill="white"/>
<path d="M9.95408 27.78C8.70049 26.3499 7.70608 24.6521 7.02763 22.7836C6.34919 20.9151 6 18.9125 6 16.89C6 14.8675 6.34919 12.8649 7.02763 10.9964C7.70608 9.12786 8.70049 7.43009 9.95408 6M29.0459 6C30.2995 7.43009 31.2939 9.12786 31.9724 10.9964C32.6508 12.8649 33 14.8675 33 16.89C33 18.9125 32.6508 20.9151 31.9724 22.7836C31.2939 24.6521 30.2995 26.3499 29.0459 27.78M14.196 22.939C12.79 21.3346 12.0002 19.1587 12.0002 16.89C12.0002 14.6213 12.79 12.4454 14.196 10.841M24.804 10.841C26.21 12.4454 26.9998 14.6213 26.9998 16.89C26.9998 19.1587 26.21 21.3346 24.804 22.939M21 16.89C21 17.3438 20.842 17.7791 20.5607 18.1C20.2793 18.4209 19.8978 18.6012 19.5 18.6012C19.1022 18.6012 18.7207 18.4209 18.4394 18.1C18.158 17.7791 18 17.3438 18 16.89C18 16.4362 18.158 16.0009 18.4394 15.68C18.7207 15.3591 19.1022 15.1788 19.5 15.1788C19.8978 15.1788 20.2793 15.3591 20.5607 15.68C20.842 16.0009 21 16.4362 21 16.89Z" stroke="white" stroke-width="1.5" stroke-linecap="round" stroke-linejoin="round"/>
<ellipse cx="19.4997" cy="16.8539" rx="3.78" ry="3.96206" fill="white"/>
</svg>
